<svg
                  width="132"
                  height="109"
                  viewBox="0 0 132 109"
                  fill="none"
                  xmlns="http://www.w3.org/2000/svg"
                >
                  <path
                    d="M0.5 20C0.5 8.95431 9.45431 0 20.5 0H64.5V44C64.5 55.0457 55.5457 64 44.5 64H0.5V20Z"
                    fill="#4AC6F0"
                  />
                  <path
                    d="M34.1016 19.789C33.3281 20.2969 31.8906 21.0937 30.4141 21.8359C29.7188 22.1797 29.1094 22.5312 29.0625 22.6172C28.836 23.0547 29.586 26.2344 30.2735 27.75C31.0313 29.4062 32.2031 30.6484 33.4141 31.0781C34.6875 31.5234 36.0235 31.375 37.1563 30.664C38.6016 29.75 39.6953 27.7187 40.2735 24.875C40.5 23.7422 40.586 22.9531 40.5156 22.6719C40.4766 22.5078 40.2891 22.3828 39.586 22.0312C39.1094 21.789 38.4688 21.4531 38.1641 21.2734C37.4844 20.8828 35.4844 19.6719 35.2735 19.5312C35.0078 19.3437 34.6797 19.414 34.1016 19.789Z"
                    fill="white"
                  />
                  <path
                    d="M36.1484 23.2656C36.0781 23.3203 35.6641 24 35.2344 24.7734C34.7969 25.5469 34.4141 26.2109 34.375 26.2422C34.3438 26.2812 34.0938 26.1484 33.8203 25.9531C33.5469 25.7578 33.2656 25.5937 33.1875 25.5937C33.0078 25.5937 32.6562 25.9297 32.6562 26.0937C32.6562 26.2812 32.9609 26.5703 33.6719 27.0781C34.3672 27.5703 34.6484 27.6484 34.8594 27.4062C34.9297 27.3359 35.4219 26.4765 35.9688 25.5078C36.7812 24.0547 36.9531 23.7031 36.9062 23.5312C36.8281 23.2031 36.4219 23.0625 36.1484 23.2656Z"
                    fill="#4AC6F0"
                  />
                  <path
                    d="M44.4141 30.2422C42.8281 30.5391 41.6641 31.3281 40.4453 32.9375C40.1328 33.3438 39.8203 33.6875 39.75 33.7031C39.6797 33.7188 39.4766 33.625 39.2969 33.4922C38.3594 32.8125 36.9297 32.75 33.9062 33.25C31.2422 33.6875 30.1641 33.6484 29.6406 33.0781C28.8359 32.1953 28.6172 32.0234 28.1172 31.8516C26.5703 31.3047 23.6094 31.7344 20.3359 32.9766C19.8516 33.1641 19.4453 33.2891 19.4141 33.2656C19.3906 33.2422 19.375 33.1484 19.375 33.0547C19.375 32.6953 19.1719 32.625 18.1016 32.625C17.2109 32.625 17.0938 32.6406 16.9531 32.7812C16.8047 32.9297 16.7969 33.0391 16.7969 36.5703C16.7969 40.1016 16.8047 40.2109 16.9531 40.3594C17.0938 40.5 17.2109 40.5156 18.1172 40.5156C19.1172 40.5156 19.1328 40.5156 19.2891 40.3125L19.4531 40.1094L20.7969 40.6328C24.3984 42.0391 28.9062 43.6016 31.2422 44.2656C32.2188 44.5391 32.4688 44.5781 33.1562 44.5781C34.3516 44.5781 35.3594 44.2891 36.8359 43.5469C38.7891 42.5625 40.8906 40.9531 43.3047 38.5703C45.1016 36.8047 47.8125 33.7734 48.1172 33.1875C48.3125 32.8203 47.9141 32 47.3984 31.6797C47.2578 31.6016 46.9688 31.5 46.7422 31.4531C46.3672 31.375 46.3281 31.3438 46.3281 31.1562C46.3281 31.0391 46.2578 30.8359 46.1719 30.6953C45.8906 30.2266 45.3047 30.0781 44.4141 30.2422ZM45.3047 31.25C45.3672 31.3203 45.3672 31.4219 45.3203 31.5469C45.2812 31.6484 44.3984 32.6641 43.3516 33.8047C40.5078 36.9062 40.2344 37.2188 40.2344 37.3906C40.2344 37.6172 40.5078 37.8594 40.7734 37.8594C40.9688 37.8594 41.3047 37.5234 43.375 35.2578C44.6797 33.8359 45.8203 32.6016 45.8984 32.5156C46.0078 32.4062 46.125 32.3828 46.3828 32.4141C46.75 32.4531 47.1094 32.6484 47.1094 32.8125C47.1094 33.0547 44.2812 36.2266 42.5312 37.9375C39.4531 40.9453 36.9062 42.7109 34.6875 43.3828C33.6328 43.6953 32.7344 43.6719 31.4844 43.2969C29.5547 42.7188 27.9688 42.1953 25.8594 41.4453C23.0625 40.4531 19.6562 39.1562 19.4688 39.0078C19.3984 38.9531 19.375 38.4219 19.3906 36.6641L19.4141 34.3984L20.3906 34.0234C21.5938 33.5703 22.8594 33.1797 24.1016 32.8906C24.9141 32.7031 25.2031 32.6719 26.2891 32.6719C27.4688 32.6641 27.5625 32.6719 27.9297 32.8594C28.1797 32.9844 28.4297 33.2031 28.6328 33.4688C29.5156 34.625 30.6719 34.7891 34.1016 34.2266C37.5156 33.6641 38.7734 33.8594 39.3438 35.0156C39.5 35.3281 39.5312 35.4922 39.4922 35.6875C39.3594 36.3047 38.8594 36.5156 37.8281 36.375C37.0703 36.2734 35.8984 36.3594 34.5312 36.6172C32.9062 36.9219 29.2578 37.9453 28.8594 38.2109C28.5938 38.3828 28.5938 38.8203 28.875 39C29.0625 39.125 29.1094 39.1172 30.2188 38.7734C31.7266 38.2969 33.8672 37.75 35.0391 37.5391C35.9453 37.3828 37.0234 37.3281 38.2812 37.3828C38.6016 37.3984 39.0078 37.375 39.1875 37.3203C39.5938 37.2109 40.1406 36.7422 40.3203 36.3438C40.4844 35.9766 40.5156 35.2031 40.3828 34.8203C40.3047 34.5938 40.3125 34.5625 40.5 34.4141C40.6172 34.3203 40.9688 33.9062 41.2812 33.4922C42.2734 32.1875 43.0312 31.625 44.2734 31.2969C44.9219 31.1172 45.1875 31.1094 45.3047 31.25Z"
                    fill="white"
                  />
                  <path
                    d="M1.4 88.5V86.42H5.56V101H3.26V88.5H1.4ZM8.69219 93.52C8.69219 91.2133 9.07885 89.4133 9.85219 88.12C10.6389 86.8133 11.9855 86.16 13.8922 86.16C15.7989 86.16 17.1389 86.8133 17.9122 88.12C18.6989 89.4133 19.0922 91.2133 19.0922 93.52C19.0922 95.8533 18.6989 97.68 17.9122 99C17.1389 100.307 15.7989 100.96 13.8922 100.96C11.9855 100.96 10.6389 100.307 9.85219 99C9.07885 97.68 8.69219 95.8533 8.69219 93.52ZM16.8522 93.52C16.8522 92.44 16.7789 91.5267 16.6322 90.78C16.4989 90.0333 16.2189 89.4267 15.7922 88.96C15.3655 88.48 14.7322 88.24 13.8922 88.24C13.0522 88.24 12.4189 88.48 11.9922 88.96C11.5655 89.4267 11.2789 90.0333 11.1322 90.78C10.9989 91.5267 10.9322 92.44 10.9322 93.52C10.9322 94.64 10.9989 95.58 11.1322 96.34C11.2655 97.1 11.5455 97.7133 11.9722 98.18C12.4122 98.6467 13.0522 98.88 13.8922 98.88C14.7322 98.88 15.3655 98.6467 15.7922 98.18C16.2322 97.7133 16.5189 97.1 16.6522 96.34C16.7855 95.58 16.8522 94.64 16.8522 93.52ZM21.5047 93.52C21.5047 91.2133 21.8914 89.4133 22.6647 88.12C23.4514 86.8133 24.798 86.16 26.7047 86.16C28.6114 86.16 29.9514 86.8133 30.7247 88.12C31.5114 89.4133 31.9047 91.2133 31.9047 93.52C31.9047 95.8533 31.5114 97.68 30.7247 99C29.9514 100.307 28.6114 100.96 26.7047 100.96C24.798 100.96 23.4514 100.307 22.6647 99C21.8914 97.68 21.5047 95.8533 21.5047 93.52ZM29.6647 93.52C29.6647 92.44 29.5914 91.5267 29.4447 90.78C29.3114 90.0333 29.0314 89.4267 28.6047 88.96C28.178 88.48 27.5447 88.24 26.7047 88.24C25.8647 88.24 25.2314 88.48 24.8047 88.96C24.378 89.4267 24.0914 90.0333 23.9447 90.78C23.8114 91.5267 23.7447 92.44 23.7447 93.52C23.7447 94.64 23.8114 95.58 23.9447 96.34C24.078 97.1 24.358 97.7133 24.7847 98.18C25.2247 98.6467 25.8647 98.88 26.7047 98.88C27.5447 98.88 28.178 98.6467 28.6047 98.18C29.0447 97.7133 29.3314 97.1 29.4647 96.34C29.598 95.58 29.6647 94.64 29.6647 93.52ZM33.9572 89.94C33.9572 88.9667 34.2372 88.2067 34.7972 87.66C35.3705 87.1 36.1039 86.82 36.9972 86.82C37.8905 86.82 38.6172 87.1 39.1772 87.66C39.7505 88.2067 40.0372 88.9667 40.0372 89.94C40.0372 90.9133 39.7505 91.68 39.1772 92.24C38.6172 92.8 37.8905 93.08 36.9972 93.08C36.1039 93.08 35.3705 92.8 34.7972 92.24C34.2372 91.68 33.9572 90.9133 33.9572 89.94ZM46.1572 87.08L38.1772 101H35.9372L43.9172 87.08H46.1572ZM36.9972 88.2C36.1572 88.2 35.7372 88.78 35.7372 89.94C35.7372 91.1133 36.1572 91.7 36.9972 91.7C37.3972 91.7 37.7039 91.56 37.9172 91.28C38.1439 90.9867 38.2572 90.54 38.2572 89.94C38.2572 88.78 37.8372 88.2 36.9972 88.2ZM42.0972 98.12C42.0972 97.1467 42.3772 96.3867 42.9372 95.84C43.5105 95.28 44.2439 95 45.1372 95C46.0172 95 46.7372 95.28 47.2972 95.84C47.8705 96.3867 48.1572 97.1467 48.1572 98.12C48.1572 99.0933 47.8705 99.86 47.2972 100.42C46.7372 100.98 46.0172 101.26 45.1372 101.26C44.2439 101.26 43.5105 100.98 42.9372 100.42C42.3772 99.86 42.0972 99.0933 42.0972 98.12ZM45.1172 96.38C44.2772 96.38 43.8572 96.96 43.8572 98.12C43.8572 99.28 44.2772 99.86 45.1172 99.86C45.9572 99.86 46.3772 99.28 46.3772 98.12C46.3772 96.96 45.9572 96.38 45.1172 96.38ZM67.6714 87.1L62.4514 101H59.8114L54.5714 87.1H57.0114L61.1314 98.66L65.2714 87.1H67.6714ZM79.6781 95.22C79.6781 95.6333 79.6515 96.0067 79.5981 96.34H71.1781C71.2448 97.22 71.5715 97.9267 72.1581 98.46C72.7448 98.9933 73.4648 99.26 74.3181 99.26C75.5448 99.26 76.4115 98.7467 76.9181 97.72H79.3781C79.0448 98.7333 78.4381 99.5667 77.5581 100.22C76.6915 100.86 75.6115 101.18 74.3181 101.18C73.2648 101.18 72.3181 100.947 71.4781 100.48C70.6515 100 69.9981 99.3333 69.5181 98.48C69.0515 97.6133 68.8181 96.6133 68.8181 95.48C68.8181 94.3467 69.0448 93.3533 69.4981 92.5C69.9648 91.6333 70.6115 90.9667 71.4381 90.5C72.2781 90.0333 73.2381 89.8 74.3181 89.8C75.3581 89.8 76.2848 90.0267 77.0981 90.48C77.9115 90.9333 78.5448 91.5733 78.9981 92.4C79.4515 93.2133 79.6781 94.1533 79.6781 95.22ZM77.2981 94.5C77.2848 93.66 76.9848 92.9867 76.3981 92.48C75.8115 91.9733 75.0848 91.72 74.2181 91.72C73.4315 91.72 72.7581 91.9733 72.1981 92.48C71.6381 92.9733 71.3048 93.6467 71.1981 94.5H77.2981ZM84.2019 91.58C84.5352 91.02 84.9752 90.5867 85.5219 90.28C86.0819 89.96 86.7419 89.8 87.5019 89.8V92.16H86.9219C86.0285 92.16 85.3485 92.3867 84.8819 92.84C84.4285 93.2933 84.2019 94.08 84.2019 95.2V101H81.9219V89.98H84.2019V91.58ZM90.7577 88.52C90.3443 88.52 89.9977 88.38 89.7177 88.1C89.4377 87.82 89.2977 87.4733 89.2977 87.06C89.2977 86.6467 89.4377 86.3 89.7177 86.02C89.9977 85.74 90.3443 85.6 90.7577 85.6C91.1577 85.6 91.4977 85.74 91.7777 86.02C92.0577 86.3 92.1977 86.6467 92.1977 87.06C92.1977 87.4733 92.0577 87.82 91.7777 88.1C91.4977 88.38 91.1577 88.52 90.7577 88.52ZM91.8777 89.98V101H89.5977V89.98H91.8777ZM99.4911 91.84H97.4511V101H95.1511V91.84H93.8511V89.98H95.1511V89.2C95.1511 87.9333 95.4844 87.0133 96.1511 86.44C96.8311 85.8533 97.8911 85.56 99.3311 85.56V87.46C98.6378 87.46 98.1511 87.5933 97.8711 87.86C97.5911 88.1133 97.4511 88.56 97.4511 89.2V89.98H99.4911V91.84ZM102.672 88.52C102.258 88.52 101.912 88.38 101.632 88.1C101.352 87.82 101.212 87.4733 101.212 87.06C101.212 86.6467 101.352 86.3 101.632 86.02C101.912 85.74 102.258 85.6 102.672 85.6C103.072 85.6 103.412 85.74 103.692 86.02C103.972 86.3 104.112 86.6467 104.112 87.06C104.112 87.4733 103.972 87.82 103.692 88.1C103.412 88.38 103.072 88.52 102.672 88.52ZM103.792 89.98V101H101.512V89.98H103.792ZM116.885 95.22C116.885 95.6333 116.858 96.0067 116.805 96.34H108.385C108.452 97.22 108.778 97.9267 109.365 98.46C109.952 98.9933 110.672 99.26 111.525 99.26C112.752 99.26 113.618 98.7467 114.125 97.72H116.585C116.252 98.7333 115.645 99.5667 114.765 100.22C113.898 100.86 112.818 101.18 111.525 101.18C110.472 101.18 109.525 100.947 108.685 100.48C107.858 100 107.205 99.3333 106.725 98.48C106.258 97.6133 106.025 96.6133 106.025 95.48C106.025 94.3467 106.252 93.3533 106.705 92.5C107.172 91.6333 107.818 90.9667 108.645 90.5C109.485 90.0333 110.445 89.8 111.525 89.8C112.565 89.8 113.492 90.0267 114.305 90.48C115.118 90.9333 115.752 91.5733 116.205 92.4C116.658 93.2133 116.885 94.1533 116.885 95.22ZM114.505 94.5C114.492 93.66 114.192 92.9867 113.605 92.48C113.018 91.9733 112.292 91.72 111.425 91.72C110.638 91.72 109.965 91.9733 109.405 92.48C108.845 92.9733 108.512 93.6467 108.405 94.5H114.505ZM118.369 95.44C118.369 94.3333 118.596 93.3533 119.049 92.5C119.516 91.6467 120.142 90.9867 120.929 90.52C121.729 90.04 122.616 89.8 123.589 89.8C124.309 89.8 125.016 89.96 125.709 90.28C126.416 90.5867 126.976 91 127.389 91.52V86.2H129.689V101H127.389V99.34C127.016 99.8733 126.496 100.313 125.829 100.66C125.176 101.007 124.422 101.18 123.569 101.18C122.609 101.18 121.729 100.94 120.929 100.46C120.142 99.9667 119.516 99.2867 119.049 98.42C118.596 97.54 118.369 96.5467 118.369 95.44ZM127.389 95.48C127.389 94.72 127.229 94.06 126.909 93.5C126.602 92.94 126.196 92.5133 125.689 92.22C125.182 91.9267 124.636 91.78 124.049 91.78C123.462 91.78 122.916 91.9267 122.409 92.22C121.902 92.5 121.489 92.92 121.169 93.48C120.862 94.0267 120.709 94.68 120.709 95.44C120.709 96.2 120.862 96.8667 121.169 97.44C121.489 98.0133 121.902 98.4533 122.409 98.76C122.929 99.0533 123.476 99.2 124.049 99.2C124.636 99.2 125.182 99.0533 125.689 98.76C126.196 98.4667 126.602 98.04 126.909 97.48C127.229 96.9067 127.389 96.24 127.389 95.48Z"
                    fill="black"
                  />
                </svg>