<svg
                  width="145"
                  height="109"
                  viewBox="0 0 145 109"
                  fill="none"
                  xmlns="http://www.w3.org/2000/svg"
                >
                  <path
                    d="M0.833374 20C0.833374 8.95431 9.78768 0 20.8334 0H64.8334V44C64.8334 55.0457 55.8791 64 44.8334 64H0.833374V20Z"
                    fill="#F99073"
                  />
                  <g clip-path="url(#clip0_98_34)">
                    <path
                      d="M15.5022 26.9864L15.5027 26.9869C16.4956 27.9798 17.7222 28.6852 19.2308 29.1L19.2336 29.1008C19.7537 29.2484 19.9082 29.2591 23.4061 29.2906C23.4063 29.2906 23.4066 29.2906 23.4068 29.2906L27.0543 29.3141L27.4021 29.3163V29.6641V32.9844V36.2969V37.0178L26.8356 36.5719L26.4707 36.2846C24.8885 35.0821 22.5955 35.4507 21.565 37.049L21.5646 37.0497C20.9221 38.0414 20.9282 39.2811 21.5857 40.2749C21.6069 40.3066 21.6731 40.3843 21.8135 40.5234C21.9479 40.6565 22.1335 40.8297 22.3758 41.0472C22.8598 41.4819 23.5595 42.0845 24.504 42.8806C24.5041 42.8807 24.5042 42.8808 24.5042 42.8808L27.2381 45.1773L27.3603 45.2799L27.363 45.4394L27.402 47.7359C27.402 47.736 27.402 47.7361 27.402 47.7362C27.4217 48.8325 27.4333 49.3941 27.4586 49.7104C27.4712 49.8683 27.4857 49.941 27.4974 49.9789C27.5046 50.0022 27.5104 50.0139 27.5324 50.044C27.6052 50.1331 27.7571 50.2702 27.8603 50.3299L27.8603 50.3299L27.8663 50.3335C27.8899 50.3478 27.8966 50.3507 27.906 50.354C27.919 50.3586 27.949 50.3672 28.0161 50.3763C28.1557 50.3952 28.4035 50.4098 28.8873 50.4196C29.8475 50.439 31.6705 50.4391 35.2552 50.4391C38.8399 50.4391 40.6629 50.439 41.6231 50.4196C42.1069 50.4098 42.3547 50.3952 42.4943 50.3763C42.5614 50.3672 42.5914 50.3586 42.6044 50.354C42.6139 50.3507 42.6205 50.3478 42.6441 50.3335L42.6441 50.3334L42.6502 50.3299C42.7537 50.27 42.9062 50.1323 42.9787 50.0432C42.9857 50.0338 42.9889 50.0291 42.9903 50.0271C42.9918 50.0233 42.9978 50.0059 43.0052 49.9618C43.024 49.8484 43.04 49.6329 43.0518 49.1842C43.0751 48.2968 43.081 46.58 43.0927 43.1472C43.1005 40.6864 43.1005 38.9323 43.0908 37.7519C43.0859 37.1615 43.0786 36.7166 43.0687 36.3995C43.0585 36.073 43.046 35.9082 43.0364 35.8545C42.8811 35.0673 42.3771 34.2893 41.7287 33.843L41.7282 33.8427C41.4366 33.6413 41.2349 33.5315 40.7024 33.4174C40.1421 33.2974 39.2468 33.1803 37.5715 32.9723L37.5712 32.9723C35.8275 32.7543 34.3085 32.5577 34.2055 32.5406L34.197 32.5391L34.1887 32.5373C34.1868 32.5369 34.1846 32.5365 34.1821 32.5359C34.1401 32.5272 34.0079 32.4999 33.9042 32.3897C33.7995 32.2784 33.7719 32.1378 33.759 32.0436C33.7333 31.8555 33.7333 31.5252 33.7333 30.9661L33.7333 30.9062V29.6641V29.3154L34.0819 29.3141L40.0034 29.2906L40.0038 29.2906L45.8718 29.2596L46.4898 29.0924C46.4902 29.0923 46.4906 29.0922 46.4911 29.0921C50.2538 28.0475 52.6768 24.7533 52.4605 21.0051C52.3406 19.0211 51.5649 17.2973 50.1335 15.8733C48.939 14.6863 47.6656 14.0101 46.1124 13.7112C45.8766 13.6675 45.3441 13.6372 43.4369 13.6215C41.5453 13.6059 38.3302 13.6039 32.7633 13.6078C27.6771 13.6117 24.4578 13.6195 22.4593 13.6361C21.4598 13.6444 20.7678 13.6549 20.3012 13.6681C19.8231 13.6816 19.6096 13.6978 19.541 13.7107C16.58 14.302 14.1783 16.5846 13.4382 19.5002C12.7575 22.1856 13.5355 25.0272 15.5022 26.9864ZM32.0896 28.5283V28.5285L32.0898 28.5619C32.1092 31.0593 32.119 32.3188 32.144 32.9829C32.1568 33.3209 32.1729 33.481 32.1902 33.5655C32.1977 33.6021 32.2033 33.6137 32.2037 33.6143L32.2037 33.6144C32.2039 33.6149 32.2046 33.6174 32.2223 33.641C32.3064 33.7518 32.3412 33.7902 32.3995 33.8261C32.467 33.8678 32.5895 33.9183 32.8657 33.9783C33.4211 34.099 34.4481 34.2295 36.5251 34.4886L36.5256 34.4887L36.7087 34.5118C38.7395 34.7679 39.7901 34.9003 40.3546 35.0447C40.6485 35.1199 40.8718 35.2117 41.0348 35.3717C41.1789 35.5133 41.248 35.6872 41.299 35.8154C41.3041 35.8284 41.3091 35.841 41.314 35.853L41.3146 35.8544C41.3957 36.0574 41.4256 36.3183 41.4429 36.8828C41.4607 37.4626 41.4646 38.416 41.4646 40.0469V43.7969V44.1469H41.1146H34.9115H28.7005H28.573L28.4754 44.0648L25.835 41.8463C25.108 41.2366 24.4316 40.6657 23.9268 40.2363C23.6746 40.0217 23.4647 39.8419 23.3126 39.7102C23.2367 39.6444 23.1744 39.5899 23.1281 39.5486C23.0894 39.5141 23.0448 39.474 23.0197 39.4464L23.0197 39.4464L23.0171 39.4435C22.6506 39.0312 22.6623 38.4949 22.8802 38.0759C23.0966 37.6596 23.5266 37.3241 24.0681 37.2402C24.2312 37.2141 24.3947 37.2007 24.5682 37.2231C24.7444 37.2458 24.912 37.303 25.0899 37.3957C25.4285 37.5723 25.8397 37.8987 26.4574 38.4199C27.1851 39.0329 27.5503 39.3341 27.7897 39.4875C27.9026 39.5598 27.9697 39.5872 28.0198 39.6005C28.0709 39.614 28.1256 39.6187 28.2318 39.6187C28.5412 39.6187 28.8146 39.4477 28.9409 39.1898L28.9408 39.1898L28.9441 39.1835C28.9442 39.1832 28.9444 39.1829 28.9445 39.1826C28.9491 39.174 28.9678 39.1388 28.9849 38.9639C29.0028 38.7798 29.0161 38.4754 29.0254 37.9412C29.0439 36.8767 29.0458 34.9432 29.0458 31.3359C29.0458 27.7323 29.0478 25.7908 29.0664 24.7185C29.0757 24.1844 29.0892 23.855 29.1101 23.6402C29.1311 23.4241 29.1622 23.2912 29.2243 23.1698C29.6037 22.4138 30.6182 22.1085 31.3509 22.5601C31.3647 22.5684 31.3836 22.5792 31.4046 22.5912C31.4503 22.6174 31.5063 22.6494 31.5444 22.6743C31.6196 22.7233 31.7016 22.7882 31.7729 22.8872C31.9082 23.0747 31.9624 23.3268 31.9961 23.6656C32.056 24.2697 32.0648 25.3877 32.0817 27.5457C32.0841 27.8518 32.0867 28.1789 32.0896 28.5283Z"
                      fill="white"
                      stroke="#F99073"
                      stroke-width="0.7"
                    />
                    <path
                      d="M44.0443 18.0234C43.9583 18.0703 42.9818 19.0156 41.8802 20.1172L39.8646 22.1172L39.0286 21.2812C38.5599 20.8281 38.1068 20.4141 38.013 20.3672C37.7474 20.2266 37.2005 20.2656 36.9115 20.4375C36.4271 20.7344 36.2318 21.2891 36.4271 21.8203C36.5208 22.0703 39.013 24.6094 39.3333 24.7812C39.6068 24.9219 40.1224 24.9219 40.3958 24.7812C40.513 24.7188 41.7396 23.5312 43.1146 22.1406C45.7786 19.4688 45.8021 19.4375 45.6927 18.8359C45.6302 18.5234 45.3958 18.2109 45.099 18.0547C44.8333 17.9219 44.2708 17.9062 44.0443 18.0234Z"
                      fill="#F99073"
                    />
                  </g>
                  <path
                    d="M13.0934 103.52L10.6534 100.88C10.0534 101.053 9.39337 101.14 8.67337 101.14C7.38004 101.14 6.18671 100.84 5.09337 100.24C4.01337 99.6267 3.15337 98.78 2.51337 97.7C1.88671 96.6067 1.57337 95.38 1.57337 94.02C1.57337 92.66 1.88671 91.44 2.51337 90.36C3.15337 89.28 4.01337 88.44 5.09337 87.84C6.18671 87.2267 7.38004 86.92 8.67337 86.92C9.98004 86.92 11.1734 87.2267 12.2534 87.84C13.3467 88.44 14.2067 89.28 14.8334 90.36C15.46 91.44 15.7734 92.66 15.7734 94.02C15.7734 95.3 15.4934 96.46 14.9334 97.5C14.3867 98.5267 13.6267 99.3533 12.6534 99.98L15.9934 103.52H13.0934ZM3.91337 94.02C3.91337 95.0467 4.11337 95.9533 4.51337 96.74C4.92671 97.5133 5.49337 98.1133 6.21337 98.54C6.93337 98.9533 7.75337 99.16 8.67337 99.16C9.59337 99.16 10.4134 98.9533 11.1334 98.54C11.8534 98.1133 12.4134 97.5133 12.8134 96.74C13.2267 95.9533 13.4334 95.0467 13.4334 94.02C13.4334 92.9933 13.2267 92.0933 12.8134 91.32C12.4134 90.5467 11.8534 89.9533 11.1334 89.54C10.4134 89.1267 9.59337 88.92 8.67337 88.92C7.75337 88.92 6.93337 89.1267 6.21337 89.54C5.49337 89.9533 4.92671 90.5467 4.51337 91.32C4.11337 92.0933 3.91337 92.9933 3.91337 94.02ZM28.0556 89.98V101H25.7756V99.7C25.4156 100.153 24.9422 100.513 24.3556 100.78C23.7822 101.033 23.1689 101.16 22.5156 101.16C21.6489 101.16 20.8689 100.98 20.1756 100.62C19.4956 100.26 18.9556 99.7267 18.5556 99.02C18.1689 98.3133 17.9756 97.46 17.9756 96.46V89.98H20.2356V96.12C20.2356 97.1067 20.4822 97.8667 20.9756 98.4C21.4689 98.92 22.1422 99.18 22.9956 99.18C23.8489 99.18 24.5222 98.92 25.0156 98.4C25.5222 97.8667 25.7756 97.1067 25.7756 96.12V89.98H28.0556ZM32.2238 88.52C31.8105 88.52 31.4638 88.38 31.1838 88.1C30.9038 87.82 30.7638 87.4733 30.7638 87.06C30.7638 86.6467 30.9038 86.3 31.1838 86.02C31.4638 85.74 31.8105 85.6 32.2238 85.6C32.6238 85.6 32.9638 85.74 33.2438 86.02C33.5238 86.3 33.6638 86.6467 33.6638 87.06C33.6638 87.4733 33.5238 87.82 33.2438 88.1C32.9638 88.38 32.6238 88.52 32.2238 88.52ZM33.3438 89.98V101H31.0638V89.98H33.3438ZM35.5773 95.48C35.5773 94.3467 35.8039 93.3533 36.2573 92.5C36.7239 91.6333 37.3639 90.9667 38.1773 90.5C38.9906 90.0333 39.9239 89.8 40.9773 89.8C42.3106 89.8 43.4106 90.12 44.2773 90.76C45.1573 91.3867 45.7506 92.2867 46.0573 93.46H43.5973C43.3973 92.9133 43.0773 92.4867 42.6373 92.18C42.1973 91.8733 41.6439 91.72 40.9773 91.72C40.0439 91.72 39.2973 92.0533 38.7373 92.72C38.1906 93.3733 37.9173 94.2933 37.9173 95.48C37.9173 96.6667 38.1906 97.5933 38.7373 98.26C39.2973 98.9267 40.0439 99.26 40.9773 99.26C42.2973 99.26 43.1706 98.68 43.5973 97.52H46.0573C45.7373 98.64 45.1373 99.5333 44.2573 100.2C43.3773 100.853 42.2839 101.18 40.9773 101.18C39.9239 101.18 38.9906 100.947 38.1773 100.48C37.3639 100 36.7239 99.3333 36.2573 98.48C35.8039 97.6133 35.5773 96.6133 35.5773 95.48ZM52.6895 95.5L57.7695 101H54.6895L50.6095 96.26V101H48.3295V86.2H50.6095V94.8L54.6095 89.98H57.7695L52.6895 95.5ZM72.039 93.86C72.7857 93.9933 73.419 94.3867 73.939 95.04C74.459 95.6933 74.719 96.4333 74.719 97.26C74.719 97.9667 74.5323 98.6067 74.159 99.18C73.799 99.74 73.2723 100.187 72.579 100.52C71.8857 100.84 71.079 101 70.159 101H64.599V87.1H69.899C70.8457 87.1 71.659 87.26 72.339 87.58C73.019 87.9 73.5323 88.3333 73.879 88.88C74.2257 89.4133 74.399 90.0133 74.399 90.68C74.399 91.48 74.1857 92.1467 73.759 92.68C73.3323 93.2133 72.759 93.6067 72.039 93.86ZM66.879 92.94H69.699C70.4457 92.94 71.0257 92.7733 71.439 92.44C71.8657 92.0933 72.079 91.6 72.079 90.96C72.079 90.3333 71.8657 89.8467 71.439 89.5C71.0257 89.14 70.4457 88.96 69.699 88.96H66.879V92.94ZM69.959 99.14C70.7323 99.14 71.339 98.9533 71.779 98.58C72.219 98.2067 72.439 97.6867 72.439 97.02C72.439 96.34 72.2057 95.8 71.739 95.4C71.2723 95 70.6523 94.8 69.879 94.8H66.879V99.14H69.959ZM81.9767 101.18C80.9367 101.18 79.9967 100.947 79.1567 100.48C78.3167 100 77.6567 99.3333 77.1767 98.48C76.6967 97.6133 76.4567 96.6133 76.4567 95.48C76.4567 94.36 76.7033 93.3667 77.1967 92.5C77.69 91.6333 78.3633 90.9667 79.2167 90.5C80.07 90.0333 81.0233 89.8 82.0767 89.8C83.13 89.8 84.0833 90.0333 84.9367 90.5C85.79 90.9667 86.4633 91.6333 86.9567 92.5C87.45 93.3667 87.6967 94.36 87.6967 95.48C87.6967 96.6 87.4433 97.5933 86.9367 98.46C86.43 99.3267 85.7367 100 84.8567 100.48C83.99 100.947 83.03 101.18 81.9767 101.18ZM81.9767 99.2C82.5633 99.2 83.11 99.06 83.6167 98.78C84.1367 98.5 84.5567 98.08 84.8767 97.52C85.1967 96.96 85.3567 96.28 85.3567 95.48C85.3567 94.68 85.2033 94.0067 84.8967 93.46C84.59 92.9 84.1833 92.48 83.6767 92.2C83.17 91.92 82.6233 91.78 82.0367 91.78C81.45 91.78 80.9033 91.92 80.3967 92.2C79.9033 92.48 79.51 92.9 79.2167 93.46C78.9233 94.0067 78.7767 94.68 78.7767 95.48C78.7767 96.6667 79.0767 97.5867 79.6767 98.24C80.29 98.88 81.0567 99.2 81.9767 99.2ZM94.7306 101.18C93.6906 101.18 92.7506 100.947 91.9106 100.48C91.0706 100 90.4106 99.3333 89.9306 98.48C89.4506 97.6133 89.2106 96.6133 89.2106 95.48C89.2106 94.36 89.4572 93.3667 89.9506 92.5C90.4439 91.6333 91.1172 90.9667 91.9706 90.5C92.8239 90.0333 93.7772 89.8 94.8306 89.8C95.8839 89.8 96.8372 90.0333 97.6906 90.5C98.5439 90.9667 99.2172 91.6333 99.7106 92.5C100.204 93.3667 100.451 94.36 100.451 95.48C100.451 96.6 100.197 97.5933 99.6906 98.46C99.1839 99.3267 98.4906 100 97.6106 100.48C96.7439 100.947 95.7839 101.18 94.7306 101.18ZM94.7306 99.2C95.3172 99.2 95.8639 99.06 96.3706 98.78C96.8906 98.5 97.3106 98.08 97.6306 97.52C97.9506 96.96 98.1106 96.28 98.1106 95.48C98.1106 94.68 97.9572 94.0067 97.6506 93.46C97.3439 92.9 96.9372 92.48 96.4306 92.2C95.9239 91.92 95.3772 91.78 94.7906 91.78C94.2039 91.78 93.6572 91.92 93.1506 92.2C92.6572 92.48 92.2639 92.9 91.9706 93.46C91.6772 94.0067 91.5306 94.68 91.5306 95.48C91.5306 96.6667 91.8306 97.5867 92.4306 98.24C93.0439 98.88 93.8106 99.2 94.7306 99.2ZM107.064 95.5L112.144 101H109.064L104.984 96.26V101H102.704V86.2H104.984V94.8L108.984 89.98H112.144L107.064 95.5ZM114.939 88.52C114.525 88.52 114.179 88.38 113.899 88.1C113.619 87.82 113.479 87.4733 113.479 87.06C113.479 86.6467 113.619 86.3 113.899 86.02C114.179 85.74 114.525 85.6 114.939 85.6C115.339 85.6 115.679 85.74 115.959 86.02C116.239 86.3 116.379 86.6467 116.379 87.06C116.379 87.4733 116.239 87.82 115.959 88.1C115.679 88.38 115.339 88.52 114.939 88.52ZM116.059 89.98V101H113.779V89.98H116.059ZM124.612 89.8C125.479 89.8 126.252 89.98 126.932 90.34C127.625 90.7 128.165 91.2333 128.552 91.94C128.939 92.6467 129.132 93.5 129.132 94.5V101H126.872V94.84C126.872 93.8533 126.625 93.1 126.132 92.58C125.639 92.0467 124.965 91.78 124.112 91.78C123.259 91.78 122.579 92.0467 122.072 92.58C121.579 93.1 121.332 93.8533 121.332 94.84V101H119.052V89.98H121.332V91.24C121.705 90.7867 122.179 90.4333 122.752 90.18C123.339 89.9267 123.959 89.8 124.612 89.8ZM136.48 89.8C137.334 89.8 138.087 89.9733 138.74 90.32C139.407 90.6533 139.927 91.0733 140.3 91.58V89.98H142.6V101.18C142.6 102.193 142.387 103.093 141.96 103.88C141.534 104.68 140.914 105.307 140.1 105.76C139.3 106.213 138.34 106.44 137.22 106.44C135.727 106.44 134.487 106.087 133.5 105.38C132.514 104.687 131.954 103.74 131.82 102.54H134.08C134.254 103.113 134.62 103.573 135.18 103.92C135.754 104.28 136.434 104.46 137.22 104.46C138.14 104.46 138.88 104.18 139.44 103.62C140.014 103.06 140.3 102.247 140.3 101.18V99.34C139.914 99.86 139.387 100.3 138.72 100.66C138.067 101.007 137.32 101.18 136.48 101.18C135.52 101.18 134.64 100.94 133.84 100.46C133.054 99.9667 132.427 99.2867 131.96 98.42C131.507 97.54 131.28 96.5467 131.28 95.44C131.28 94.3333 131.507 93.3533 131.96 92.5C132.427 91.6467 133.054 90.9867 133.84 90.52C134.64 90.04 135.52 89.8 136.48 89.8ZM140.3 95.48C140.3 94.72 140.14 94.06 139.82 93.5C139.514 92.94 139.107 92.5133 138.6 92.22C138.094 91.9267 137.547 91.78 136.96 91.78C136.374 91.78 135.827 91.9267 135.32 92.22C134.814 92.5 134.4 92.92 134.08 93.48C133.774 94.0267 133.62 94.68 133.62 95.44C133.62 96.2 133.774 96.8667 134.08 97.44C134.4 98.0133 134.814 98.4533 135.32 98.76C135.84 99.0533 136.387 99.2 136.96 99.2C137.547 99.2 138.094 99.0533 138.6 98.76C139.107 98.4667 139.514 98.04 139.82 97.48C140.14 96.9067 140.3 96.24 140.3 95.48Z"
                    fill="black"
                  />
                  <defs>
                    <clipPath id="clip0_98_34">
                      <rect
                        width="40"
                        height="40"
                        fill="white"
                        transform="translate(12.8334 12)"
                      />
                    </clipPath>
                  </defs>
                </svg>