<svg
                  width="233"
                  height="109"
                  viewBox="0 0 233 109"
                  fill="none"
                  xmlns="http://www.w3.org/2000/svg"
                >
                  <path
                    d="M0.166748 20C0.166748 8.95431 9.12105 0 20.1667 0H64.1667V44C64.1667 55.0457 55.2124 64 44.1667 64H0.166748V20Z"
                    fill="#AB9AFF"
                  />
                  <path
                    d="M34.5 23.5769V25.0769L34 28.5769L32.5 31.5769L26 32.5769L20.5 42.5769L33.5 50.0769L44.5 31.5769L40.5 23.0769H39L34.5 23.5769Z"
                    fill="white"
                  />
                  <mask id="path-3-inside-1_98_45" fill="white">
                    <path d="M25.9324 13.2188C25.3933 13.4844 25.1902 13.8438 24.9792 14.875C24.573 16.8984 23.9011 18.3281 22.6199 19.9219C22.198 20.4375 21.9949 20.5938 21.6667 20.6484C21.4324 20.6875 21.3855 20.6641 21.2839 20.4609C21.1121 20.1328 20.7683 19.8125 20.4089 19.6484C20.1355 19.5234 19.8777 19.5 18.2214 19.5C16.5652 19.5 16.3074 19.5234 16.0261 19.6484C15.6433 19.8281 15.1902 20.3359 15.073 20.7422C15.0027 20.9531 14.9792 22.4609 14.9792 25.9922V30.9453L15.1667 31.3359C15.3621 31.7578 15.7214 32.1172 16.1277 32.2891C16.5183 32.4453 19.9558 32.4375 20.3542 32.2656C20.6902 32.1328 21.1121 31.7422 21.2761 31.4297C21.3855 31.2344 21.4246 31.2187 21.9011 31.2187C22.4792 31.2187 22.7136 31.3203 23.1042 31.7266C23.4636 32.1016 23.8699 32.3047 24.4558 32.3984C24.7214 32.4453 24.948 32.4922 24.9636 32.5078C24.9792 32.5234 23.9089 34.4062 22.5886 36.7031C21.2683 38.9922 20.1355 40.9922 20.0808 41.1406C20.0339 41.2891 19.9871 41.6562 19.9792 41.9609C19.9792 42.625 20.2605 43.2812 20.7292 43.7344C20.9871 43.9687 30.698 49.6562 31.8855 50.2578C32.1042 50.3672 32.5261 50.5 32.823 50.5625C33.1277 50.6172 33.5808 50.7344 33.8308 50.8281C34.2761 50.9844 34.3699 50.9922 40.9011 50.9687L47.5183 50.9453L48.0105 50.6797C48.5574 50.3828 48.7917 50.1406 49.1042 49.5469L49.3152 49.1484L49.3386 38.8516C49.3464 32.0312 49.3308 28.5078 49.2761 28.4062C49.2371 28.3281 48.5183 27.7422 47.698 27.1094C46.8699 26.4766 46.1121 25.8906 46.0183 25.8047L45.8464 25.6484L46.0808 25.25C47.0417 23.6328 47.1589 22.3984 46.4871 21.0469C45.5105 19.1016 43.1902 18.3906 41.2136 19.4375C40.5652 19.7812 40.0417 20.3438 39.4871 21.3047C39.2214 21.7812 38.948 22.1562 38.8855 22.1562C38.823 22.1562 37.9167 22.2734 36.8777 22.4141C35.8308 22.5547 34.9792 22.6641 34.9792 22.6562C34.9792 22.6484 35.0339 22.4922 35.0964 22.3125C35.4558 21.2891 34.9871 20.1719 33.9792 19.6797L33.5339 19.4609L31.2449 19.4375L28.948 19.4141L28.9871 19.2422C29.0105 19.1484 29.1042 18.4844 29.198 17.7578C29.3308 16.6953 29.3464 16.3438 29.2839 15.8828C29.0964 14.5156 28.4324 13.5469 27.4246 13.1719C26.8542 12.9609 26.4246 12.9688 25.9324 13.2188ZM27.073 14.375C27.573 14.6406 27.8933 15.1562 28.0261 15.9141C28.1042 16.3438 28.0886 16.625 27.948 17.6719C27.6902 19.6094 27.7605 19.4219 27.2917 19.4219C26.8074 19.4219 26.5339 19.5469 26.4011 19.8438C26.2761 20.0938 26.3855 20.4688 26.6277 20.5938C26.7058 20.6406 28.0574 20.6719 29.9402 20.6719C33.3777 20.6719 33.4636 20.6797 33.7917 21.1016C34.0574 21.4375 34.0261 21.8594 33.698 22.2188L33.4324 22.5078L32.5027 22.5312C31.3152 22.5625 31.2527 22.5781 31.1042 22.8906C30.9949 23.1172 30.9871 23.1797 31.0808 23.375C31.2527 23.7188 31.4871 23.7969 32.4246 23.7969C33.3621 23.7969 33.6042 23.8828 33.8386 24.2656C34.1199 24.7578 33.8699 25.4688 33.3386 25.6484C33.1824 25.7031 32.6121 25.7422 32.0183 25.7422C31.0496 25.75 30.948 25.7656 30.7839 25.9219C30.5964 26.1016 30.5496 26.4375 30.6824 26.6875C30.7996 26.9062 31.1902 27 32.0183 27C32.4402 27 32.8699 27.0391 32.9714 27.0859C33.3699 27.2656 33.5496 27.9453 33.2917 28.3125C33.0496 28.6641 32.8074 28.7187 31.5027 28.7187C30.3152 28.7187 30.2839 28.7266 30.0964 28.9141C29.8386 29.1641 29.8386 29.5234 30.0964 29.7734C30.2761 29.9609 30.3308 29.9687 31.1902 29.9687C32.0496 29.9687 32.1042 29.9766 32.2839 30.1641C32.5339 30.4062 32.5339 30.6797 32.2917 30.9609L32.1042 31.1797L28.4636 31.2031C26.0339 31.2187 24.7214 31.1953 24.5105 31.1406C24.323 31.0859 24.0105 30.8906 23.7292 30.6328C23.1667 30.1406 22.7292 29.9687 21.9949 29.9687H21.4636V25.9531V21.9453L21.8152 21.8984C22.5808 21.7891 23.0574 21.4141 23.948 20.2344C25.1824 18.5938 25.7996 17.1953 26.198 15.1641C26.2683 14.7734 26.3621 14.4141 26.4089 14.3594C26.5105 14.2344 26.8152 14.2422 27.073 14.375ZM43.9949 20.3594C44.5886 20.5859 45.0808 21.0469 45.3855 21.6719C45.6042 22.1172 45.6433 22.2656 45.6433 22.7891C45.6433 23.3594 45.6199 23.4375 45.2605 24.1406C45.0496 24.5547 44.8621 24.8906 44.8464 24.8906C44.8308 24.8906 43.948 24.2266 42.8855 23.4062C41.698 22.4922 40.8855 21.9219 40.7839 21.9219C40.6824 21.9219 40.6042 21.8984 40.6042 21.8594C40.6121 21.7266 41.2136 20.9375 41.4792 20.7266C42.1199 20.2188 43.1902 20.0625 43.9949 20.3594ZM42.1199 27.5391L43.8855 31.8203L39.0027 40.2891C36.3074 44.9453 34.0261 48.8516 33.9167 48.9609C33.6746 49.2109 33.1746 49.375 32.8464 49.2969C32.7058 49.2734 31.4714 48.5937 30.0964 47.8047C28.7214 47.0078 26.4402 45.6875 25.0183 44.875C23.6042 44.0547 22.2292 43.2578 21.9792 43.1016C21.4402 42.7734 21.2292 42.4375 21.2292 41.9141C21.2292 41.5859 21.448 41.1797 23.8386 37.0312L26.4558 32.5078L29.3699 32.4687C32.5339 32.4219 32.5417 32.4219 33.0886 31.9609C33.6042 31.5312 33.823 30.6953 33.6277 29.9297C33.5808 29.7266 33.5964 29.6797 33.8152 29.5391C34.1042 29.3516 34.4558 28.8672 34.5886 28.4531C34.7214 28.0469 34.6511 27.2734 34.448 26.875L34.2839 26.5547L34.5964 26.25C35.0183 25.8438 35.2371 25.2344 35.1902 24.6172C35.1746 24.3594 35.1433 24.0938 35.1277 24.0391C35.1042 23.9453 35.3933 23.8828 36.6199 23.7109C37.4558 23.6016 38.1589 23.5156 38.1667 23.5312C38.1824 23.5391 38.0027 23.8984 37.7605 24.3203C37.5261 24.7422 37.2917 25.1953 37.2449 25.3359C37.1824 25.4922 37.073 25.6172 36.9089 25.6797C36.5652 25.8203 36.0105 26.3438 35.8152 26.7266C35.573 27.1719 35.573 28.1562 35.8152 28.6094C36.5183 29.9375 38.2136 30.2187 39.2683 29.1953C40.2527 28.2344 40.0652 26.5234 38.9011 25.8516C38.698 25.7422 38.5183 25.6328 38.5027 25.625C38.4714 25.6016 39.6199 23.5391 39.7683 23.3438C39.8074 23.2969 39.9558 23.25 40.0964 23.25H40.3464L42.1199 27.5391ZM46.1746 27.5078L48.1042 28.9922V38.8594C48.1042 47.0156 48.0886 48.7656 47.9949 48.9766C47.8621 49.3047 47.4636 49.6406 47.1433 49.6953C47.0027 49.7187 44.2214 49.7266 40.948 49.7187L35.0027 49.6953L35.7527 48.4062L36.5105 47.1172L39.9792 47.0781C43.4167 47.0391 43.4636 47.0391 43.823 46.8594C44.2371 46.6562 44.5808 46.2969 44.8386 45.8047C45.0183 45.4766 45.0183 45.4609 45.0183 41.9219C45.0183 37.9297 45.0417 38.1016 44.4246 37.4297C44.073 37.0547 43.573 36.8047 42.9636 36.7266C42.7371 36.6953 42.5574 36.6484 42.573 36.6172C42.5886 36.5781 43.1824 35.5391 43.9089 34.2891C44.6277 33.0469 45.2136 31.9609 45.2136 31.8906C45.2136 31.8203 44.5496 30.1406 43.7292 28.1641C42.9167 26.1875 42.2449 24.5547 42.2449 24.5312C42.2449 24.4922 42.5105 24.6953 46.1746 27.5078ZM38.6511 27.6797C38.6511 27.9766 38.6121 28.0703 38.3855 28.2969C38.0808 28.6016 37.7136 28.6484 37.323 28.4453C36.9402 28.25 36.7292 27.6328 36.9324 27.3125C37.0105 27.1875 36.9949 27.1562 37.1589 27.7656C37.2371 28.0391 37.3074 28.125 37.5183 28.2187C37.698 28.2891 37.8464 28.3047 37.9636 28.2578C38.3464 28.1172 38.4324 27.8437 38.3074 27.1953L38.2527 26.8828L38.448 27.1016C38.6042 27.2734 38.6511 27.4062 38.6511 27.6797ZM43.3074 38.1172C43.7996 38.375 43.8074 38.4453 43.8074 41.9375C43.8074 44.9219 43.7996 45.1016 43.6511 45.3359C43.3464 45.8437 43.4324 45.8359 40.198 45.8125L37.2683 45.7891L39.5417 41.8516L41.8074 37.9219L42.4402 37.9531C42.8074 37.9766 43.1667 38.0391 43.3074 38.1172Z" />
                  </mask>
                  <path
                    d="M25.9324 13.2188C25.3933 13.4844 25.1902 13.8438 24.9792 14.875C24.573 16.8984 23.9011 18.3281 22.6199 19.9219C22.198 20.4375 21.9949 20.5938 21.6667 20.6484C21.4324 20.6875 21.3855 20.6641 21.2839 20.4609C21.1121 20.1328 20.7683 19.8125 20.4089 19.6484C20.1355 19.5234 19.8777 19.5 18.2214 19.5C16.5652 19.5 16.3074 19.5234 16.0261 19.6484C15.6433 19.8281 15.1902 20.3359 15.073 20.7422C15.0027 20.9531 14.9792 22.4609 14.9792 25.9922V30.9453L15.1667 31.3359C15.3621 31.7578 15.7214 32.1172 16.1277 32.2891C16.5183 32.4453 19.9558 32.4375 20.3542 32.2656C20.6902 32.1328 21.1121 31.7422 21.2761 31.4297C21.3855 31.2344 21.4246 31.2187 21.9011 31.2187C22.4792 31.2187 22.7136 31.3203 23.1042 31.7266C23.4636 32.1016 23.8699 32.3047 24.4558 32.3984C24.7214 32.4453 24.948 32.4922 24.9636 32.5078C24.9792 32.5234 23.9089 34.4062 22.5886 36.7031C21.2683 38.9922 20.1355 40.9922 20.0808 41.1406C20.0339 41.2891 19.9871 41.6562 19.9792 41.9609C19.9792 42.625 20.2605 43.2812 20.7292 43.7344C20.9871 43.9687 30.698 49.6562 31.8855 50.2578C32.1042 50.3672 32.5261 50.5 32.823 50.5625C33.1277 50.6172 33.5808 50.7344 33.8308 50.8281C34.2761 50.9844 34.3699 50.9922 40.9011 50.9687L47.5183 50.9453L48.0105 50.6797C48.5574 50.3828 48.7917 50.1406 49.1042 49.5469L49.3152 49.1484L49.3386 38.8516C49.3464 32.0312 49.3308 28.5078 49.2761 28.4062C49.2371 28.3281 48.5183 27.7422 47.698 27.1094C46.8699 26.4766 46.1121 25.8906 46.0183 25.8047L45.8464 25.6484L46.0808 25.25C47.0417 23.6328 47.1589 22.3984 46.4871 21.0469C45.5105 19.1016 43.1902 18.3906 41.2136 19.4375C40.5652 19.7812 40.0417 20.3438 39.4871 21.3047C39.2214 21.7812 38.948 22.1562 38.8855 22.1562C38.823 22.1562 37.9167 22.2734 36.8777 22.4141C35.8308 22.5547 34.9792 22.6641 34.9792 22.6562C34.9792 22.6484 35.0339 22.4922 35.0964 22.3125C35.4558 21.2891 34.9871 20.1719 33.9792 19.6797L33.5339 19.4609L31.2449 19.4375L28.948 19.4141L28.9871 19.2422C29.0105 19.1484 29.1042 18.4844 29.198 17.7578C29.3308 16.6953 29.3464 16.3438 29.2839 15.8828C29.0964 14.5156 28.4324 13.5469 27.4246 13.1719C26.8542 12.9609 26.4246 12.9688 25.9324 13.2188ZM27.073 14.375C27.573 14.6406 27.8933 15.1562 28.0261 15.9141C28.1042 16.3438 28.0886 16.625 27.948 17.6719C27.6902 19.6094 27.7605 19.4219 27.2917 19.4219C26.8074 19.4219 26.5339 19.5469 26.4011 19.8438C26.2761 20.0938 26.3855 20.4688 26.6277 20.5938C26.7058 20.6406 28.0574 20.6719 29.9402 20.6719C33.3777 20.6719 33.4636 20.6797 33.7917 21.1016C34.0574 21.4375 34.0261 21.8594 33.698 22.2188L33.4324 22.5078L32.5027 22.5312C31.3152 22.5625 31.2527 22.5781 31.1042 22.8906C30.9949 23.1172 30.9871 23.1797 31.0808 23.375C31.2527 23.7188 31.4871 23.7969 32.4246 23.7969C33.3621 23.7969 33.6042 23.8828 33.8386 24.2656C34.1199 24.7578 33.8699 25.4688 33.3386 25.6484C33.1824 25.7031 32.6121 25.7422 32.0183 25.7422C31.0496 25.75 30.948 25.7656 30.7839 25.9219C30.5964 26.1016 30.5496 26.4375 30.6824 26.6875C30.7996 26.9062 31.1902 27 32.0183 27C32.4402 27 32.8699 27.0391 32.9714 27.0859C33.3699 27.2656 33.5496 27.9453 33.2917 28.3125C33.0496 28.6641 32.8074 28.7187 31.5027 28.7187C30.3152 28.7187 30.2839 28.7266 30.0964 28.9141C29.8386 29.1641 29.8386 29.5234 30.0964 29.7734C30.2761 29.9609 30.3308 29.9687 31.1902 29.9687C32.0496 29.9687 32.1042 29.9766 32.2839 30.1641C32.5339 30.4062 32.5339 30.6797 32.2917 30.9609L32.1042 31.1797L28.4636 31.2031C26.0339 31.2187 24.7214 31.1953 24.5105 31.1406C24.323 31.0859 24.0105 30.8906 23.7292 30.6328C23.1667 30.1406 22.7292 29.9687 21.9949 29.9687H21.4636V25.9531V21.9453L21.8152 21.8984C22.5808 21.7891 23.0574 21.4141 23.948 20.2344C25.1824 18.5938 25.7996 17.1953 26.198 15.1641C26.2683 14.7734 26.3621 14.4141 26.4089 14.3594C26.5105 14.2344 26.8152 14.2422 27.073 14.375ZM43.9949 20.3594C44.5886 20.5859 45.0808 21.0469 45.3855 21.6719C45.6042 22.1172 45.6433 22.2656 45.6433 22.7891C45.6433 23.3594 45.6199 23.4375 45.2605 24.1406C45.0496 24.5547 44.8621 24.8906 44.8464 24.8906C44.8308 24.8906 43.948 24.2266 42.8855 23.4062C41.698 22.4922 40.8855 21.9219 40.7839 21.9219C40.6824 21.9219 40.6042 21.8984 40.6042 21.8594C40.6121 21.7266 41.2136 20.9375 41.4792 20.7266C42.1199 20.2188 43.1902 20.0625 43.9949 20.3594ZM42.1199 27.5391L43.8855 31.8203L39.0027 40.2891C36.3074 44.9453 34.0261 48.8516 33.9167 48.9609C33.6746 49.2109 33.1746 49.375 32.8464 49.2969C32.7058 49.2734 31.4714 48.5937 30.0964 47.8047C28.7214 47.0078 26.4402 45.6875 25.0183 44.875C23.6042 44.0547 22.2292 43.2578 21.9792 43.1016C21.4402 42.7734 21.2292 42.4375 21.2292 41.9141C21.2292 41.5859 21.448 41.1797 23.8386 37.0312L26.4558 32.5078L29.3699 32.4687C32.5339 32.4219 32.5417 32.4219 33.0886 31.9609C33.6042 31.5312 33.823 30.6953 33.6277 29.9297C33.5808 29.7266 33.5964 29.6797 33.8152 29.5391C34.1042 29.3516 34.4558 28.8672 34.5886 28.4531C34.7214 28.0469 34.6511 27.2734 34.448 26.875L34.2839 26.5547L34.5964 26.25C35.0183 25.8438 35.2371 25.2344 35.1902 24.6172C35.1746 24.3594 35.1433 24.0938 35.1277 24.0391C35.1042 23.9453 35.3933 23.8828 36.6199 23.7109C37.4558 23.6016 38.1589 23.5156 38.1667 23.5312C38.1824 23.5391 38.0027 23.8984 37.7605 24.3203C37.5261 24.7422 37.2917 25.1953 37.2449 25.3359C37.1824 25.4922 37.073 25.6172 36.9089 25.6797C36.5652 25.8203 36.0105 26.3438 35.8152 26.7266C35.573 27.1719 35.573 28.1562 35.8152 28.6094C36.5183 29.9375 38.2136 30.2187 39.2683 29.1953C40.2527 28.2344 40.0652 26.5234 38.9011 25.8516C38.698 25.7422 38.5183 25.6328 38.5027 25.625C38.4714 25.6016 39.6199 23.5391 39.7683 23.3438C39.8074 23.2969 39.9558 23.25 40.0964 23.25H40.3464L42.1199 27.5391ZM46.1746 27.5078L48.1042 28.9922V38.8594C48.1042 47.0156 48.0886 48.7656 47.9949 48.9766C47.8621 49.3047 47.4636 49.6406 47.1433 49.6953C47.0027 49.7187 44.2214 49.7266 40.948 49.7187L35.0027 49.6953L35.7527 48.4062L36.5105 47.1172L39.9792 47.0781C43.4167 47.0391 43.4636 47.0391 43.823 46.8594C44.2371 46.6562 44.5808 46.2969 44.8386 45.8047C45.0183 45.4766 45.0183 45.4609 45.0183 41.9219C45.0183 37.9297 45.0417 38.1016 44.4246 37.4297C44.073 37.0547 43.573 36.8047 42.9636 36.7266C42.7371 36.6953 42.5574 36.6484 42.573 36.6172C42.5886 36.5781 43.1824 35.5391 43.9089 34.2891C44.6277 33.0469 45.2136 31.9609 45.2136 31.8906C45.2136 31.8203 44.5496 30.1406 43.7292 28.1641C42.9167 26.1875 42.2449 24.5547 42.2449 24.5312C42.2449 24.4922 42.5105 24.6953 46.1746 27.5078ZM38.6511 27.6797C38.6511 27.9766 38.6121 28.0703 38.3855 28.2969C38.0808 28.6016 37.7136 28.6484 37.323 28.4453C36.9402 28.25 36.7292 27.6328 36.9324 27.3125C37.0105 27.1875 36.9949 27.1562 37.1589 27.7656C37.2371 28.0391 37.3074 28.125 37.5183 28.2187C37.698 28.2891 37.8464 28.3047 37.9636 28.2578C38.3464 28.1172 38.4324 27.8437 38.3074 27.1953L38.2527 26.8828L38.448 27.1016C38.6042 27.2734 38.6511 27.4062 38.6511 27.6797ZM43.3074 38.1172C43.7996 38.375 43.8074 38.4453 43.8074 41.9375C43.8074 44.9219 43.7996 45.1016 43.6511 45.3359C43.3464 45.8437 43.4324 45.8359 40.198 45.8125L37.2683 45.7891L39.5417 41.8516L41.8074 37.9219L42.4402 37.9531C42.8074 37.9766 43.1667 38.0391 43.3074 38.1172Z"
                    fill="white"
                    stroke="#AB9AFF"
                    stroke-width="0.4"
                    mask="url(#path-3-inside-1_98_45)"
                  />
                  <path
                    d="M31.7629 33.0683L31.7629 33.0683C31.5652 33.2368 31.3774 33.4978 31.239 33.7803C31.1003 34.0635 31.0168 34.3566 31.0168 34.586C31.0168 34.9258 31.0616 35.1654 31.2158 35.4392C31.3738 35.7197 31.6484 36.0394 32.1215 36.5321C32.365 36.7835 32.5911 37.0331 32.7605 37.2321C32.8452 37.3315 32.9163 37.419 32.9687 37.4883C32.9948 37.5228 33.017 37.5537 33.034 37.5798C33.0494 37.6034 33.0658 37.6308 33.0742 37.6559C33.1052 37.7492 33.1017 37.8556 33.0799 37.9585C33.058 38.0627 33.0158 38.171 32.9609 38.273C32.853 38.4734 32.6856 38.6675 32.4987 38.7544C32.0942 38.95 31.6218 38.9049 31.2357 38.7083C30.8493 38.5115 30.5356 38.1557 30.4589 37.7124L30.4589 37.7124L30.4588 37.7118C30.4203 37.481 30.3737 37.3245 30.3137 37.2166C30.2561 37.1128 30.1856 37.0528 30.0906 37.0147L30.0906 37.0148L30.0871 37.0133C29.8561 36.9106 29.5674 37.0129 29.4424 37.2426C29.3597 37.3989 29.3587 37.6771 29.4516 38.0134C29.5429 38.3438 29.7188 38.7071 29.957 39.0172L29.957 39.0172L29.9577 39.0181L30.1452 39.2681L30.1816 39.3166L30.1554 39.3713L29.9836 39.7307L29.9836 39.7307L29.9823 39.7332C29.908 39.8779 29.8742 39.9628 29.8642 40.0262C29.8556 40.0812 29.8642 40.1244 29.8969 40.1897L29.8969 40.1896L29.8984 40.193C30.0025 40.4219 30.1776 40.5335 30.3523 40.5437C30.5278 40.554 30.7248 40.4632 30.8726 40.2414L31.0601 39.9602L31.0894 39.9162L31.1423 39.9156L31.8687 39.9078C31.8687 39.9078 31.8687 39.9078 31.8687 39.9078C32.1815 39.9039 32.3687 39.8941 32.5193 39.8656C32.6663 39.8378 32.7818 39.7916 32.9493 39.7079C33.9935 39.159 34.4229 37.9204 33.9227 37.0009L33.9224 37.0004C33.8694 36.9015 33.7354 36.7233 33.5555 36.5121C33.3777 36.3034 33.1609 36.0692 32.9483 35.8604L32.9476 35.8598C32.7355 35.6477 32.537 35.4373 32.3872 35.2698C32.3123 35.1861 32.2491 35.1124 32.2022 35.0542C32.1788 35.0251 32.1588 34.9991 32.1433 34.9771C32.1294 34.9574 32.1139 34.9339 32.1052 34.9122L32.1048 34.9123L32.1022 34.9035C32.0027 34.5688 32.1566 34.1477 32.4601 33.8858C32.5758 33.7822 32.6714 33.7112 32.7885 33.6695C32.9043 33.6282 33.0323 33.6188 33.2058 33.6188C33.997 33.6188 34.6177 34.1466 34.7344 34.9306L34.7345 34.9309C34.7642 35.1353 34.8238 35.2756 34.9032 35.3637C34.9796 35.4485 35.0821 35.4938 35.2215 35.4938C35.4584 35.4938 35.5986 35.4216 35.6767 35.2966C35.76 35.1634 35.7894 34.9453 35.7398 34.6169C35.6725 34.1908 35.5243 33.8627 35.2133 33.4682L35.2126 33.4673L35.2101 33.464C35.1595 33.3985 35.1179 33.3446 35.0883 33.2992C35.0582 33.253 35.0332 33.2051 35.0257 33.1514C35.0179 33.0947 35.0312 33.0447 35.052 32.9978C35.071 32.9548 35.1002 32.9063 35.1328 32.8518L35.1357 32.847L35.1357 32.847L35.1364 32.8458C35.3236 32.5434 35.2945 32.2489 35.1222 32.0889L35.1218 32.0885C34.9051 31.885 34.5935 31.8969 34.3883 32.1152C34.3411 32.166 34.2913 32.2286 34.2507 32.2868C34.208 32.348 34.1824 32.3943 34.1757 32.4145C34.1626 32.4537 34.1415 32.4966 34.099 32.5307C34.058 32.5634 34.0077 32.5794 33.9529 32.5881C33.8472 32.6047 33.681 32.5996 33.4191 32.5842C32.6805 32.5462 32.2155 32.6825 31.7629 33.0683Z"
                    fill="#AB9AFF"
                    stroke="#AB9AFF"
                    stroke-width="0.2"
                  />
                  <path
                    d="M24.701 41.1696L24.7012 41.1698L24.6957 41.1748C24.6495 41.2178 24.6068 41.2738 24.5762 41.3283C24.5436 41.3863 24.5324 41.4285 24.5324 41.4453C24.5324 41.5369 24.5422 41.6007 24.5783 41.6666C24.6161 41.7356 24.6878 41.8159 24.8307 41.9269C25.1179 42.1502 25.6553 42.4704 26.6621 43.054C28.9631 44.3823 30.3003 45.1514 31.0827 45.5885C31.4742 45.8072 31.7251 45.9418 31.8878 46.0215C31.9692 46.0615 32.0265 46.0866 32.067 46.1016C32.0872 46.1091 32.1019 46.1136 32.1125 46.1161C32.1233 46.1187 32.1277 46.1187 32.1277 46.1187C32.1549 46.1187 32.2068 46.1071 32.2714 46.0798C32.3337 46.0534 32.3977 46.0168 32.448 45.9766L32.4483 45.9764C32.6637 45.8053 32.6817 45.4617 32.4715 45.2509C32.4593 45.2392 32.4219 45.211 32.3526 45.1645C32.2857 45.1196 32.1957 45.0621 32.0855 44.9935C31.8654 44.8564 31.5671 44.6768 31.2165 44.4695C30.5157 44.055 29.6077 43.5306 28.7023 43.0156C27.7968 42.5007 26.8943 41.9954 26.2042 41.6189C25.859 41.4306 25.5676 41.2749 25.3557 41.1664C25.2496 41.1121 25.1644 41.07 25.1028 41.0418C25.0718 41.0276 25.0481 41.0175 25.0313 41.0112C25.0255 41.009 25.0212 41.0075 25.0181 41.0065C24.9803 41.0084 24.9253 41.0234 24.8648 41.0528C24.8011 41.0838 24.7416 41.1258 24.701 41.1696Z"
                    fill="#AB9AFF"
                    stroke="#AB9AFF"
                    stroke-width="0.2"
                  />
                  <path
                    d="M11.3867 91.24C11.3867 91.9467 11.2201 92.6133 10.8867 93.24C10.5534 93.8667 10.0201 94.38 9.28675 94.78C8.55342 95.1667 7.61342 95.36 6.46675 95.36H3.94675V101H1.66675V87.1H6.46675C7.53342 87.1 8.43341 87.2867 9.16675 87.66C9.91342 88.02 10.4667 88.5133 10.8267 89.14C11.2001 89.7667 11.3867 90.4667 11.3867 91.24ZM6.46675 93.5C7.33342 93.5 7.98008 93.3067 8.40675 92.92C8.83342 92.52 9.04675 91.96 9.04675 91.24C9.04675 89.72 8.18675 88.96 6.46675 88.96H3.94675V93.5H6.46675ZM15.8413 91.58C16.1746 91.02 16.6146 90.5867 17.1613 90.28C17.7213 89.96 18.3813 89.8 19.1413 89.8V92.16H18.5613C17.6679 92.16 16.9879 92.3867 16.5213 92.84C16.0679 93.2933 15.8413 94.08 15.8413 95.2V101H13.5613V89.98H15.8413V91.58ZM22.3971 88.52C21.9837 88.52 21.6371 88.38 21.3571 88.1C21.0771 87.82 20.9371 87.4733 20.9371 87.06C20.9371 86.6467 21.0771 86.3 21.3571 86.02C21.6371 85.74 21.9837 85.6 22.3971 85.6C22.7971 85.6 23.1371 85.74 23.4171 86.02C23.6971 86.3 23.8371 86.6467 23.8371 87.06C23.8371 87.4733 23.6971 87.82 23.4171 88.1C23.1371 88.38 22.7971 88.52 22.3971 88.52ZM23.5171 89.98V101H21.2371V89.98H23.5171ZM25.7505 95.48C25.7505 94.3467 25.9772 93.3533 26.4305 92.5C26.8972 91.6333 27.5372 90.9667 28.3505 90.5C29.1638 90.0333 30.0972 89.8 31.1505 89.8C32.4838 89.8 33.5838 90.12 34.4505 90.76C35.3305 91.3867 35.9238 92.2867 36.2305 93.46H33.7705C33.5705 92.9133 33.2505 92.4867 32.8105 92.18C32.3705 91.8733 31.8172 91.72 31.1505 91.72C30.2172 91.72 29.4705 92.0533 28.9105 92.72C28.3638 93.3733 28.0905 94.2933 28.0905 95.48C28.0905 96.6667 28.3638 97.5933 28.9105 98.26C29.4705 98.9267 30.2172 99.26 31.1505 99.26C32.4705 99.26 33.3438 98.68 33.7705 97.52H36.2305C35.9105 98.64 35.3105 99.5333 34.4305 100.2C33.5505 100.853 32.4572 101.18 31.1505 101.18C30.0972 101.18 29.1638 100.947 28.3505 100.48C27.5372 100 26.8972 99.3333 26.4305 98.48C25.9772 97.6133 25.7505 96.6133 25.7505 95.48ZM48.6027 95.22C48.6027 95.6333 48.576 96.0067 48.5227 96.34H40.1027C40.1694 97.22 40.496 97.9267 41.0827 98.46C41.6694 98.9933 42.3894 99.26 43.2427 99.26C44.4694 99.26 45.336 98.7467 45.8427 97.72H48.3027C47.9694 98.7333 47.3627 99.5667 46.4827 100.22C45.616 100.86 44.536 101.18 43.2427 101.18C42.1894 101.18 41.2427 100.947 40.4027 100.48C39.576 100 38.9227 99.3333 38.4427 98.48C37.976 97.6133 37.7427 96.6133 37.7427 95.48C37.7427 94.3467 37.9694 93.3533 38.4227 92.5C38.8894 91.6333 39.536 90.9667 40.3627 90.5C41.2027 90.0333 42.1627 89.8 43.2427 89.8C44.2827 89.8 45.2094 90.0267 46.0227 90.48C46.836 90.9333 47.4694 91.5733 47.9227 92.4C48.376 93.2133 48.6027 94.1533 48.6027 95.22ZM46.2227 94.5C46.2094 93.66 45.9094 92.9867 45.3227 92.48C44.736 91.9733 44.0094 91.72 43.1427 91.72C42.356 91.72 41.6827 91.9733 41.1227 92.48C40.5627 92.9733 40.2294 93.6467 40.1227 94.5H46.2227ZM70.6817 87.1V101H68.4017V91.48L64.1617 101H62.5817L58.3217 91.48V101H56.0417V87.1H58.5017L63.3817 98L68.2417 87.1H70.6817ZM72.9185 95.44C72.9185 94.3333 73.1451 93.3533 73.5985 92.5C74.0651 91.6467 74.6918 90.9867 75.4785 90.52C76.2785 90.04 77.1585 89.8 78.1185 89.8C78.9851 89.8 79.7385 89.9733 80.3785 90.32C81.0318 90.6533 81.5518 91.0733 81.9385 91.58V89.98H84.2385V101H81.9385V99.36C81.5518 99.88 81.0251 100.313 80.3585 100.66C79.6918 101.007 78.9318 101.18 78.0785 101.18C77.1318 101.18 76.2651 100.94 75.4785 100.46C74.6918 99.9667 74.0651 99.2867 73.5985 98.42C73.1451 97.54 72.9185 96.5467 72.9185 95.44ZM81.9385 95.48C81.9385 94.72 81.7785 94.06 81.4585 93.5C81.1518 92.94 80.7451 92.5133 80.2385 92.22C79.7318 91.9267 79.1851 91.78 78.5985 91.78C78.0118 91.78 77.4651 91.9267 76.9585 92.22C76.4518 92.5 76.0385 92.92 75.7185 93.48C75.4118 94.0267 75.2585 94.68 75.2585 95.44C75.2585 96.2 75.4118 96.8667 75.7185 97.44C76.0385 98.0133 76.4518 98.4533 76.9585 98.76C77.4785 99.0533 78.0251 99.2 78.5985 99.2C79.1851 99.2 79.7318 99.0533 80.2385 98.76C80.7451 98.4667 81.1518 98.04 81.4585 97.48C81.7785 96.9067 81.9385 96.24 81.9385 95.48ZM89.8932 91.84V97.94C89.8932 98.3533 89.9865 98.6533 90.1732 98.84C90.3732 99.0133 90.7065 99.1 91.1732 99.1H92.5732V101H90.7732C89.7465 101 88.9598 100.76 88.4132 100.28C87.8665 99.8 87.5932 99.02 87.5932 97.94V91.84H86.2932V89.98H87.5932V87.24H89.8932V89.98H92.5732V91.84H89.8932ZM93.9146 95.48C93.9146 94.3467 94.1412 93.3533 94.5946 92.5C95.0612 91.6333 95.7012 90.9667 96.5146 90.5C97.3279 90.0333 98.2612 89.8 99.3146 89.8C100.648 89.8 101.748 90.12 102.615 90.76C103.495 91.3867 104.088 92.2867 104.395 93.46H101.935C101.735 92.9133 101.415 92.4867 100.975 92.18C100.535 91.8733 99.9812 91.72 99.3146 91.72C98.3812 91.72 97.6346 92.0533 97.0746 92.72C96.5279 93.3733 96.2546 94.2933 96.2546 95.48C96.2546 96.6667 96.5279 97.5933 97.0746 98.26C97.6346 98.9267 98.3812 99.26 99.3146 99.26C100.635 99.26 101.508 98.68 101.935 97.52H104.395C104.075 98.64 103.475 99.5333 102.595 100.2C101.715 100.853 100.621 101.18 99.3146 101.18C98.2612 101.18 97.3279 100.947 96.5146 100.48C95.7012 100 95.0612 99.3333 94.5946 98.48C94.1412 97.6133 93.9146 96.6133 93.9146 95.48ZM112.367 89.8C113.207 89.8 113.953 89.98 114.607 90.34C115.273 90.7 115.793 91.2333 116.167 91.94C116.553 92.6467 116.747 93.5 116.747 94.5V101H114.487V94.84C114.487 93.8533 114.24 93.1 113.747 92.58C113.253 92.0467 112.58 91.78 111.727 91.78C110.873 91.78 110.193 92.0467 109.687 92.58C109.193 93.1 108.947 93.8533 108.947 94.84V101H106.667V86.2H108.947V91.26C109.333 90.7933 109.82 90.4333 110.407 90.18C111.007 89.9267 111.66 89.8 112.367 89.8ZM134.91 91.1C134.55 90.4067 134.05 89.8867 133.41 89.54C132.77 89.18 132.03 89 131.19 89C130.27 89 129.45 89.2067 128.73 89.62C128.01 90.0333 127.444 90.62 127.03 91.38C126.63 92.14 126.43 93.02 126.43 94.02C126.43 95.02 126.63 95.9067 127.03 96.68C127.444 97.44 128.01 98.0267 128.73 98.44C129.45 98.8533 130.27 99.06 131.19 99.06C132.43 99.06 133.437 98.7133 134.21 98.02C134.984 97.3267 135.457 96.3867 135.63 95.2H130.41V93.38H138.07V95.16C137.924 96.24 137.537 97.2333 136.91 98.14C136.297 99.0467 135.49 99.7733 134.49 100.32C133.504 100.853 132.404 101.12 131.19 101.12C129.884 101.12 128.69 100.82 127.61 100.22C126.53 99.6067 125.67 98.76 125.03 97.68C124.404 96.6 124.09 95.38 124.09 94.02C124.09 92.66 124.404 91.44 125.03 90.36C125.67 89.28 126.53 88.44 127.61 87.84C128.704 87.2267 129.897 86.92 131.19 86.92C132.67 86.92 133.984 87.2867 135.13 88.02C136.29 88.74 137.13 89.7667 137.65 91.1H134.91ZM150.299 89.98V101H148.019V99.7C147.659 100.153 147.186 100.513 146.599 100.78C146.026 101.033 145.412 101.16 144.759 101.16C143.892 101.16 143.112 100.98 142.419 100.62C141.739 100.26 141.199 99.7267 140.799 99.02C140.412 98.3133 140.219 97.46 140.219 96.46V89.98H142.479V96.12C142.479 97.1067 142.726 97.8667 143.219 98.4C143.712 98.92 144.386 99.18 145.239 99.18C146.092 99.18 146.766 98.92 147.259 98.4C147.766 97.8667 148.019 97.1067 148.019 96.12V89.98H150.299ZM152.547 95.44C152.547 94.3333 152.774 93.3533 153.227 92.5C153.694 91.6467 154.321 90.9867 155.107 90.52C155.907 90.04 156.787 89.8 157.747 89.8C158.614 89.8 159.367 89.9733 160.007 90.32C160.661 90.6533 161.181 91.0733 161.567 91.58V89.98H163.867V101H161.567V99.36C161.181 99.88 160.654 100.313 159.987 100.66C159.321 101.007 158.561 101.18 157.707 101.18C156.761 101.18 155.894 100.94 155.107 100.46C154.321 99.9667 153.694 99.2867 153.227 98.42C152.774 97.54 152.547 96.5467 152.547 95.44ZM161.567 95.48C161.567 94.72 161.407 94.06 161.087 93.5C160.781 92.94 160.374 92.5133 159.867 92.22C159.361 91.9267 158.814 91.78 158.227 91.78C157.641 91.78 157.094 91.9267 156.587 92.22C156.081 92.5 155.667 92.92 155.347 93.48C155.041 94.0267 154.887 94.68 154.887 95.44C154.887 96.2 155.041 96.8667 155.347 97.44C155.667 98.0133 156.081 98.4533 156.587 98.76C157.107 99.0533 157.654 99.2 158.227 99.2C158.814 99.2 159.361 99.0533 159.867 98.76C160.374 98.4667 160.781 98.04 161.087 97.48C161.407 96.9067 161.567 96.24 161.567 95.48ZM169.142 91.58C169.475 91.02 169.915 90.5867 170.462 90.28C171.022 89.96 171.682 89.8 172.442 89.8V92.16H171.862C170.969 92.16 170.289 92.3867 169.822 92.84C169.369 93.2933 169.142 94.08 169.142 95.2V101H166.862V89.98H169.142V91.58ZM173.778 95.44C173.778 94.3333 174.005 93.3533 174.458 92.5C174.925 91.6467 175.551 90.9867 176.338 90.52C177.138 90.04 178.018 89.8 178.978 89.8C179.845 89.8 180.598 89.9733 181.238 90.32C181.891 90.6533 182.411 91.0733 182.798 91.58V89.98H185.098V101H182.798V99.36C182.411 99.88 181.885 100.313 181.218 100.66C180.551 101.007 179.791 101.18 178.938 101.18C177.991 101.18 177.125 100.94 176.338 100.46C175.551 99.9667 174.925 99.2867 174.458 98.42C174.005 97.54 173.778 96.5467 173.778 95.44ZM182.798 95.48C182.798 94.72 182.638 94.06 182.318 93.5C182.011 92.94 181.605 92.5133 181.098 92.22C180.591 91.9267 180.045 91.78 179.458 91.78C178.871 91.78 178.325 91.9267 177.818 92.22C177.311 92.5 176.898 92.92 176.578 93.48C176.271 94.0267 176.118 94.68 176.118 95.44C176.118 96.2 176.271 96.8667 176.578 97.44C176.898 98.0133 177.311 98.4533 177.818 98.76C178.338 99.0533 178.885 99.2 179.458 99.2C180.045 99.2 180.591 99.0533 181.098 98.76C181.605 98.4667 182.011 98.04 182.318 97.48C182.638 96.9067 182.798 96.24 182.798 95.48ZM193.653 89.8C194.519 89.8 195.293 89.98 195.973 90.34C196.666 90.7 197.206 91.2333 197.593 91.94C197.979 92.6467 198.173 93.5 198.173 94.5V101H195.913V94.84C195.913 93.8533 195.666 93.1 195.173 92.58C194.679 92.0467 194.006 91.78 193.153 91.78C192.299 91.78 191.619 92.0467 191.113 92.58C190.619 93.1 190.373 93.8533 190.373 94.84V101H188.093V89.98H190.373V91.24C190.746 90.7867 191.219 90.4333 191.793 90.18C192.379 89.9267 192.999 89.8 193.653 89.8ZM203.741 91.84V97.94C203.741 98.3533 203.834 98.6533 204.021 98.84C204.221 99.0133 204.554 99.1 205.021 99.1H206.421V101H204.621C203.594 101 202.807 100.76 202.261 100.28C201.714 99.8 201.441 99.02 201.441 97.94V91.84H200.141V89.98H201.441V87.24H203.741V89.98H206.421V91.84H203.741ZM218.622 95.22C218.622 95.6333 218.596 96.0067 218.542 96.34H210.122C210.189 97.22 210.516 97.9267 211.102 98.46C211.689 98.9933 212.409 99.26 213.262 99.26C214.489 99.26 215.356 98.7467 215.862 97.72H218.322C217.989 98.7333 217.382 99.5667 216.502 100.22C215.636 100.86 214.556 101.18 213.262 101.18C212.209 101.18 211.262 100.947 210.422 100.48C209.596 100 208.942 99.3333 208.462 98.48C207.996 97.6133 207.762 96.6133 207.762 95.48C207.762 94.3467 207.989 93.3533 208.442 92.5C208.909 91.6333 209.556 90.9667 210.382 90.5C211.222 90.0333 212.182 89.8 213.262 89.8C214.302 89.8 215.229 90.0267 216.042 90.48C216.856 90.9333 217.489 91.5733 217.942 92.4C218.396 93.2133 218.622 94.1533 218.622 95.22ZM216.242 94.5C216.229 93.66 215.929 92.9867 215.342 92.48C214.756 91.9733 214.029 91.72 213.162 91.72C212.376 91.72 211.702 91.9733 211.142 92.48C210.582 92.9733 210.249 93.6467 210.142 94.5H216.242ZM230.966 95.22C230.966 95.6333 230.939 96.0067 230.886 96.34H222.466C222.533 97.22 222.859 97.9267 223.446 98.46C224.033 98.9933 224.753 99.26 225.606 99.26C226.833 99.26 227.699 98.7467 228.206 97.72H230.666C230.333 98.7333 229.726 99.5667 228.846 100.22C227.979 100.86 226.899 101.18 225.606 101.18C224.553 101.18 223.606 100.947 222.766 100.48C221.939 100 221.286 99.3333 220.806 98.48C220.339 97.6133 220.106 96.6133 220.106 95.48C220.106 94.3467 220.333 93.3533 220.786 92.5C221.253 91.6333 221.899 90.9667 222.726 90.5C223.566 90.0333 224.526 89.8 225.606 89.8C226.646 89.8 227.573 90.0267 228.386 90.48C229.199 90.9333 229.833 91.5733 230.286 92.4C230.739 93.2133 230.966 94.1533 230.966 95.22ZM228.586 94.5C228.573 93.66 228.273 92.9867 227.686 92.48C227.099 91.9733 226.373 91.72 225.506 91.72C224.719 91.72 224.046 91.9733 223.486 92.48C222.926 92.9733 222.593 93.6467 222.486 94.5H228.586Z"
                    fill="black"
                  />
                </svg>