<svg width="133" height="109" viewBox="0 0 133 109" fill="none" xmlns="http://www.w3.org/2000/svg">
<path d="M0.5 20C0.5 8.95431 9.45431 0 20.5 0H64.5V44C64.5 55.0457 55.5457 64 44.5 64H0.5V20Z" fill="#FED807"/>
<g clip-path="url(#clip0_102_11)">
<path d="M34.2608 12.4725L34.261 12.4724C38.3423 11.9757 42.417 13.0679 45.7685 15.5392C46.6471 16.1908 48.3098 17.8534 48.961 18.7319C52.3187 23.2753 53.0669 29.0841 50.9726 34.2746C50.2618 36.0171 49.1521 37.7614 47.8856 39.1118C47.5635 39.4536 47.3799 39.6143 47.2303 39.6944C47.1065 39.7607 46.9895 39.7808 46.7578 39.7608C46.4965 39.7366 46.3081 39.6351 46.1839 39.4936C46.0583 39.3507 45.975 39.1403 45.975 38.8594C45.975 38.7672 45.9798 38.7163 45.9903 38.6736C46.0001 38.6338 46.0188 38.5848 46.0664 38.5086C46.1719 38.3396 46.3783 38.0973 46.808 37.6159L46.8088 37.615C48.6202 35.5711 49.7494 33.1421 50.1971 30.3762C50.2685 29.9421 50.3012 29.104 50.3021 28.2924C50.3031 27.4792 50.2723 26.6404 50.2053 26.2046L50.205 26.2024C49.2123 20.0141 44.4859 15.2877 38.2976 14.295L38.2959 14.2948C37.8638 14.2276 37.0245 14.1969 36.2109 14.1969C35.3973 14.1969 34.5581 14.2276 34.126 14.2948L34.1236 14.2951C31.2662 14.7594 28.7435 15.9855 26.5462 17.9828M34.2608 12.4725L26.7812 18.2422M34.2608 12.4725C30.9142 12.8774 27.6875 14.4066 25.2579 16.737L25.2572 16.7376C25.0067 16.9766 24.8794 17.1262 24.8099 17.2497C24.7496 17.3571 24.725 17.4585 24.725 17.625C24.725 18.1077 25.0195 18.4435 25.4005 18.5062M34.2608 12.4725L25.3438 18.8516M26.5462 17.9828C26.5461 17.9829 26.546 17.9831 26.5458 17.9832L26.7812 18.2422M26.5462 17.9828C26.5464 17.9827 26.5466 17.9825 26.5468 17.9823L26.7812 18.2422M26.5462 17.9828C26.2277 18.2702 26.0368 18.4079 25.8817 18.4737C25.7482 18.5305 25.6211 18.5424 25.4005 18.5062M26.7812 18.2422C26.1406 18.8203 25.8672 18.9375 25.3438 18.8516M25.4005 18.5062C25.4005 18.5062 25.4005 18.5062 25.4005 18.5062L25.3438 18.8516M25.4005 18.5062L25.3438 18.8516" fill="white" stroke="#FED807" stroke-width="0.7"/>
<path d="M13.2188 30.4375C15.8906 38.6797 25.4531 48.3359 33.75 51.1718M13.2188 30.4375C12.6875 28.789 12.5547 28.0078 12.5469 26.5312M13.2188 30.4375L13.5517 30.3295C13.5517 30.3296 13.5517 30.3297 13.5518 30.3297M13.2188 30.4375L13.5519 30.3301C13.5518 30.33 13.5518 30.3299 13.5518 30.3297M33.75 51.1718L15.5859 21.164C14.2812 21.8125 13.625 22.4375 13.1172 23.5234C12.6719 24.4609 12.5469 25.1093 12.5469 26.5312M33.75 51.1718C37.2578 52.375 40.0078 52.25 41.9219 50.8047C42.7422 50.1875 43.3125 49.1718 44.375 46.4922M33.75 51.1718L44.375 46.4922M12.5469 26.5312L12.8969 26.5294C12.8969 26.5297 12.8969 26.53 12.8969 26.5303M12.5469 26.5312H12.8969C12.8969 26.5309 12.8969 26.5306 12.8969 26.5303M12.8969 26.5303C12.8969 25.1437 13.0168 24.5505 13.4333 23.6736L13.4342 23.6717C13.6734 23.1602 13.9409 22.7704 14.2945 22.4328C14.6507 22.0926 15.1075 21.7927 15.7417 21.4775L15.7448 21.4759C16.1433 21.2729 16.964 20.9226 17.7456 20.609C18.1341 20.4531 18.5083 20.3081 18.8095 20.1972C19.1172 20.0838 19.3225 20.0159 19.3971 19.9994C19.6162 19.9587 19.7589 19.9418 19.8965 19.9418C20.0355 19.9418 20.1834 19.959 20.4136 20.0005M12.8969 26.5303C12.9045 27.9651 13.03 28.7107 13.5518 30.3297M13.5518 30.3297C14.8655 34.3821 17.886 38.8112 21.6237 42.5857C25.3612 46.3601 29.7816 49.4456 33.8632 50.8407L33.8636 50.8408C37.3238 52.0276 39.9323 51.8684 41.711 50.5253L41.7114 50.525C42.4406 49.9764 42.9809 49.0586 44.0496 46.3632L44.0499 46.3625C44.2917 45.756 44.4063 45.4601 44.4638 45.2368C44.5161 45.0342 44.5211 44.8935 44.5172 44.5824L44.5172 44.5824V44.5781C44.5172 43.6136 44.0977 42.7966 43.3809 42.3047M43.3809 42.3047C43.0425 42.0756 41.76 41.3287 40.4973 40.6131C39.8694 40.2572 39.2524 39.9124 38.7697 39.6487C38.5282 39.5167 38.3215 39.4058 38.1645 39.3241C38.0858 39.2831 38.0211 39.2504 37.9715 39.2263C37.9467 39.2142 37.927 39.205 37.9119 39.1982C37.8979 39.192 37.8916 39.1895 37.8909 39.1892M43.3809 42.3047C43.3812 42.3049 43.3815 42.3051 43.3818 42.3053L43.5781 42.0156M43.3809 42.3047C43.3807 42.3046 43.3804 42.3044 43.3802 42.3043L43.5781 42.0156M37.8909 39.1892C37.1481 38.9311 36.0778 39.0841 35.417 39.5384L35.4164 39.5388C35.2091 39.6807 35.081 39.7873 34.9476 39.938C34.8073 40.0966 34.6554 40.31 34.4088 40.6779M37.8909 39.1892C37.8914 39.1894 37.892 39.1896 37.8926 39.1898L38.0078 38.8593M37.8909 39.1892C37.8907 39.1892 37.8908 39.1892 37.891 39.1893L38.0078 38.8593M34.4088 40.6779C34.1415 41.0848 33.8671 41.3942 33.5319 41.5972C33.1901 41.8043 32.8177 41.8812 32.3906 41.8812L32.3864 41.8812C32.03 41.8768 31.7444 41.8334 31.3976 41.6565C31.0754 41.4921 30.7064 41.2149 30.1642 40.7811L30.1634 40.7805C27.6668 38.7721 25.3428 36.4249 23.4505 33.9963L23.4504 33.9963C23.1348 33.591 22.9206 33.2896 22.791 33.0006C22.6536 32.6943 22.6187 32.4201 22.6187 32.0859C22.6187 31.6873 22.7023 31.3245 22.8907 30.9959C23.0776 30.6696 23.3556 30.3982 23.7122 30.1618M34.4088 40.6779C34.4091 40.6774 34.4094 40.6769 34.4098 40.6764L34.1172 40.4843M34.4088 40.6779C34.4085 40.6784 34.4082 40.6788 34.4079 40.6792L34.1172 40.4843M23.7122 30.1618C24.2497 29.8022 24.58 29.5411 24.8098 29.2829C25.0317 29.0336 25.1715 28.7736 25.3013 28.3957M23.7122 30.1618C23.712 30.1619 23.7118 30.1621 23.7116 30.1622L23.9062 30.4531L23.7129 30.1613C23.7127 30.1615 23.7124 30.1616 23.7122 30.1618ZM25.3013 28.3957C25.3796 28.1599 25.4255 27.8305 25.4273 27.4893C25.4292 27.1465 25.3863 26.8266 25.3102 26.6076M25.3013 28.3957C25.3011 28.3961 25.3009 28.3966 25.3008 28.3971L25.6328 28.5078L25.3017 28.3943C25.3016 28.3947 25.3014 28.3952 25.3013 28.3957ZM25.3102 26.6076C25.294 26.5619 25.2393 26.4442 25.1396 26.2508C25.0437 26.0649 24.9161 25.8278 24.7662 25.5559C24.4666 25.0123 24.0813 24.3356 23.6897 23.6623C23.298 22.989 22.901 22.3211 22.5782 21.7951C22.4166 21.5319 22.2747 21.3059 22.1617 21.1331C22.0442 20.9534 21.9717 20.8526 21.9429 20.82M25.3102 26.6076C25.3103 26.6078 25.3104 26.608 25.3104 26.6082L25.6406 26.4922L25.3101 26.6071C25.3101 26.6073 25.3102 26.6075 25.3102 26.6076ZM21.9429 20.82C21.6077 20.4521 20.9766 20.105 20.4136 20.0005M21.9429 20.82C21.9433 20.8204 21.9437 20.8209 21.9441 20.8213L22.2031 20.5859L21.942 20.819C21.9423 20.8193 21.9426 20.8197 21.9429 20.82ZM20.4136 20.0005C20.4139 20.0006 20.4142 20.0006 20.4144 20.0007L20.4766 19.6562L20.4128 20.0004C20.4131 20.0004 20.4133 20.0005 20.4136 20.0005ZM34.1172 40.4843C34.6094 39.75 34.7734 39.5547 35.2188 39.25M34.1172 40.4843C33.6094 41.2578 33.1562 41.5312 32.3906 41.5312C31.75 41.5234 31.4766 41.3828 30.3828 40.5078C27.9062 38.5156 25.6016 36.1875 23.7266 33.7812L35.2188 39.25M35.2188 39.25C35.9688 38.7343 37.1562 38.5625 38.0078 38.8593M35.2188 39.25L43.5781 42.0156M44.375 46.4922C44.8516 45.2968 44.875 45.2109 44.8672 44.5781M44.375 46.4922L44.8672 44.5781M38.0078 38.8593C38.3828 38.9922 42.875 41.539 43.5781 42.0156M43.5781 42.0156C44.3984 42.5781 44.8672 43.5078 44.8672 44.5781M43.5781 42.0156L44.8672 44.5781" fill="white" stroke="#FED807" stroke-width="0.7"/>
<path d="M30.9313 22.1514L30.9313 22.1515L30.9228 22.1535C30.3426 22.2879 29.6877 22.6408 29.2645 23.0428L29.2636 23.0437C28.7165 23.5595 28.3649 24.328 28.2657 25.0496C28.1636 25.7933 28.3402 26.3547 28.6664 26.5916C28.7359 26.642 28.9102 26.6949 29.1407 26.6949C29.3702 26.6949 29.5442 26.6424 29.6141 26.5922C29.788 26.4641 29.886 26.3474 29.9455 26.224C30.0061 26.0983 30.0407 25.9363 30.0407 25.6953C30.0407 25.351 30.077 25.0505 30.1925 24.7886C30.3124 24.5164 30.5029 24.318 30.7525 24.1532L30.753 24.1529C30.9109 24.049 31.053 23.966 31.2484 23.9214C31.426 23.881 31.6316 23.8766 31.9063 23.8766C32.5373 23.8766 33.0738 24.0091 33.4563 24.3367C33.8488 24.673 34.0175 25.1607 34.0219 25.7317H34.0219V25.7344C34.0219 25.9623 34.0144 26.1807 33.9574 26.396C33.898 26.6199 33.7911 26.8201 33.6213 27.031C33.3012 27.4287 32.7165 27.9094 31.7031 28.7186C29.8583 30.1976 28.798 31.3731 28.3655 32.3245L28.3656 32.3245L28.365 32.3256C28.2405 32.5971 28.2248 32.83 28.2785 33.0219C28.3322 33.2138 28.4661 33.4036 28.7116 33.5693L28.7118 33.5695L28.8875 33.6883L32.2711 33.6656C32.2711 33.6656 32.2711 33.6656 32.2711 33.6656C33.9713 33.6539 34.8358 33.646 35.3035 33.6221C35.54 33.61 35.6504 33.5947 35.708 33.5804C35.7424 33.5718 35.7473 33.5682 35.7752 33.5475L35.7761 33.5469L35.7769 33.5463C36.0063 33.3774 36.1279 33.1917 36.1736 33.0123C36.2188 32.8347 36.1987 32.6272 36.0795 32.3947C35.9961 32.2339 35.9499 32.1599 35.9012 32.111C35.8642 32.0737 35.8101 32.0357 35.6793 32.002C35.5383 31.9657 35.3296 31.9398 34.9969 31.9214C34.6676 31.9031 34.2385 31.8929 33.6648 31.8812L31.6729 31.8421L30.7004 31.8231L31.462 31.2181L32.8286 30.1327C32.8287 30.1326 32.8289 30.1325 32.829 30.1324C33.5988 29.5181 34.1805 29.0203 34.6052 28.609C35.0338 28.1938 35.2837 27.8842 35.4101 27.6476L35.4102 27.6474C35.6209 27.2536 35.764 26.7217 35.8156 26.1613C35.8671 25.6018 35.8249 25.0421 35.689 24.5953C35.2088 23.0575 33.7345 22.0308 31.9169 22.0453V22.0453H31.9141C31.5918 22.0453 31.138 22.098 30.9313 22.1514Z" fill="white" stroke="#FED807" stroke-width="0.7"/>
<path d="M36.5837 29.7795C36.5838 29.7796 36.5885 29.7714 36.6019 29.7515C36.6167 29.7296 36.6373 29.7005 36.6641 29.6638C36.7176 29.5906 36.791 29.4937 36.8826 29.3756C37.0655 29.1397 37.3155 28.8255 37.6113 28.4589C38.2026 27.7262 38.9727 26.7888 39.745 25.8594C40.5173 24.93 41.2908 24.0098 41.8888 23.3112C42.1879 22.9617 42.4421 22.669 42.6297 22.4588C42.7238 22.3534 42.7994 22.2708 42.8547 22.2127C42.8826 22.1835 42.9032 22.1629 42.9171 22.1495C42.9185 22.1483 42.9197 22.1471 42.9208 22.1461C42.9369 22.131 42.9284 22.1409 42.9063 22.155M36.5837 29.7795L42.9063 22.155M36.5837 29.7795L36.5827 29.7814C36.4048 30.1162 36.516 30.6261 36.8728 30.8908L36.6643 31.1719M36.5837 29.7795L44.2442 32.2375C44.2326 32.5495 44.2156 32.773 44.1919 32.9361C44.1681 33.1002 44.1404 33.1803 44.1202 33.2197C43.8993 33.6316 43.3292 33.8002 42.9165 33.5636L42.9116 33.5608L42.9116 33.5608C42.6669 33.4257 42.6103 33.3613 42.5706 33.2656C42.512 33.124 42.4835 32.8853 42.4592 32.3366C42.4592 32.3364 42.4592 32.3363 42.4592 32.3361L42.4202 31.3995L42.4064 31.0691L42.0758 31.0641L39.4823 31.025C39.4822 31.025 39.4822 31.025 39.4822 31.025C38.2379 31.0054 37.6007 30.9938 37.246 30.9683C37.0679 30.9555 36.9854 30.9406 36.9423 30.928C36.9151 30.9201 36.9051 30.9147 36.8726 30.8906L36.6643 31.1719M42.9063 22.155L42.9037 22.1566C42.9046 22.1561 42.9055 22.1555 42.9063 22.155ZM36.6643 31.1719C36.8752 31.3281 37.0002 31.3359 39.4768 31.375L36.2736 29.6172C36.008 30.1172 36.1799 30.8125 36.6643 31.1719ZM42.3336 29.0991L42.3091 29.1236L42.2803 29.1428C42.2348 29.1731 42.1927 29.1855 42.1813 29.1888L42.1812 29.1888C42.1634 29.1941 42.1483 29.1971 42.139 29.1987C42.1203 29.2021 42.1028 29.204 42.0907 29.2052C42.0654 29.2076 42.0361 29.2091 42.0067 29.2102C41.9467 29.2125 41.8665 29.2138 41.7735 29.2143C41.5866 29.2153 41.3359 29.2133 41.0654 29.2094L41.0622 29.2093L40.0778 29.1858L39.3609 29.1688L39.8154 28.6141L40.8076 27.4032L40.8083 27.4023L41.8005 26.1992L42.4019 25.4699L42.4204 26.415L42.4439 27.6103L42.4439 27.6103L42.4439 27.6131C42.4478 27.9458 42.4498 28.2527 42.4488 28.4791C42.4483 28.5918 42.4471 28.6872 42.4449 28.7567C42.4438 28.7907 42.4423 28.8232 42.4401 28.85C42.4391 28.8625 42.4373 28.881 42.434 28.9006C42.4325 28.9097 42.4292 28.9277 42.4228 28.949C42.4196 28.9597 42.4137 28.9777 42.4039 28.9987C42.3958 29.016 42.375 29.0577 42.3336 29.0991Z" fill="white" stroke="#FED807" stroke-width="0.7"/>
</g>
<path d="M2.96 97.9C4.24 96.7933 5.24667 95.8867 5.98 95.18C6.72667 94.46 7.34667 93.7133 7.84 92.94C8.33333 92.1667 8.58 91.3933 8.58 90.62C8.58 89.82 8.38667 89.1933 8 88.74C7.62667 88.2867 7.03333 88.06 6.22 88.06C5.43333 88.06 4.82 88.3133 4.38 88.82C3.95333 89.3133 3.72667 89.98 3.7 90.82H1.5C1.54 89.3 1.99333 88.14 2.86 87.34C3.74 86.5267 4.85333 86.12 6.2 86.12C7.65333 86.12 8.78667 86.52 9.6 87.32C10.4267 88.12 10.84 89.1867 10.84 90.52C10.84 91.48 10.5933 92.4067 10.1 93.3C9.62 94.18 9.04 94.9733 8.36 95.68C7.69333 96.3733 6.84 97.18 5.8 98.1L4.9 98.9H11.24V100.8H1.52V99.14L2.96 97.9ZM12.963 97.96V96.24L19.683 86.6H22.443V95.98H24.303V97.96H22.443V101H20.203V97.96H12.963ZM20.303 88.92L15.583 95.98H20.303V88.92ZM33.8922 82.12L28.4522 104.5H26.2122L31.6322 82.12H33.8922ZM45.7056 88.18L40.1456 101H37.8456L43.4656 88.42H36.0656V86.48H45.7056V88.18ZM57.7323 101.14C56.799 101.14 55.959 100.98 55.2123 100.66C54.4657 100.327 53.879 99.86 53.4523 99.26C53.0257 98.66 52.8123 97.96 52.8123 97.16H55.2523C55.3057 97.76 55.539 98.2533 55.9523 98.64C56.379 99.0267 56.9723 99.22 57.7323 99.22C58.519 99.22 59.1323 99.0333 59.5723 98.66C60.0123 98.2733 60.2323 97.78 60.2323 97.18C60.2323 96.7133 60.0923 96.3333 59.8123 96.04C59.5457 95.7467 59.2057 95.52 58.7923 95.36C58.3923 95.2 57.8323 95.0267 57.1123 94.84C56.2057 94.6 55.4657 94.36 54.8923 94.12C54.3323 93.8667 53.8523 93.48 53.4523 92.96C53.0523 92.44 52.8523 91.7467 52.8523 90.88C52.8523 90.08 53.0523 89.38 53.4523 88.78C53.8523 88.18 54.4123 87.72 55.1323 87.4C55.8523 87.08 56.6857 86.92 57.6323 86.92C58.979 86.92 60.079 87.26 60.9323 87.94C61.799 88.6067 62.279 89.5267 62.3723 90.7H59.8523C59.8123 90.1933 59.5723 89.76 59.1323 89.4C58.6923 89.04 58.1123 88.86 57.3923 88.86C56.739 88.86 56.2057 89.0267 55.7923 89.36C55.379 89.6933 55.1723 90.1733 55.1723 90.8C55.1723 91.2267 55.299 91.58 55.5523 91.86C55.819 92.1267 56.1523 92.34 56.5523 92.5C56.9523 92.66 57.499 92.8333 58.1923 93.02C59.1123 93.2733 59.859 93.5267 60.4323 93.78C61.019 94.0333 61.5123 94.4267 61.9123 94.96C62.3257 95.48 62.5323 96.18 62.5323 97.06C62.5323 97.7667 62.339 98.4333 61.9523 99.06C61.579 99.6867 61.0257 100.193 60.2923 100.58C59.5723 100.953 58.719 101.14 57.7323 101.14ZM75.2027 89.98V101H72.9227V99.7C72.5627 100.153 72.0893 100.513 71.5027 100.78C70.9293 101.033 70.316 101.16 69.6627 101.16C68.796 101.16 68.016 100.98 67.3227 100.62C66.6427 100.26 66.1027 99.7267 65.7027 99.02C65.316 98.3133 65.1227 97.46 65.1227 96.46V89.98H67.3827V96.12C67.3827 97.1067 67.6293 97.8667 68.1227 98.4C68.616 98.92 69.2893 99.18 70.1427 99.18C70.996 99.18 71.6693 98.92 72.1627 98.4C72.6693 97.8667 72.9227 97.1067 72.9227 96.12V89.98H75.2027ZM80.4909 91.6C80.8776 91.0933 81.4043 90.6667 82.0709 90.32C82.7376 89.9733 83.4909 89.8 84.3309 89.8C85.2909 89.8 86.1643 90.04 86.9509 90.52C87.7509 90.9867 88.3776 91.6467 88.8309 92.5C89.2843 93.3533 89.5109 94.3333 89.5109 95.44C89.5109 96.5467 89.2843 97.54 88.8309 98.42C88.3776 99.2867 87.7509 99.9667 86.9509 100.46C86.1643 100.94 85.2909 101.18 84.3309 101.18C83.4909 101.18 82.7443 101.013 82.0909 100.68C81.4376 100.333 80.9043 99.9067 80.4909 99.4V106.24H78.2109V89.98H80.4909V91.6ZM87.1909 95.44C87.1909 94.68 87.0309 94.0267 86.7109 93.48C86.4043 92.92 85.9909 92.5 85.4709 92.22C84.9643 91.9267 84.4176 91.78 83.8309 91.78C83.2576 91.78 82.7109 91.9267 82.1909 92.22C81.6843 92.5133 81.2709 92.94 80.9509 93.5C80.6443 94.06 80.4909 94.72 80.4909 95.48C80.4909 96.24 80.6443 96.9067 80.9509 97.48C81.2709 98.04 81.6843 98.4667 82.1909 98.76C82.7109 99.0533 83.2576 99.2 83.8309 99.2C84.4176 99.2 84.9643 99.0533 85.4709 98.76C85.9909 98.4533 86.4043 98.0133 86.7109 97.44C87.0309 96.8667 87.1909 96.2 87.1909 95.44ZM94.0456 91.6C94.4323 91.0933 94.959 90.6667 95.6256 90.32C96.2923 89.9733 97.0456 89.8 97.8856 89.8C98.8456 89.8 99.719 90.04 100.506 90.52C101.306 90.9867 101.932 91.6467 102.386 92.5C102.839 93.3533 103.066 94.3333 103.066 95.44C103.066 96.5467 102.839 97.54 102.386 98.42C101.932 99.2867 101.306 99.9667 100.506 100.46C99.719 100.94 98.8456 101.18 97.8856 101.18C97.0456 101.18 96.299 101.013 95.6456 100.68C94.9923 100.333 94.459 99.9067 94.0456 99.4V106.24H91.7656V89.98H94.0456V91.6ZM100.746 95.44C100.746 94.68 100.586 94.0267 100.266 93.48C99.959 92.92 99.5456 92.5 99.0256 92.22C98.519 91.9267 97.9723 91.78 97.3856 91.78C96.8123 91.78 96.2656 91.9267 95.7456 92.22C95.239 92.5133 94.8256 92.94 94.5056 93.5C94.199 94.06 94.0456 94.72 94.0456 95.48C94.0456 96.24 94.199 96.9067 94.5056 97.48C94.8256 98.04 95.239 98.4667 95.7456 98.76C96.2656 99.0533 96.8123 99.2 97.3856 99.2C97.9723 99.2 98.519 99.0533 99.0256 98.76C99.5456 98.4533 99.959 98.0133 100.266 97.44C100.586 96.8667 100.746 96.2 100.746 95.44ZM110.1 101.18C109.06 101.18 108.12 100.947 107.28 100.48C106.44 100 105.78 99.3333 105.3 98.48C104.82 97.6133 104.58 96.6133 104.58 95.48C104.58 94.36 104.827 93.3667 105.32 92.5C105.814 91.6333 106.487 90.9667 107.34 90.5C108.194 90.0333 109.147 89.8 110.2 89.8C111.254 89.8 112.207 90.0333 113.06 90.5C113.914 90.9667 114.587 91.6333 115.08 92.5C115.574 93.3667 115.82 94.36 115.82 95.48C115.82 96.6 115.567 97.5933 115.06 98.46C114.554 99.3267 113.86 100 112.98 100.48C112.114 100.947 111.154 101.18 110.1 101.18ZM110.1 99.2C110.687 99.2 111.234 99.06 111.74 98.78C112.26 98.5 112.68 98.08 113 97.52C113.32 96.96 113.48 96.28 113.48 95.48C113.48 94.68 113.327 94.0067 113.02 93.46C112.714 92.9 112.307 92.48 111.8 92.2C111.294 91.92 110.747 91.78 110.16 91.78C109.574 91.78 109.027 91.92 108.52 92.2C108.027 92.48 107.634 92.9 107.34 93.46C107.047 94.0067 106.9 94.68 106.9 95.48C106.9 96.6667 107.2 97.5867 107.8 98.24C108.414 98.88 109.18 99.2 110.1 99.2ZM120.354 91.58C120.688 91.02 121.128 90.5867 121.674 90.28C122.234 89.96 122.894 89.8 123.654 89.8V92.16H123.074C122.181 92.16 121.501 92.3867 121.034 92.84C120.581 93.2933 120.354 94.08 120.354 95.2V101H118.074V89.98H120.354V91.58ZM128.41 91.84V97.94C128.41 98.3533 128.503 98.6533 128.69 98.84C128.89 99.0133 129.223 99.1 129.69 99.1H131.09V101H129.29C128.263 101 127.477 100.76 126.93 100.28C126.383 99.8 126.11 99.02 126.11 97.94V91.84H124.81V89.98H126.11V87.24H128.41V89.98H131.09V91.84H128.41Z" fill="black"/>
<defs>
<clipPath id="clip0_102_11">
<rect width="40" height="40" fill="white" transform="translate(12.5 12)"/>
</clipPath>
</defs>
</svg>
