<svg width="368" height="177" viewBox="0 0 368 177" fill="none" xmlns="http://www.w3.org/2000/svg">
<rect width="356" height="176" fill="white"/>
<path d="M9.87 26.31C10.0633 26.31 10.2167 26.3667 10.33 26.48C10.4433 26.5933 10.5 26.74 10.5 26.92V28H0.94V27.39C0.94 27.2633 0.966667 27.1333 1.02 27C1.07333 26.8667 1.15667 26.7433 1.27 26.63L5.86 22.02C6.24 21.6333 6.58667 21.2633 6.9 20.91C7.21333 20.55 7.48 20.19 7.7 19.83C7.92 19.47 8.09 19.1067 8.21 18.74C8.33 18.3667 8.39 17.97 8.39 17.55C8.39 17.13 8.32333 16.7633 8.19 16.45C8.05667 16.13 7.87333 15.8667 7.64 15.66C7.41333 15.4533 7.14333 15.3 6.83 15.2C6.51667 15.0933 6.18 15.04 5.82 15.04C5.45333 15.04 5.11667 15.0933 4.81 15.2C4.50333 15.3067 4.23 15.4567 3.99 15.65C3.75667 15.8367 3.56 16.06 3.4 16.32C3.24 16.58 3.12667 16.8667 3.06 17.18C2.98 17.4133 2.87 17.57 2.73 17.65C2.59667 17.7233 2.40667 17.7433 2.16 17.71L1.23 17.55C1.32333 16.8967 1.50333 16.32 1.77 15.82C2.04333 15.3133 2.38333 14.89 2.79 14.55C3.20333 14.21 3.67333 13.9533 4.2 13.78C4.72667 13.6 5.29667 13.51 5.91 13.51C6.51667 13.51 7.08333 13.6 7.61 13.78C8.13667 13.96 8.59333 14.2233 8.98 14.57C9.36667 14.91 9.67 15.3267 9.89 15.82C10.11 16.3133 10.22 16.8733 10.22 17.5C10.22 18.0333 10.14 18.53 9.98 18.99C9.82 19.4433 9.60333 19.8767 9.33 20.29C9.05667 20.7033 8.74 21.1067 8.38 21.5C8.02667 21.8933 7.65 22.29 7.25 22.69L3.47 26.55C3.73667 26.4767 4.00667 26.42 4.28 26.38C4.55333 26.3333 4.81667 26.31 5.07 26.31H9.87ZM23.5788 26.46C24.1321 26.46 24.6088 26.3967 25.0088 26.27C25.4088 26.1433 25.7354 25.9667 25.9888 25.74C26.2488 25.5067 26.4388 25.2333 26.5588 24.92C26.6788 24.6 26.7388 24.25 26.7388 23.87C26.7388 23.13 26.4754 22.5467 25.9488 22.12C25.4221 21.6867 24.6321 21.47 23.5788 21.47H20.4788V26.46H23.5788ZM20.4788 15.2V20.09H23.0388C23.5854 20.09 24.0588 20.03 24.4588 19.91C24.8654 19.79 25.1988 19.6233 25.4588 19.41C25.7254 19.1967 25.9221 18.94 26.0488 18.64C26.1754 18.3333 26.2388 18 26.2388 17.64C26.2388 16.7933 25.9854 16.1767 25.4788 15.79C24.9721 15.3967 24.1854 15.2 23.1188 15.2H20.4788ZM23.1188 13.67C23.9988 13.67 24.7554 13.7567 25.3888 13.93C26.0288 14.1033 26.5521 14.35 26.9588 14.67C27.3721 14.99 27.6754 15.3833 27.8688 15.85C28.0621 16.31 28.1588 16.83 28.1588 17.41C28.1588 17.7633 28.1021 18.1033 27.9888 18.43C27.8821 18.75 27.7188 19.05 27.4988 19.33C27.2788 19.61 26.9988 19.8633 26.6588 20.09C26.3254 20.31 25.9321 20.49 25.4788 20.63C26.5321 20.83 27.3221 21.2067 27.8488 21.76C28.3821 22.3067 28.6488 23.0267 28.6488 23.92C28.6488 24.5267 28.5354 25.08 28.3088 25.58C28.0888 26.08 27.7621 26.51 27.3288 26.87C26.9021 27.23 26.3754 27.51 25.7488 27.71C25.1221 27.9033 24.4088 28 23.6088 28H18.5488V13.67H23.1188ZM43.0884 13.67V28H41.1484V21.48H33.4184V28H31.4784V13.67H33.4184V20.06H41.1484V13.67H43.0884ZM48.6819 19.95H49.4119C49.6652 19.95 49.8685 19.92 50.0219 19.86C50.1752 19.7933 50.3152 19.6833 50.4419 19.53L55.2119 14.13C55.3452 13.9567 55.4852 13.8367 55.6319 13.77C55.7785 13.7033 55.9585 13.67 56.1719 13.67H57.8119L52.3519 19.84C52.2185 20 52.0885 20.1333 51.9619 20.24C51.8419 20.34 51.7119 20.4233 51.5719 20.49C51.7519 20.55 51.9152 20.64 52.0619 20.76C52.2085 20.8733 52.3519 21.0233 52.4919 21.21L58.1919 28H56.5119C56.3852 28 56.2752 27.9933 56.1819 27.98C56.0952 27.96 56.0185 27.9333 55.9519 27.9C55.8852 27.86 55.8252 27.8167 55.7719 27.77C55.7252 27.7167 55.6785 27.6567 55.6319 27.59L50.6919 21.9C50.5585 21.7333 50.4152 21.6167 50.2619 21.55C50.1085 21.4767 49.8752 21.44 49.5619 21.44H48.6819V28H46.7519V13.67H48.6819V19.95Z" fill="black"/>
<line x1="67.1" y1="8" x2="67.1" y2="32" stroke="#030303" stroke-width="0.2"/>
<path d="M78.77 15.25V20.26H84.66V21.84H78.77V28H76.83V13.67H85.66V15.25H78.77ZM95.3064 17.87V28H94.2464C93.9931 28 93.8331 27.8767 93.7664 27.63L93.6264 26.54C93.1864 27.0267 92.6931 27.42 92.1464 27.72C91.5997 28.0133 90.9731 28.16 90.2664 28.16C89.7131 28.16 89.2231 28.07 88.7964 27.89C88.3764 27.7033 88.0231 27.4433 87.7364 27.11C87.4497 26.7767 87.2331 26.3733 87.0864 25.9C86.9464 25.4267 86.8764 24.9033 86.8764 24.33V17.87H88.6564V24.33C88.6564 25.0967 88.8297 25.69 89.1764 26.11C89.5297 26.53 90.0664 26.74 90.7864 26.74C91.3131 26.74 91.8031 26.6167 92.2564 26.37C92.7164 26.1167 93.1397 25.77 93.5264 25.33V17.87H95.3064ZM99.9688 13.27V28H98.1887V13.27H99.9688ZM104.695 13.27V28H102.915V13.27H104.695ZM116.322 17.87L110.672 30.99C110.612 31.1233 110.535 31.23 110.442 31.31C110.355 31.39 110.219 31.43 110.032 31.43H108.712L110.562 27.41L106.382 17.87H107.922C108.075 17.87 108.195 17.91 108.282 17.99C108.375 18.0633 108.439 18.1467 108.472 18.24L111.182 24.62C111.289 24.9 111.379 25.1933 111.452 25.5C111.545 25.1867 111.645 24.89 111.752 24.61L114.382 18.24C114.422 18.1333 114.489 18.0467 114.582 17.98C114.682 17.9067 114.792 17.87 114.912 17.87H116.322ZM124.883 15.25V20.26H130.773V21.84H124.883V28H122.943V13.67H131.773V15.25H124.883ZM141.42 17.87V28H140.36C140.106 28 139.946 27.8767 139.88 27.63L139.74 26.54C139.3 27.0267 138.806 27.42 138.26 27.72C137.713 28.0133 137.086 28.16 136.38 28.16C135.826 28.16 135.336 28.07 134.91 27.89C134.49 27.7033 134.136 27.4433 133.85 27.11C133.563 26.7767 133.346 26.3733 133.2 25.9C133.06 25.4267 132.99 24.9033 132.99 24.33V17.87H134.77V24.33C134.77 25.0967 134.943 25.69 135.29 26.11C135.643 26.53 136.18 26.74 136.9 26.74C137.426 26.74 137.916 26.6167 138.37 26.37C138.83 26.1167 139.253 25.77 139.64 25.33V17.87H141.42ZM145.932 19.9C146.252 19.2067 146.645 18.6667 147.112 18.28C147.579 17.8867 148.149 17.69 148.822 17.69C149.035 17.69 149.239 17.7133 149.432 17.76C149.632 17.8067 149.809 17.88 149.962 17.98L149.832 19.31C149.792 19.4767 149.692 19.56 149.532 19.56C149.439 19.56 149.302 19.54 149.122 19.5C148.942 19.46 148.739 19.44 148.512 19.44C148.192 19.44 147.905 19.4867 147.652 19.58C147.405 19.6733 147.182 19.8133 146.982 20C146.789 20.18 146.612 20.4067 146.452 20.68C146.299 20.9467 146.159 21.2533 146.032 21.6V28H144.242V17.87H145.262C145.455 17.87 145.589 17.9067 145.662 17.98C145.735 18.0533 145.785 18.18 145.812 18.36L145.932 19.9ZM153.207 19.34C153.427 19.0933 153.661 18.87 153.907 18.67C154.154 18.47 154.414 18.3 154.687 18.16C154.967 18.0133 155.261 17.9033 155.567 17.83C155.881 17.75 156.217 17.71 156.577 17.71C157.131 17.71 157.617 17.8033 158.037 17.99C158.464 18.17 158.817 18.43 159.097 18.77C159.384 19.1033 159.601 19.5067 159.747 19.98C159.894 20.4533 159.967 20.9767 159.967 21.55V28H158.177V21.55C158.177 20.7833 158.001 20.19 157.647 19.77C157.301 19.3433 156.771 19.13 156.057 19.13C155.531 19.13 155.037 19.2567 154.577 19.51C154.124 19.7633 153.704 20.1067 153.317 20.54V28H151.527V17.87H152.597C152.851 17.87 153.007 17.9933 153.067 18.24L153.207 19.34ZM164.56 17.87V28H162.78V17.87H164.56ZM164.94 14.69C164.94 14.8633 164.903 15.0267 164.83 15.18C164.763 15.3267 164.67 15.46 164.55 15.58C164.436 15.6933 164.3 15.7833 164.14 15.85C163.986 15.9167 163.823 15.95 163.65 15.95C163.476 15.95 163.313 15.9167 163.16 15.85C163.013 15.7833 162.883 15.6933 162.77 15.58C162.656 15.46 162.566 15.3267 162.5 15.18C162.433 15.0267 162.4 14.8633 162.4 14.69C162.4 14.5167 162.433 14.3533 162.5 14.2C162.566 14.04 162.656 13.9033 162.77 13.79C162.883 13.67 163.013 13.5767 163.16 13.51C163.313 13.4433 163.476 13.41 163.65 13.41C163.823 13.41 163.986 13.4433 164.14 13.51C164.3 13.5767 164.436 13.67 164.55 13.79C164.67 13.9033 164.763 14.04 164.83 14.2C164.903 14.3533 164.94 14.5167 164.94 14.69ZM173.384 19.54C173.304 19.6867 173.181 19.76 173.014 19.76C172.914 19.76 172.801 19.7233 172.674 19.65C172.548 19.5767 172.391 19.4967 172.204 19.41C172.024 19.3167 171.808 19.2333 171.554 19.16C171.301 19.08 171.001 19.04 170.654 19.04C170.354 19.04 170.084 19.08 169.844 19.16C169.604 19.2333 169.398 19.3367 169.224 19.47C169.058 19.6033 168.928 19.76 168.834 19.94C168.748 20.1133 168.704 20.3033 168.704 20.51C168.704 20.77 168.778 20.9867 168.924 21.16C169.078 21.3333 169.278 21.4833 169.524 21.61C169.771 21.7367 170.051 21.85 170.364 21.95C170.678 22.0433 170.998 22.1467 171.324 22.26C171.658 22.3667 171.981 22.4867 172.294 22.62C172.608 22.7533 172.888 22.92 173.134 23.12C173.381 23.32 173.578 23.5667 173.724 23.86C173.878 24.1467 173.954 24.4933 173.954 24.9C173.954 25.3667 173.871 25.8 173.704 26.2C173.538 26.5933 173.291 26.9367 172.964 27.23C172.638 27.5167 172.238 27.7433 171.764 27.91C171.291 28.0767 170.744 28.16 170.124 28.16C169.418 28.16 168.778 28.0467 168.204 27.82C167.631 27.5867 167.144 27.29 166.744 26.93L167.164 26.25C167.218 26.1633 167.281 26.0967 167.354 26.05C167.428 26.0033 167.521 25.98 167.634 25.98C167.754 25.98 167.881 26.0267 168.014 26.12C168.148 26.2133 168.308 26.3167 168.494 26.43C168.688 26.5433 168.921 26.6467 169.194 26.74C169.468 26.8333 169.808 26.88 170.214 26.88C170.561 26.88 170.864 26.8367 171.124 26.75C171.384 26.6567 171.601 26.5333 171.774 26.38C171.948 26.2267 172.074 26.05 172.154 25.85C172.241 25.65 172.284 25.4367 172.284 25.21C172.284 24.93 172.208 24.7 172.054 24.52C171.908 24.3333 171.711 24.1767 171.464 24.05C171.218 23.9167 170.934 23.8033 170.614 23.71C170.301 23.61 169.978 23.5067 169.644 23.4C169.318 23.2933 168.994 23.1733 168.674 23.04C168.361 22.9 168.081 22.7267 167.834 22.52C167.588 22.3133 167.388 22.06 167.234 21.76C167.088 21.4533 167.014 21.0833 167.014 20.65C167.014 20.2633 167.094 19.8933 167.254 19.54C167.414 19.18 167.648 18.8667 167.954 18.6C168.261 18.3267 168.638 18.11 169.084 17.95C169.531 17.79 170.041 17.71 170.614 17.71C171.281 17.71 171.878 17.8167 172.404 18.03C172.938 18.2367 173.398 18.5233 173.784 18.89L173.384 19.54ZM177.927 19.22C178.36 18.76 178.84 18.3933 179.367 18.12C179.893 17.8467 180.5 17.71 181.187 17.71C181.74 17.71 182.227 17.8033 182.647 17.99C183.073 18.17 183.427 18.43 183.707 18.77C183.993 19.1033 184.21 19.5067 184.357 19.98C184.503 20.4533 184.577 20.9767 184.577 21.55V28H182.787V21.55C182.787 20.7833 182.61 20.19 182.257 19.77C181.91 19.3433 181.38 19.13 180.667 19.13C180.14 19.13 179.647 19.2567 179.187 19.51C178.733 19.7633 178.313 20.1067 177.927 20.54V28H176.137V13.27H177.927V19.22ZM194.069 21.83C194.069 21.4167 194.009 21.04 193.889 20.7C193.776 20.3533 193.606 20.0567 193.379 19.81C193.159 19.5567 192.889 19.3633 192.569 19.23C192.249 19.09 191.886 19.02 191.479 19.02C190.626 19.02 189.949 19.27 189.449 19.77C188.956 20.2633 188.649 20.95 188.529 21.83H194.069ZM195.509 26.58C195.289 26.8467 195.026 27.08 194.719 27.28C194.412 27.4733 194.082 27.6333 193.729 27.76C193.382 27.8867 193.022 27.98 192.649 28.04C192.276 28.1067 191.906 28.14 191.539 28.14C190.839 28.14 190.192 28.0233 189.599 27.79C189.012 27.55 188.502 27.2033 188.069 26.75C187.642 26.29 187.309 25.7233 187.069 25.05C186.829 24.3767 186.709 23.6033 186.709 22.73C186.709 22.0233 186.816 21.3633 187.029 20.75C187.249 20.1367 187.562 19.6067 187.969 19.16C188.376 18.7067 188.872 18.3533 189.459 18.1C190.046 17.84 190.706 17.71 191.439 17.71C192.046 17.71 192.606 17.8133 193.119 18.02C193.639 18.22 194.086 18.5133 194.459 18.9C194.839 19.28 195.136 19.7533 195.349 20.32C195.562 20.88 195.669 21.52 195.669 22.24C195.669 22.52 195.639 22.7067 195.579 22.8C195.519 22.8933 195.406 22.94 195.239 22.94H188.469C188.489 23.58 188.576 24.1367 188.729 24.61C188.889 25.0833 189.109 25.48 189.389 25.8C189.669 26.1133 190.002 26.35 190.389 26.51C190.776 26.6633 191.209 26.74 191.689 26.74C192.136 26.74 192.519 26.69 192.839 26.59C193.166 26.4833 193.446 26.37 193.679 26.25C193.912 26.13 194.106 26.02 194.259 25.92C194.419 25.8133 194.556 25.76 194.669 25.76C194.816 25.76 194.929 25.8167 195.009 25.93L195.509 26.58ZM204.455 20.28C204.122 19.8333 203.762 19.5233 203.375 19.35C202.989 19.17 202.555 19.08 202.075 19.08C201.135 19.08 200.412 19.4167 199.905 20.09C199.399 20.7633 199.145 21.7233 199.145 22.97C199.145 23.63 199.202 24.1967 199.315 24.67C199.429 25.1367 199.595 25.5233 199.815 25.83C200.035 26.13 200.305 26.35 200.625 26.49C200.945 26.63 201.309 26.7 201.715 26.7C202.302 26.7 202.812 26.5667 203.245 26.3C203.685 26.0333 204.089 25.6567 204.455 25.17V20.28ZM206.235 13.27V28H205.175C204.922 28 204.762 27.8767 204.695 27.63L204.535 26.4C204.102 26.92 203.609 27.34 203.055 27.66C202.502 27.98 201.862 28.14 201.135 28.14C200.555 28.14 200.029 28.03 199.555 27.81C199.082 27.5833 198.679 27.2533 198.345 26.82C198.012 26.3867 197.755 25.8467 197.575 25.2C197.395 24.5533 197.305 23.81 197.305 22.97C197.305 22.2233 197.405 21.53 197.605 20.89C197.805 20.2433 198.092 19.6833 198.465 19.21C198.839 18.7367 199.295 18.3667 199.835 18.1C200.382 17.8267 200.995 17.69 201.675 17.69C202.295 17.69 202.825 17.7967 203.265 18.01C203.712 18.2167 204.109 18.5067 204.455 18.88V13.27H206.235Z" fill="black"/>
<rect x="0.5" y="48.5" width="21" height="21" rx="10.5" fill="white" fill-opacity="0.1"/>
<rect x="0.5" y="48.5" width="21" height="21" rx="10.5" stroke="#42555C"/>
<path fill-rule="evenodd" clip-rule="evenodd" d="M8.94459 54.9243C8 55.0421 6.4707 56.3375 6.4707 58.1377H12.1967C12.1967 56.3614 10.7325 55.0553 9.76317 54.9293C9.75576 53.6429 9.76894 53.1669 12.6208 53.1669C15.2726 53.1669 15.5419 54.3404 15.5419 56.816V65.1015C15.5419 65.328 15.7132 65.5124 15.9405 65.5124C16.1678 65.5124 16.3522 65.328 16.3522 65.1015V56.816C16.3531 54.1807 16.3004 52.4117 12.6216 52.4117C9.42717 52.4117 8.97753 53.0961 8.94459 54.9243Z" fill="#42555C"/>
<path d="M7.26047 59H6.4707V59.7544H7.26047V59Z" fill="#42555C"/>
<path d="M9.73117 59H8.94141V59.7544H9.73117V59Z" fill="#42555C"/>
<path d="M12.2019 59H11.4121V59.7544H12.2019V59Z" fill="#42555C"/>
<path d="M8.0842 60.6471H7.29443V61.4014H8.0842V60.6471Z" fill="#42555C"/>
<path d="M11.3781 60.6471H10.5884V61.4014H11.3781V60.6471Z" fill="#42555C"/>
<rect x="30.5" y="48.5" width="21" height="21" rx="10.5" fill="white" fill-opacity="0.1"/>
<rect x="30.5" y="48.5" width="21" height="21" rx="10.5" stroke="#42555C"/>
<path fill-rule="evenodd" clip-rule="evenodd" d="M37.9551 55.9508C38.0167 55.6868 38.2521 55.5 38.5232 55.5H43.4772C43.7482 55.5 43.9836 55.6868 44.0452 55.9508L44.3484 57.25H43.9168H38.0835H37.6519L37.9551 55.9508ZM35.1668 58.4167H35.7499C35.3838 58.9042 35.1668 59.5101 35.1668 60.1667V60.75C35.1668 61.512 35.6538 62.1602 36.3335 62.4005V63.6667C36.3335 63.9889 36.5947 64.25 36.9168 64.25H37.5002C37.8223 64.25 38.0835 63.9889 38.0835 63.6667V62.5H43.9168V63.6667C43.9168 63.9889 44.178 64.25 44.5002 64.25H45.0835C45.4057 64.25 45.6668 63.9889 45.6668 63.6667V62.4005C46.3465 62.1602 46.8335 61.512 46.8335 60.75V60.1667C46.8335 59.5101 46.6166 58.9042 46.2504 58.4167H46.8335C47.1557 58.4167 47.4168 58.1555 47.4168 57.8334C47.4168 57.5112 47.1557 57.25 46.8335 57.25H46.2502C45.9468 57.25 45.6976 57.4816 45.6695 57.7775L45.6515 57.7008L45.1814 55.6857C44.9966 54.8937 44.2905 54.3334 43.4772 54.3334H38.5232C37.7099 54.3334 37.0038 54.8937 36.8189 55.6857L36.3488 57.7008L36.3309 57.7775C36.3027 57.4816 36.0535 57.25 35.7502 57.25H35.1668C34.8447 57.25 34.5835 57.5112 34.5835 57.8334C34.5835 58.1555 34.8447 58.4167 35.1668 58.4167ZM38.0835 58.4167C37.117 58.4167 36.3335 59.2002 36.3335 60.1667V60.75C36.3335 61.0722 36.5947 61.3334 36.9168 61.3334H37.5002H44.5002H45.0835C45.4057 61.3334 45.6668 61.0722 45.6668 60.75V60.1667C45.6668 59.2002 44.8834 58.4167 43.9168 58.4167H38.0835ZM37.5002 59.875C37.5002 59.3918 37.8919 59 38.3752 59C38.8584 59 39.2502 59.3918 39.2502 59.875C39.2502 60.3583 38.8584 60.75 38.3752 60.75C37.8919 60.75 37.5002 60.3583 37.5002 59.875ZM43.6252 59C43.1419 59 42.7502 59.3918 42.7502 59.875C42.7502 60.3583 43.1419 60.75 43.6252 60.75C44.1084 60.75 44.5002 60.3583 44.5002 59.875C44.5002 59.3918 44.1084 59 43.6252 59Z" fill="#42555C"/>
<rect x="60.5" y="48.5" width="21" height="21" rx="10.5" fill="white" fill-opacity="0.1"/>
<rect x="60.5" y="48.5" width="21" height="21" rx="10.5" stroke="#42555C"/>
<path d="M72.1668 59.5833C72.1668 60.2277 71.6445 60.75 71.0002 60.75M73.9168 55.5H73.9227M73.9168 59.5833C73.9168 61.1941 72.611 62.5 71.0002 62.5C69.3893 62.5 68.0835 61.1941 68.0835 59.5833C68.0835 57.9725 69.3893 56.6667 71.0002 56.6667C72.611 56.6667 73.9168 57.9725 73.9168 59.5833ZM67.5002 64.25H74.5002C75.1445 64.25 75.6668 63.7277 75.6668 63.0833V54.9167C75.6668 54.2723 75.1445 53.75 74.5002 53.75H67.5002C66.8558 53.75 66.3335 54.2723 66.3335 54.9167V63.0833C66.3335 63.7277 66.8558 64.25 67.5002 64.25Z" stroke="#42555C" stroke-linecap="round" stroke-linejoin="round"/>
<rect x="90.5" y="48.5" width="21" height="21" rx="10.5" fill="white" fill-opacity="0.1"/>
<rect x="90.5" y="48.5" width="21" height="21" rx="10.5" stroke="#42555C"/>
<g clip-path="url(#clip0_1_88)">
<path d="M105.091 55.0769H96.9091C96.4091 55.0769 96 55.4769 96 55.9658V61.2991C96 61.788 96.4091 62.188 96.9091 62.188H99.1818V63.0769H102.818V62.188H105.091C105.591 62.188 105.995 61.788 105.995 61.2991L106 55.9658C106 55.4769 105.591 55.0769 105.091 55.0769ZM105.091 61.2991H96.9091V55.9658H105.091V61.2991Z" fill="#42555C"/>
</g>
<rect x="120.5" y="48.5" width="21" height="21" rx="10.5" fill="white" fill-opacity="0.1"/>
<rect x="120.5" y="48.5" width="21" height="21" rx="10.5" stroke="#42555C"/>
<g clip-path="url(#clip1_1_88)">
<path d="M126 57.3179L126.985 58.3024C129.431 55.8558 133.399 55.8558 135.845 58.3024L136.83 57.3179C133.842 54.3298 128.993 54.3298 126 57.3179ZM129.938 61.256L131.415 62.7329L132.892 61.256C132.08 60.4389 130.755 60.4389 129.938 61.256ZM127.969 59.2869L128.954 60.2715C130.312 58.9128 132.518 58.9128 133.876 60.2715L134.861 59.2869C132.961 57.3868 129.874 57.3868 127.969 59.2869Z" fill="#42555C"/>
</g>
<g clip-path="url(#clip2_1_88)">
<path fill-rule="evenodd" clip-rule="evenodd" d="M13 92.6401L12.9999 92.6649C12.9999 92.6754 12.9997 92.6858 12.9996 92.6963C12.9999 92.7084 13 92.7208 13 92.7331C13 94.6793 11.213 96.4019 10.0172 97.5548C9.67023 97.8893 9.37302 98.1758 9.18369 98.4059C8.51021 99.2242 8.15477 100.111 8.06121 100.452C8.06121 100.709 7.80999 100.917 7.5 100.917C7.19001 100.917 6.93879 100.709 6.93879 100.452C6.84522 100.111 6.48979 99.2242 5.81631 98.4059C5.62697 98.1758 5.32977 97.8893 4.98279 97.5548C3.78702 96.4019 2 94.6793 2 92.7331C2 92.7208 2.00014 92.7084 2.00041 92.6963C2.00014 92.6776 2 92.6589 2 92.6401C2 90.1235 4.46242 88.0834 7.5 88.0834C10.5376 88.0834 13 90.1235 13 92.6401ZM7.5 94.3141C8.67782 94.3141 9.63262 93.523 9.63262 92.5472C9.63262 91.5713 8.67782 90.7802 7.5 90.7802C6.32218 90.7802 5.36737 91.5713 5.36737 92.5472C5.36737 93.523 6.32218 94.3141 7.5 94.3141Z" fill="#34A851"/>
<path d="M12.3848 90.5442C11.7113 89.4691 10.5359 88.6444 9.11575 88.2833L5.95703 91.3276C6.3454 90.9904 6.89306 90.7804 7.49999 90.7804C8.67781 90.7804 9.63261 91.5715 9.63261 92.5473C9.63261 92.9454 9.47373 93.3127 9.20561 93.6082L12.3848 90.5442Z" fill="#4285F5"/>
<path d="M5.04632 97.6165C5.02522 97.5962 5.00397 97.5757 4.98252 97.555C4.1943 96.7951 3.14918 95.7876 2.52832 94.6317L5.81137 91.4678C5.5328 91.7663 5.36704 92.1408 5.36704 92.5474C5.36704 93.5232 6.32191 94.3143 7.49974 94.3143C8.09635 94.3143 8.63576 94.1113 9.02282 93.7841L5.04632 97.6165Z" fill="#42555C"/>
<path d="M3.30136 89.6967C2.48955 90.4907 2 91.5181 2 92.6402C2 92.6589 2.00014 92.6777 2.00041 92.6963C2.00014 92.7085 2 92.7208 2 92.7332C2 93.3965 2.2076 94.0339 2.52861 94.6315L5.80614 91.4729L3.30136 89.6967Z" fill="#E74335"/>
<path d="M9.11568 88.2832C8.6048 88.1533 8.06222 88.0834 7.49991 88.0834C5.81671 88.0834 4.31012 88.7098 3.30127 89.6966L5.80605 91.4728L5.81148 91.4676C5.85706 91.4188 5.9056 91.3719 5.95696 91.3273L9.11568 88.2832Z" fill="#1A73E6"/>
</g>
<path d="M32.429 95.177V99.027C31.925 99.391 31.386 99.664 30.812 99.846C30.2427 100.023 29.6173 100.112 28.936 100.112C28.1287 100.112 27.4007 99.9883 26.752 99.741C26.1033 99.489 25.548 99.139 25.086 98.691C24.6287 98.2383 24.2763 97.697 24.029 97.067C23.7817 96.437 23.658 95.744 23.658 94.988C23.658 94.2227 23.777 93.525 24.015 92.895C24.2577 92.265 24.6007 91.726 25.044 91.278C25.4873 90.8253 26.0263 90.4753 26.661 90.228C27.2957 89.9807 28.005 89.857 28.789 89.857C29.1857 89.857 29.5543 89.8873 29.895 89.948C30.2357 90.004 30.5507 90.088 30.84 90.2C31.1293 90.3073 31.3977 90.4403 31.645 90.599C31.8923 90.753 32.1233 90.928 32.338 91.124L31.953 91.74C31.8923 91.8333 31.813 91.894 31.715 91.922C31.6217 91.9453 31.5167 91.922 31.4 91.852C31.288 91.7867 31.1597 91.7073 31.015 91.614C30.8703 91.5207 30.693 91.432 30.483 91.348C30.2777 91.2593 30.0327 91.1847 29.748 91.124C29.468 91.0633 29.1343 91.033 28.747 91.033C28.1823 91.033 27.6713 91.1263 27.214 91.313C26.7567 91.495 26.367 91.7587 26.045 92.104C25.723 92.4447 25.4757 92.86 25.303 93.35C25.1303 93.8353 25.044 94.3813 25.044 94.988C25.044 95.618 25.1327 96.1827 25.31 96.682C25.492 97.1767 25.7487 97.599 26.08 97.949C26.416 98.2943 26.822 98.558 27.298 98.74C27.774 98.922 28.3083 99.013 28.901 99.013C29.3677 99.013 29.7807 98.9617 30.14 98.859C30.504 98.7517 30.8587 98.6047 31.204 98.418V96.213H29.643C29.5543 96.213 29.482 96.1873 29.426 96.136C29.3747 96.0847 29.349 96.0217 29.349 95.947V95.177H32.429ZM37.1205 92.797C37.6385 92.797 38.1052 92.8833 38.5205 93.056C38.9359 93.2287 39.2905 93.4737 39.5845 93.791C39.8785 94.1083 40.1025 94.4933 40.2565 94.946C40.4152 95.394 40.4945 95.8957 40.4945 96.451C40.4945 97.011 40.4152 97.515 40.2565 97.963C40.1025 98.411 39.8785 98.7937 39.5845 99.111C39.2905 99.4283 38.9359 99.6733 38.5205 99.846C38.1052 100.014 37.6385 100.098 37.1205 100.098C36.5979 100.098 36.1265 100.014 35.7065 99.846C35.2912 99.6733 34.9365 99.4283 34.6425 99.111C34.3485 98.7937 34.1222 98.411 33.9635 97.963C33.8095 97.515 33.7325 97.011 33.7325 96.451C33.7325 95.8957 33.8095 95.394 33.9635 94.946C34.1222 94.4933 34.3485 94.1083 34.6425 93.791C34.9365 93.4737 35.2912 93.2287 35.7065 93.056C36.1265 92.8833 36.5979 92.797 37.1205 92.797ZM37.1205 99.125C37.8205 99.125 38.3432 98.8917 38.6885 98.425C39.0339 97.9537 39.2065 97.298 39.2065 96.458C39.2065 95.6133 39.0339 94.9553 38.6885 94.484C38.3432 94.0127 37.8205 93.777 37.1205 93.777C36.7659 93.777 36.4555 93.8377 36.1895 93.959C35.9282 94.0803 35.7089 94.2553 35.5315 94.484C35.3589 94.7127 35.2282 94.995 35.1395 95.331C35.0555 95.6623 35.0135 96.038 35.0135 96.458C35.0135 97.298 35.1862 97.9537 35.5315 98.425C35.8815 98.8917 36.4112 99.125 37.1205 99.125ZM43.2579 94.33C43.4819 93.8447 43.7572 93.4667 44.0839 93.196C44.4106 92.9207 44.8096 92.783 45.2809 92.783C45.4302 92.783 45.5726 92.7993 45.7079 92.832C45.8479 92.8647 45.9716 92.916 46.0789 92.986L45.9879 93.917C45.9599 94.0337 45.8899 94.092 45.7779 94.092C45.7126 94.092 45.6169 94.078 45.4909 94.05C45.3649 94.022 45.2226 94.008 45.0639 94.008C44.8399 94.008 44.6392 94.0407 44.4619 94.106C44.2892 94.1713 44.1329 94.2693 43.9929 94.4C43.8576 94.526 43.7339 94.6847 43.6219 94.876C43.5146 95.0627 43.4166 95.2773 43.3279 95.52V100H42.0749V92.909H42.7889C42.9242 92.909 43.0176 92.9347 43.0689 92.986C43.1202 93.0373 43.1552 93.126 43.1739 93.252L43.2579 94.33ZM51.6334 95.681C51.6334 95.3917 51.5914 95.128 51.5074 94.89C51.4281 94.6473 51.3091 94.4397 51.1504 94.267C50.9964 94.0897 50.8074 93.9543 50.5834 93.861C50.3594 93.763 50.1051 93.714 49.8204 93.714C49.2231 93.714 48.7494 93.889 48.3994 94.239C48.0541 94.5843 47.8394 95.065 47.7554 95.681H51.6334ZM52.6414 99.006C52.4874 99.1927 52.3031 99.356 52.0884 99.496C51.8737 99.6313 51.6427 99.7433 51.3954 99.832C51.1527 99.9207 50.9007 99.986 50.6394 100.028C50.3781 100.075 50.1191 100.098 49.8624 100.098C49.3724 100.098 48.9197 100.016 48.5044 99.853C48.0937 99.685 47.7367 99.4423 47.4334 99.125C47.1347 98.803 46.9014 98.4063 46.7334 97.935C46.5654 97.4637 46.4814 96.9223 46.4814 96.311C46.4814 95.8163 46.5561 95.3543 46.7054 94.925C46.8594 94.4957 47.0787 94.1247 47.3634 93.812C47.6481 93.4947 47.9957 93.2473 48.4064 93.07C48.8171 92.888 49.2791 92.797 49.7924 92.797C50.2171 92.797 50.6091 92.8693 50.9684 93.014C51.3324 93.154 51.6451 93.3593 51.9064 93.63C52.1724 93.896 52.3801 94.2273 52.5294 94.624C52.6787 95.016 52.7534 95.464 52.7534 95.968C52.7534 96.164 52.7324 96.2947 52.6904 96.36C52.6484 96.4253 52.5691 96.458 52.4524 96.458H47.7134C47.7274 96.906 47.7881 97.2957 47.8954 97.627C48.0074 97.9583 48.1614 98.236 48.3574 98.46C48.5534 98.6793 48.7867 98.845 49.0574 98.957C49.3281 99.0643 49.6314 99.118 49.9674 99.118C50.2801 99.118 50.5484 99.083 50.7724 99.013C51.0011 98.9383 51.1971 98.859 51.3604 98.775C51.5237 98.691 51.6591 98.614 51.7664 98.544C51.8784 98.4693 51.9741 98.432 52.0534 98.432C52.1561 98.432 52.2354 98.4717 52.2914 98.551L52.6414 99.006ZM56.7549 96.535C57.0069 96.535 57.2285 96.5 57.4199 96.43C57.6112 96.36 57.7722 96.262 57.9029 96.136C58.0335 96.01 58.1315 95.8607 58.1969 95.688C58.2622 95.5107 58.2949 95.317 58.2949 95.107C58.2949 94.673 58.1619 94.3277 57.8959 94.071C57.6345 93.8143 57.2542 93.686 56.7549 93.686C56.2509 93.686 55.8659 93.8143 55.5999 94.071C55.3385 94.3277 55.2079 94.673 55.2079 95.107C55.2079 95.317 55.2405 95.5107 55.3059 95.688C55.3759 95.8607 55.4762 96.01 55.6069 96.136C55.7375 96.262 55.8985 96.36 56.0899 96.43C56.2812 96.5 56.5029 96.535 56.7549 96.535ZM59.0019 100.385C59.0019 100.212 58.9529 100.072 58.8549 99.965C58.7569 99.8577 58.6239 99.7737 58.4559 99.713C58.2925 99.6523 58.1012 99.6103 57.8819 99.587C57.6625 99.559 57.4292 99.538 57.1819 99.524C56.9392 99.51 56.6919 99.496 56.4399 99.482C56.1879 99.468 55.9452 99.4447 55.7119 99.412C55.4505 99.5333 55.2359 99.6873 55.0679 99.874C54.9045 100.056 54.8229 100.271 54.8229 100.518C54.8229 100.677 54.8625 100.824 54.9419 100.959C55.0259 101.099 55.1519 101.218 55.3199 101.316C55.4879 101.419 55.6979 101.498 55.9499 101.554C56.2065 101.615 56.5075 101.645 56.8529 101.645C57.1889 101.645 57.4899 101.615 57.7559 101.554C58.0219 101.493 58.2459 101.407 58.4279 101.295C58.6145 101.183 58.7569 101.05 58.8549 100.896C58.9529 100.742 59.0019 100.572 59.0019 100.385ZM60.2689 93.189V93.651C60.2689 93.805 60.1709 93.903 59.9749 93.945L59.1699 94.05C59.3285 94.358 59.4079 94.6987 59.4079 95.072C59.4079 95.4173 59.3402 95.7323 59.2049 96.017C59.0742 96.297 58.8922 96.5373 58.6589 96.738C58.4255 96.9387 58.1455 97.0927 57.8189 97.2C57.4922 97.3073 57.1375 97.361 56.7549 97.361C56.4235 97.361 56.1109 97.3213 55.8169 97.242C55.6675 97.3353 55.5532 97.4357 55.4739 97.543C55.3945 97.6457 55.3549 97.7507 55.3549 97.858C55.3549 98.026 55.4225 98.1543 55.5579 98.243C55.6979 98.327 55.8799 98.3877 56.1039 98.425C56.3279 98.4623 56.5822 98.4857 56.8669 98.495C57.1562 98.5043 57.4502 98.5207 57.7489 98.544C58.0522 98.5627 58.3462 98.5977 58.6309 98.649C58.9202 98.7003 59.1769 98.7843 59.4009 98.901C59.6249 99.0177 59.8045 99.1787 59.9399 99.384C60.0799 99.5893 60.1499 99.8553 60.1499 100.182C60.1499 100.485 60.0729 100.779 59.9189 101.064C59.7695 101.349 59.5525 101.601 59.2679 101.82C58.9832 102.044 58.6332 102.221 58.2179 102.352C57.8072 102.487 57.3429 102.555 56.8249 102.555C56.3069 102.555 55.8542 102.504 55.4669 102.401C55.0795 102.298 54.7575 102.161 54.5009 101.988C54.2442 101.815 54.0505 101.615 53.9199 101.386C53.7939 101.162 53.7309 100.926 53.7309 100.679C53.7309 100.329 53.8405 100.033 54.0599 99.79C54.2792 99.5473 54.5802 99.3537 54.9629 99.209C54.7529 99.1157 54.5849 98.992 54.4589 98.838C54.3375 98.6793 54.2769 98.467 54.2769 98.201C54.2769 98.0983 54.2955 97.9933 54.3329 97.886C54.3702 97.774 54.4262 97.6643 54.5009 97.557C54.5802 97.445 54.6759 97.34 54.7879 97.242C54.8999 97.144 55.0305 97.0577 55.1799 96.983C54.8299 96.787 54.5569 96.528 54.3609 96.206C54.1649 95.8793 54.0669 95.5013 54.0669 95.072C54.0669 94.7267 54.1322 94.414 54.2629 94.134C54.3982 93.8493 54.5849 93.609 54.8229 93.413C55.0609 93.2123 55.3432 93.0583 55.6699 92.951C56.0012 92.8437 56.3629 92.79 56.7549 92.79C57.0629 92.79 57.3499 92.825 57.6159 92.895C57.8819 92.9603 58.1245 93.0583 58.3439 93.189H60.2689ZM65.4003 96.808C64.8263 96.8267 64.3363 96.8733 63.9303 96.948C63.529 97.018 63.2 97.1113 62.9433 97.228C62.6913 97.3447 62.507 97.4823 62.3903 97.641C62.2783 97.7997 62.2223 97.977 62.2223 98.173C62.2223 98.3597 62.2526 98.5207 62.3133 98.656C62.374 98.7913 62.4556 98.9033 62.5583 98.992C62.6656 99.076 62.7893 99.139 62.9293 99.181C63.074 99.2183 63.228 99.237 63.3913 99.237C63.6106 99.237 63.8113 99.216 63.9933 99.174C64.1753 99.1273 64.3456 99.062 64.5043 98.978C64.6676 98.894 64.8216 98.7937 64.9663 98.677C65.1156 98.5603 65.2603 98.4273 65.4003 98.278V96.808ZM61.3753 93.91C61.7673 93.532 62.1896 93.2497 62.6423 93.063C63.095 92.8763 63.5966 92.783 64.1473 92.783C64.544 92.783 64.8963 92.8483 65.2043 92.979C65.5123 93.1097 65.7713 93.2917 65.9813 93.525C66.1913 93.7583 66.35 94.0407 66.4573 94.372C66.5646 94.7033 66.6183 95.0673 66.6183 95.464V100H66.0653C65.944 100 65.8506 99.9813 65.7853 99.944C65.72 99.902 65.6686 99.8227 65.6313 99.706L65.4913 99.034C65.3046 99.2067 65.1226 99.3607 64.9453 99.496C64.768 99.6267 64.5813 99.7387 64.3853 99.832C64.1893 99.9207 63.9793 99.9883 63.7553 100.035C63.536 100.086 63.291 100.112 63.0203 100.112C62.745 100.112 62.486 100.075 62.2433 100C62.0006 99.9207 61.7883 99.804 61.6063 99.65C61.429 99.496 61.2866 99.3023 61.1793 99.069C61.0766 98.831 61.0253 98.551 61.0253 98.229C61.0253 97.949 61.1023 97.6807 61.2563 97.424C61.4103 97.1627 61.66 96.9317 62.0053 96.731C62.3506 96.5303 62.801 96.367 63.3563 96.241C63.9116 96.1103 64.593 96.0357 65.4003 96.017V95.464C65.4003 94.9133 65.2813 94.498 65.0433 94.218C64.8053 93.9333 64.4576 93.791 64.0003 93.791C63.6923 93.791 63.4333 93.8307 63.2233 93.91C63.018 93.9847 62.8383 94.071 62.6843 94.169C62.535 94.2623 62.4043 94.3487 62.2923 94.428C62.185 94.5027 62.0776 94.54 61.9703 94.54C61.8863 94.54 61.814 94.519 61.7533 94.477C61.6926 94.4303 61.6413 94.3743 61.5993 94.309L61.3753 93.91ZM71.5053 92.797C72.0233 92.797 72.49 92.8833 72.9053 93.056C73.3206 93.2287 73.6753 93.4737 73.9693 93.791C74.2633 94.1083 74.4873 94.4933 74.6413 94.946C74.8 95.394 74.8793 95.8957 74.8793 96.451C74.8793 97.011 74.8 97.515 74.6413 97.963C74.4873 98.411 74.2633 98.7937 73.9693 99.111C73.6753 99.4283 73.3206 99.6733 72.9053 99.846C72.49 100.014 72.0233 100.098 71.5053 100.098C70.9826 100.098 70.5113 100.014 70.0913 99.846C69.676 99.6733 69.3213 99.4283 69.0273 99.111C68.7333 98.7937 68.507 98.411 68.3483 97.963C68.1943 97.515 68.1173 97.011 68.1173 96.451C68.1173 95.8957 68.1943 95.394 68.3483 94.946C68.507 94.4933 68.7333 94.1083 69.0273 93.791C69.3213 93.4737 69.676 93.2287 70.0913 93.056C70.5113 92.8833 70.9826 92.797 71.5053 92.797ZM71.5053 99.125C72.2053 99.125 72.728 98.8917 73.0733 98.425C73.4186 97.9537 73.5913 97.298 73.5913 96.458C73.5913 95.6133 73.4186 94.9553 73.0733 94.484C72.728 94.0127 72.2053 93.777 71.5053 93.777C71.1506 93.777 70.8403 93.8377 70.5743 93.959C70.313 94.0803 70.0936 94.2553 69.9163 94.484C69.7436 94.7127 69.613 94.995 69.5243 95.331C69.4403 95.6623 69.3983 96.038 69.3983 96.458C69.3983 97.298 69.571 97.9537 69.9163 98.425C70.2663 98.8917 70.796 99.125 71.5053 99.125ZM77.6357 93.938C77.7897 93.7653 77.953 93.609 78.1257 93.469C78.2983 93.329 78.4803 93.21 78.6717 93.112C78.8677 93.0093 79.073 92.9323 79.2877 92.881C79.507 92.825 79.7427 92.797 79.9947 92.797C80.382 92.797 80.7227 92.8623 81.0167 92.993C81.3153 93.119 81.5627 93.301 81.7587 93.539C81.9593 93.7723 82.111 94.0547 82.2137 94.386C82.3163 94.7173 82.3677 95.0837 82.3677 95.485V100H81.1147V95.485C81.1147 94.9483 80.991 94.533 80.7437 94.239C80.501 93.9403 80.13 93.791 79.6307 93.791C79.262 93.791 78.9167 93.8797 78.5947 94.057C78.2773 94.2343 77.9833 94.4747 77.7127 94.778V100H76.4597V92.909H77.2087C77.386 92.909 77.4957 92.9953 77.5377 93.168L77.6357 93.938ZM84.1893 101.694C84.152 101.661 84.1263 101.631 84.1123 101.603C84.0983 101.575 84.0913 101.54 84.0913 101.498C84.0913 101.465 84.1006 101.433 84.1193 101.4C84.1426 101.367 84.1683 101.337 84.1963 101.309C84.243 101.258 84.3013 101.19 84.3713 101.106C84.446 101.022 84.5206 100.922 84.5953 100.805C84.67 100.693 84.7376 100.567 84.7983 100.427C84.8636 100.292 84.9103 100.147 84.9383 99.993C84.9243 99.9977 84.908 100 84.8893 100C84.8753 100 84.8613 100 84.8473 100C84.6046 100 84.4063 99.9207 84.2523 99.762C84.103 99.5987 84.0283 99.391 84.0283 99.139C84.0283 98.9197 84.103 98.733 84.2523 98.579C84.4063 98.425 84.6093 98.348 84.8613 98.348C85.0013 98.348 85.125 98.3737 85.2323 98.425C85.3396 98.4763 85.4283 98.5487 85.4983 98.642C85.573 98.7307 85.629 98.8357 85.6663 98.957C85.7036 99.0737 85.7223 99.202 85.7223 99.342C85.7223 99.552 85.692 99.7713 85.6313 100C85.5753 100.224 85.489 100.446 85.3723 100.665C85.2603 100.889 85.1226 101.106 84.9593 101.316C84.796 101.526 84.6093 101.72 84.3993 101.897L84.1893 101.694ZM96.1764 96.276L94.6014 92.195C94.5547 92.0737 94.5057 91.9337 94.4544 91.775C94.403 91.6117 94.354 91.439 94.3074 91.257C94.2094 91.635 94.109 91.95 94.0064 92.202L92.4314 96.276H96.1764ZM99.0044 100H97.9544C97.833 100 97.735 99.9697 97.6604 99.909C97.5857 99.8483 97.5297 99.7713 97.4924 99.678L96.5544 97.256H92.0534L91.1154 99.678C91.0874 99.762 91.0337 99.8367 90.9544 99.902C90.875 99.9673 90.777 100 90.6604 100H89.6104L93.6214 89.969H94.9934L99.0044 100ZM101.186 94.33C101.41 93.8447 101.685 93.4667 102.012 93.196C102.338 92.9207 102.737 92.783 103.209 92.783C103.358 92.783 103.5 92.7993 103.636 92.832C103.776 92.8647 103.899 92.916 104.007 92.986L103.916 93.917C103.888 94.0337 103.818 94.092 103.706 94.092C103.64 94.092 103.545 94.078 103.419 94.05C103.293 94.022 103.15 94.008 102.992 94.008C102.768 94.008 102.567 94.0407 102.39 94.106C102.217 94.1713 102.061 94.2693 101.921 94.4C101.785 94.526 101.662 94.6847 101.55 94.876C101.442 95.0627 101.344 95.2773 101.256 95.52V100H100.003V92.909H100.717C100.852 92.909 100.945 92.9347 100.997 92.986C101.048 93.0373 101.083 93.126 101.102 93.252L101.186 94.33ZM106.285 94.33C106.509 93.8447 106.785 93.4667 107.111 93.196C107.438 92.9207 107.837 92.783 108.308 92.783C108.458 92.783 108.6 92.7993 108.735 92.832C108.875 92.8647 108.999 92.916 109.106 92.986L109.015 93.917C108.987 94.0337 108.917 94.092 108.805 94.092C108.74 94.092 108.644 94.078 108.518 94.05C108.392 94.022 108.25 94.008 108.091 94.008C107.867 94.008 107.667 94.0407 107.489 94.106C107.317 94.1713 107.16 94.2693 107.02 94.4C106.885 94.526 106.761 94.6847 106.649 94.876C106.542 95.0627 106.444 95.2773 106.355 95.52V100H105.102V92.909H105.816C105.952 92.909 106.045 92.9347 106.096 92.986C106.148 93.0373 106.183 93.126 106.201 93.252L106.285 94.33ZM113.935 96.808C113.361 96.8267 112.871 96.8733 112.465 96.948C112.064 97.018 111.735 97.1113 111.478 97.228C111.226 97.3447 111.042 97.4823 110.925 97.641C110.813 97.7997 110.757 97.977 110.757 98.173C110.757 98.3597 110.788 98.5207 110.848 98.656C110.909 98.7913 110.991 98.9033 111.093 98.992C111.201 99.076 111.324 99.139 111.464 99.181C111.609 99.2183 111.763 99.237 111.926 99.237C112.146 99.237 112.346 99.216 112.528 99.174C112.71 99.1273 112.881 99.062 113.039 98.978C113.203 98.894 113.357 98.7937 113.501 98.677C113.651 98.5603 113.795 98.4273 113.935 98.278V96.808ZM109.91 93.91C110.302 93.532 110.725 93.2497 111.177 93.063C111.63 92.8763 112.132 92.783 112.682 92.783C113.079 92.783 113.431 92.8483 113.739 92.979C114.047 93.1097 114.306 93.2917 114.516 93.525C114.726 93.7583 114.885 94.0407 114.992 94.372C115.1 94.7033 115.153 95.0673 115.153 95.464V100H114.6C114.479 100 114.386 99.9813 114.32 99.944C114.255 99.902 114.204 99.8227 114.166 99.706L114.026 99.034C113.84 99.2067 113.658 99.3607 113.48 99.496C113.303 99.6267 113.116 99.7387 112.92 99.832C112.724 99.9207 112.514 99.9883 112.29 100.035C112.071 100.086 111.826 100.112 111.555 100.112C111.28 100.112 111.021 100.075 110.778 100C110.536 99.9207 110.323 99.804 110.141 99.65C109.964 99.496 109.822 99.3023 109.714 99.069C109.612 98.831 109.56 98.551 109.56 98.229C109.56 97.949 109.637 97.6807 109.791 97.424C109.945 97.1627 110.195 96.9317 110.54 96.731C110.886 96.5303 111.336 96.367 111.891 96.241C112.447 96.1103 113.128 96.0357 113.935 96.017V95.464C113.935 94.9133 113.816 94.498 113.578 94.218C113.34 93.9333 112.993 93.791 112.535 93.791C112.227 93.791 111.968 93.8307 111.758 93.91C111.553 93.9847 111.373 94.071 111.219 94.169C111.07 94.2623 110.939 94.3487 110.827 94.428C110.72 94.5027 110.613 94.54 110.505 94.54C110.421 94.54 110.349 94.519 110.288 94.477C110.228 94.4303 110.176 94.3743 110.134 94.309L109.91 93.91ZM123.005 92.909L119.05 102.093C119.008 102.186 118.955 102.261 118.889 102.317C118.829 102.373 118.733 102.401 118.602 102.401H117.678L118.973 99.587L116.047 92.909H117.125C117.233 92.909 117.317 92.937 117.377 92.993C117.443 93.0443 117.487 93.1027 117.51 93.168L119.407 97.634C119.482 97.83 119.545 98.0353 119.596 98.25C119.662 98.0307 119.732 97.823 119.806 97.627L121.647 93.168C121.675 93.0933 121.722 93.0327 121.787 92.986C121.857 92.9347 121.934 92.909 122.018 92.909H123.005ZM134.682 97.928C134.757 97.928 134.822 97.9583 134.878 98.019L135.417 98.6C135.007 99.076 134.507 99.447 133.919 99.713C133.336 99.979 132.629 100.112 131.798 100.112C131.08 100.112 130.426 99.9883 129.838 99.741C129.25 99.489 128.749 99.139 128.333 98.691C127.918 98.2383 127.596 97.697 127.367 97.067C127.139 96.437 127.024 95.744 127.024 94.988C127.024 94.232 127.143 93.539 127.381 92.909C127.619 92.279 127.953 91.7377 128.382 91.285C128.816 90.8323 129.334 90.4823 129.936 90.235C130.538 89.983 131.203 89.857 131.931 89.857C132.645 89.857 133.275 89.9713 133.821 90.2C134.367 90.4287 134.848 90.739 135.263 91.131L134.815 91.754C134.787 91.8007 134.75 91.8403 134.703 91.873C134.661 91.901 134.603 91.915 134.528 91.915C134.444 91.915 134.342 91.8707 134.22 91.782C134.099 91.6887 133.94 91.586 133.744 91.474C133.548 91.362 133.303 91.2617 133.009 91.173C132.715 91.0797 132.354 91.033 131.924 91.033C131.406 91.033 130.933 91.124 130.503 91.306C130.074 91.4833 129.703 91.7423 129.39 92.083C129.082 92.4237 128.842 92.839 128.669 93.329C128.497 93.819 128.41 94.372 128.41 94.988C128.41 95.6133 128.499 96.171 128.676 96.661C128.858 97.151 129.103 97.5663 129.411 97.907C129.724 98.243 130.09 98.4997 130.51 98.677C130.935 98.8543 131.392 98.943 131.882 98.943C132.181 98.943 132.449 98.9267 132.687 98.894C132.93 98.8567 133.152 98.8007 133.352 98.726C133.558 98.6513 133.747 98.558 133.919 98.446C134.097 98.3293 134.272 98.1917 134.444 98.033C134.524 97.963 134.603 97.928 134.682 97.928ZM139.55 92.797C140.068 92.797 140.535 92.8833 140.95 93.056C141.366 93.2287 141.72 93.4737 142.014 93.791C142.308 94.1083 142.532 94.4933 142.686 94.946C142.845 95.394 142.924 95.8957 142.924 96.451C142.924 97.011 142.845 97.515 142.686 97.963C142.532 98.411 142.308 98.7937 142.014 99.111C141.72 99.4283 141.366 99.6733 140.95 99.846C140.535 100.014 140.068 100.098 139.55 100.098C139.028 100.098 138.556 100.014 138.136 99.846C137.721 99.6733 137.366 99.4283 137.072 99.111C136.778 98.7937 136.552 98.411 136.393 97.963C136.239 97.515 136.162 97.011 136.162 96.451C136.162 95.8957 136.239 95.394 136.393 94.946C136.552 94.4933 136.778 94.1083 137.072 93.791C137.366 93.4737 137.721 93.2287 138.136 93.056C138.556 92.8833 139.028 92.797 139.55 92.797ZM139.55 99.125C140.25 99.125 140.773 98.8917 141.118 98.425C141.464 97.9537 141.636 97.298 141.636 96.458C141.636 95.6133 141.464 94.9553 141.118 94.484C140.773 94.0127 140.25 93.777 139.55 93.777C139.196 93.777 138.885 93.8377 138.619 93.959C138.358 94.0803 138.139 94.2553 137.961 94.484C137.789 94.7127 137.658 94.995 137.569 95.331C137.485 95.6623 137.443 96.038 137.443 96.458C137.443 97.298 137.616 97.9537 137.961 98.425C138.311 98.8917 138.841 99.125 139.55 99.125ZM145.793 89.689V100H144.547V89.689H145.793ZM150.802 92.797C151.32 92.797 151.787 92.8833 152.202 93.056C152.618 93.2287 152.972 93.4737 153.266 93.791C153.56 94.1083 153.784 94.4933 153.938 94.946C154.097 95.394 154.176 95.8957 154.176 96.451C154.176 97.011 154.097 97.515 153.938 97.963C153.784 98.411 153.56 98.7937 153.266 99.111C152.972 99.4283 152.618 99.6733 152.202 99.846C151.787 100.014 151.32 100.098 150.802 100.098C150.28 100.098 149.808 100.014 149.388 99.846C148.973 99.6733 148.618 99.4283 148.324 99.111C148.03 98.7937 147.804 98.411 147.645 97.963C147.491 97.515 147.414 97.011 147.414 96.451C147.414 95.8957 147.491 95.394 147.645 94.946C147.804 94.4933 148.03 94.1083 148.324 93.791C148.618 93.4737 148.973 93.2287 149.388 93.056C149.808 92.8833 150.28 92.797 150.802 92.797ZM150.802 99.125C151.502 99.125 152.025 98.8917 152.37 98.425C152.716 97.9537 152.888 97.298 152.888 96.458C152.888 95.6133 152.716 94.9553 152.37 94.484C152.025 94.0127 151.502 93.777 150.802 93.777C150.448 93.777 150.137 93.8377 149.871 93.959C149.61 94.0803 149.391 94.2553 149.213 94.484C149.041 94.7127 148.91 94.995 148.821 95.331C148.737 95.6623 148.695 96.038 148.695 96.458C148.695 97.298 148.868 97.9537 149.213 98.425C149.563 98.8917 150.093 99.125 150.802 99.125ZM156.933 93.938C157.087 93.7653 157.25 93.609 157.423 93.469C157.595 93.329 157.777 93.21 157.969 93.112C158.165 93.0093 158.37 92.9323 158.585 92.881C158.804 92.825 159.04 92.797 159.292 92.797C159.679 92.797 160.02 92.8623 160.314 92.993C160.612 93.119 160.86 93.301 161.056 93.539C161.256 93.7723 161.408 94.0547 161.511 94.386C161.613 94.7173 161.665 95.0837 161.665 95.485V100H160.412V95.485C160.412 94.9483 160.288 94.533 160.041 94.239C159.798 93.9403 159.427 93.791 158.928 93.791C158.559 93.791 158.214 93.8797 157.892 94.057C157.574 94.2343 157.28 94.4747 157.01 94.778V100H155.757V92.909H156.506C156.683 92.909 156.793 92.9953 156.835 93.168L156.933 93.938ZM169.503 92.909L165.548 102.093C165.506 102.186 165.453 102.261 165.387 102.317C165.327 102.373 165.231 102.401 165.1 102.401H164.176L165.471 99.587L162.545 92.909H163.623C163.731 92.909 163.815 92.937 163.875 92.993C163.941 93.0443 163.985 93.1027 164.008 93.168L165.905 97.634C165.98 97.83 166.043 98.0353 166.094 98.25C166.16 98.0307 166.23 97.823 166.304 97.627L168.145 93.168C168.173 93.0933 168.22 93.0327 168.285 92.986C168.355 92.9347 168.432 92.909 168.516 92.909H169.503Z" fill="#030303"/>
<path d="M8.52 132.944H5.8C6.06667 133.115 6.27467 133.312 6.424 133.536C6.57333 133.755 6.68 133.995 6.744 134.256H8.52V135.776H6.736C6.61333 136.272 6.368 136.712 6 137.096C5.632 137.48 5.14933 137.779 4.552 137.992C4.71733 138.067 4.86933 138.165 5.008 138.288C5.152 138.411 5.28 138.557 5.392 138.728L8.288 143H6.344C5.98133 143 5.71467 142.856 5.544 142.568L3.112 138.864C3.02133 138.725 2.92 138.627 2.808 138.568C2.70133 138.509 2.54133 138.48 2.328 138.48H0.824V137.024H2.408C3.016 137.024 3.50133 136.909 3.864 136.68C4.232 136.451 4.49067 136.149 4.64 135.776H0.816V134.256H4.688C4.56 133.867 4.30933 133.563 3.936 133.344C3.568 133.12 3.06933 133.008 2.44 133.008H0.824V131.432H8.52V132.944ZM12.5136 135.632C12.7696 135.579 13.015 135.541 13.2496 135.52C13.4843 135.493 13.711 135.48 13.9296 135.48C14.5376 135.48 15.0736 135.571 15.5376 135.752C16.0016 135.933 16.391 136.184 16.7056 136.504C17.0203 136.824 17.2576 137.2 17.4176 137.632C17.5776 138.059 17.6576 138.52 17.6576 139.016C17.6576 139.629 17.5483 140.189 17.3296 140.696C17.1163 141.203 16.8176 141.637 16.4336 142C16.0496 142.357 15.5936 142.635 15.0656 142.832C14.543 143.029 13.9723 143.128 13.3536 143.128C12.991 143.128 12.647 143.091 12.3216 143.016C11.9963 142.941 11.6896 142.843 11.4016 142.72C11.119 142.592 10.855 142.448 10.6096 142.288C10.3696 142.123 10.1536 141.949 9.96163 141.768L10.5696 140.928C10.6976 140.747 10.8656 140.656 11.0736 140.656C11.207 140.656 11.343 140.699 11.4816 140.784C11.6203 140.869 11.7776 140.963 11.9536 141.064C12.135 141.165 12.3456 141.259 12.5856 141.344C12.831 141.429 13.1243 141.472 13.4656 141.472C13.8283 141.472 14.1483 141.413 14.4256 141.296C14.703 141.179 14.9323 141.016 15.1136 140.808C15.3003 140.595 15.439 140.344 15.5296 140.056C15.6256 139.763 15.6736 139.445 15.6736 139.104C15.6736 138.475 15.4896 137.984 15.1216 137.632C14.759 137.275 14.2203 137.096 13.5056 137.096C12.9563 137.096 12.3936 137.197 11.8176 137.4L10.5856 137.048L11.5456 131.432H17.2576V132.272C17.2576 132.555 17.1696 132.784 16.9936 132.96C16.8176 133.136 16.519 133.224 16.0976 133.224H12.9216L12.5136 135.632ZM27.4269 137.216C27.4269 138.224 27.3175 139.101 27.0989 139.848C26.8855 140.589 26.5869 141.203 26.2029 141.688C25.8242 142.173 25.3735 142.536 24.8509 142.776C24.3335 143.011 23.7735 143.128 23.1709 143.128C22.5682 143.128 22.0082 143.011 21.4909 142.776C20.9789 142.536 20.5335 142.173 20.1549 141.688C19.7762 141.203 19.4802 140.589 19.2669 139.848C19.0535 139.101 18.9469 138.224 18.9469 137.216C18.9469 136.203 19.0535 135.325 19.2669 134.584C19.4802 133.843 19.7762 133.229 20.1549 132.744C20.5335 132.259 20.9789 131.899 21.4909 131.664C22.0082 131.424 22.5682 131.304 23.1709 131.304C23.7735 131.304 24.3335 131.424 24.8509 131.664C25.3735 131.899 25.8242 132.259 26.2029 132.744C26.5869 133.229 26.8855 133.843 27.0989 134.584C27.3175 135.325 27.4269 136.203 27.4269 137.216ZM25.3869 137.216C25.3869 136.379 25.3255 135.685 25.2029 135.136C25.0802 134.587 24.9149 134.149 24.7069 133.824C24.5042 133.499 24.2695 133.272 24.0029 133.144C23.7362 133.011 23.4589 132.944 23.1709 132.944C22.8882 132.944 22.6135 133.011 22.3469 133.144C22.0855 133.272 21.8535 133.499 21.6509 133.824C21.4482 134.149 21.2855 134.587 21.1629 135.136C21.0455 135.685 20.9869 136.379 20.9869 137.216C20.9869 138.053 21.0455 138.747 21.1629 139.296C21.2855 139.845 21.4482 140.283 21.6509 140.608C21.8535 140.933 22.0855 141.163 22.3469 141.296C22.6135 141.424 22.8882 141.488 23.1709 141.488C23.4589 141.488 23.7362 141.424 24.0029 141.296C24.2695 141.163 24.5042 140.933 24.7069 140.608C24.9149 140.283 25.0802 139.845 25.2029 139.296C25.3255 138.747 25.3869 138.053 25.3869 137.216ZM36.7081 137.216C36.7081 138.224 36.5988 139.101 36.3801 139.848C36.1668 140.589 35.8681 141.203 35.4841 141.688C35.1055 142.173 34.6548 142.536 34.1321 142.776C33.6148 143.011 33.0548 143.128 32.4521 143.128C31.8495 143.128 31.2895 143.011 30.7721 142.776C30.2601 142.536 29.8148 142.173 29.4361 141.688C29.0575 141.203 28.7615 140.589 28.5481 139.848C28.3348 139.101 28.2281 138.224 28.2281 137.216C28.2281 136.203 28.3348 135.325 28.5481 134.584C28.7615 133.843 29.0575 133.229 29.4361 132.744C29.8148 132.259 30.2601 131.899 30.7721 131.664C31.2895 131.424 31.8495 131.304 32.4521 131.304C33.0548 131.304 33.6148 131.424 34.1321 131.664C34.6548 131.899 35.1055 132.259 35.4841 132.744C35.8681 133.229 36.1668 133.843 36.3801 134.584C36.5988 135.325 36.7081 136.203 36.7081 137.216ZM34.6681 137.216C34.6681 136.379 34.6068 135.685 34.4841 135.136C34.3615 134.587 34.1961 134.149 33.9881 133.824C33.7855 133.499 33.5508 133.272 33.2841 133.144C33.0175 133.011 32.7401 132.944 32.4521 132.944C32.1695 132.944 31.8948 133.011 31.6281 133.144C31.3668 133.272 31.1348 133.499 30.9321 133.824C30.7295 134.149 30.5668 134.587 30.4441 135.136C30.3268 135.685 30.2681 136.379 30.2681 137.216C30.2681 138.053 30.3268 138.747 30.4441 139.296C30.5668 139.845 30.7295 140.283 30.9321 140.608C31.1348 140.933 31.3668 141.163 31.6281 141.296C31.8948 141.424 32.1695 141.488 32.4521 141.488C32.7401 141.488 33.0175 141.424 33.2841 141.296C33.5508 141.163 33.7855 140.933 33.9881 140.608C34.1961 140.283 34.3615 139.845 34.4841 139.296C34.6068 138.747 34.6681 138.053 34.6681 137.216ZM45.9894 137.216C45.9894 138.224 45.88 139.101 45.6614 139.848C45.448 140.589 45.1494 141.203 44.7654 141.688C44.3867 142.173 43.936 142.536 43.4134 142.776C42.896 143.011 42.336 143.128 41.7334 143.128C41.1307 143.128 40.5707 143.011 40.0534 142.776C39.5414 142.536 39.096 142.173 38.7174 141.688C38.3387 141.203 38.0427 140.589 37.8294 139.848C37.616 139.101 37.5094 138.224 37.5094 137.216C37.5094 136.203 37.616 135.325 37.8294 134.584C38.0427 133.843 38.3387 133.229 38.7174 132.744C39.096 132.259 39.5414 131.899 40.0534 131.664C40.5707 131.424 41.1307 131.304 41.7334 131.304C42.336 131.304 42.896 131.424 43.4134 131.664C43.936 131.899 44.3867 132.259 44.7654 132.744C45.1494 133.229 45.448 133.843 45.6614 134.584C45.88 135.325 45.9894 136.203 45.9894 137.216ZM43.9494 137.216C43.9494 136.379 43.888 135.685 43.7654 135.136C43.6427 134.587 43.4774 134.149 43.2694 133.824C43.0667 133.499 42.832 133.272 42.5654 133.144C42.2987 133.011 42.0214 132.944 41.7334 132.944C41.4507 132.944 41.176 133.011 40.9094 133.144C40.648 133.272 40.416 133.499 40.2134 133.824C40.0107 134.149 39.848 134.587 39.7254 135.136C39.608 135.685 39.5494 136.379 39.5494 137.216C39.5494 138.053 39.608 138.747 39.7254 139.296C39.848 139.845 40.0107 140.283 40.2134 140.608C40.416 140.933 40.648 141.163 40.9094 141.296C41.176 141.424 41.4507 141.488 41.7334 141.488C42.0214 141.488 42.2987 141.424 42.5654 141.296C42.832 141.163 43.0667 140.933 43.2694 140.608C43.4774 140.283 43.6427 139.845 43.7654 139.296C43.888 138.747 43.9494 138.053 43.9494 137.216ZM48.7426 143.024C48.652 143.269 48.5053 143.453 48.3026 143.576C48.1053 143.699 47.9026 143.76 47.6946 143.76H46.8546L51.5266 131.808C51.612 131.584 51.7426 131.413 51.9186 131.296C52.0946 131.173 52.3 131.112 52.5346 131.112H53.3826L48.7426 143.024ZM71.5664 131.432V143H69.6704V135.528C69.6704 135.229 69.6864 134.907 69.7184 134.56L66.2224 141.128C66.057 141.443 65.8037 141.6 65.4624 141.6H65.1584C64.817 141.6 64.5637 141.443 64.3984 141.128L60.8624 134.536C60.8784 134.712 60.8917 134.885 60.9024 135.056C60.913 135.227 60.9184 135.384 60.9184 135.528V143H59.0224V131.432H60.6464C60.7424 131.432 60.825 131.435 60.8944 131.44C60.9637 131.445 61.025 131.459 61.0784 131.48C61.137 131.501 61.1877 131.536 61.2304 131.584C61.2784 131.632 61.3237 131.696 61.3664 131.776L64.8304 138.2C64.921 138.371 65.0037 138.547 65.0784 138.728C65.1584 138.909 65.2357 139.096 65.3104 139.288C65.385 139.091 65.4624 138.901 65.5424 138.72C65.6224 138.533 65.7077 138.355 65.7984 138.184L69.2144 131.776C69.257 131.696 69.3024 131.632 69.3504 131.584C69.3984 131.536 69.449 131.501 69.5024 131.48C69.561 131.459 69.625 131.445 69.6944 131.44C69.7637 131.435 69.8464 131.432 69.9424 131.432H71.5664ZM77.2174 134.664C77.8254 134.664 78.3774 134.763 78.8734 134.96C79.3747 135.157 79.8014 135.437 80.1534 135.8C80.5107 136.163 80.7854 136.605 80.9774 137.128C81.1694 137.651 81.2654 138.235 81.2654 138.88C81.2654 139.531 81.1694 140.117 80.9774 140.64C80.7854 141.163 80.5107 141.608 80.1534 141.976C79.8014 142.344 79.3747 142.627 78.8734 142.824C78.3774 143.021 77.8254 143.12 77.2174 143.12C76.604 143.12 76.0467 143.021 75.5454 142.824C75.044 142.627 74.6147 142.344 74.2574 141.976C73.9054 141.608 73.6307 141.163 73.4334 140.64C73.2414 140.117 73.1454 139.531 73.1454 138.88C73.1454 138.235 73.2414 137.651 73.4334 137.128C73.6307 136.605 73.9054 136.163 74.2574 135.8C74.6147 135.437 75.044 135.157 75.5454 134.96C76.0467 134.763 76.604 134.664 77.2174 134.664ZM77.2174 141.6C77.9 141.6 78.404 141.371 78.7294 140.912C79.06 140.453 79.2254 139.781 79.2254 138.896C79.2254 138.011 79.06 137.336 78.7294 136.872C78.404 136.408 77.9 136.176 77.2174 136.176C76.524 136.176 76.0094 136.411 75.6734 136.88C75.3427 137.344 75.1774 138.016 75.1774 138.896C75.1774 139.776 75.3427 140.448 75.6734 140.912C76.0094 141.371 76.524 141.6 77.2174 141.6ZM84.6209 135.8C84.7862 135.635 84.9595 135.483 85.1409 135.344C85.3275 135.2 85.5222 135.08 85.7249 134.984C85.9329 134.883 86.1542 134.805 86.3889 134.752C86.6235 134.693 86.8795 134.664 87.1569 134.664C87.6049 134.664 88.0022 134.741 88.3489 134.896C88.6955 135.045 88.9835 135.259 89.2129 135.536C89.4475 135.808 89.6235 136.136 89.7409 136.52C89.8635 136.899 89.9249 137.317 89.9249 137.776V143H87.9489V137.776C87.9489 137.275 87.8342 136.888 87.6049 136.616C87.3755 136.339 87.0262 136.2 86.5569 136.2C86.2155 136.2 85.8955 136.277 85.5969 136.432C85.2982 136.587 85.0155 136.797 84.7489 137.064V143H82.7729V134.792H83.9809C84.2369 134.792 84.4049 134.912 84.4849 135.152L84.6209 135.8ZM94.4308 143.128C93.7161 143.128 93.1668 142.928 92.7828 142.528C92.4041 142.123 92.2148 141.565 92.2148 140.856V136.272H91.3748C91.2681 136.272 91.1774 136.237 91.1028 136.168C91.0281 136.099 90.9908 135.995 90.9908 135.856V135.072L92.3108 134.856L92.7268 132.616C92.7534 132.509 92.8041 132.427 92.8788 132.368C92.9534 132.309 93.0494 132.28 93.1668 132.28H94.1908V134.864H96.3828V136.272H94.1908V140.72C94.1908 140.976 94.2521 141.176 94.3748 141.32C94.5028 141.464 94.6761 141.536 94.8948 141.536C95.0174 141.536 95.1188 141.523 95.1988 141.496C95.2841 141.464 95.3561 141.432 95.4148 141.4C95.4788 141.368 95.5348 141.339 95.5828 141.312C95.6308 141.28 95.6788 141.264 95.7268 141.264C95.7854 141.264 95.8334 141.28 95.8708 141.312C95.9081 141.339 95.9481 141.381 95.9908 141.44L96.5828 142.4C96.2948 142.64 95.9641 142.821 95.5908 142.944C95.2174 143.067 94.8308 143.128 94.4308 143.128ZM99.6239 135.672C99.9439 135.373 100.296 135.131 100.68 134.944C101.064 134.757 101.515 134.664 102.032 134.664C102.48 134.664 102.877 134.741 103.224 134.896C103.571 135.045 103.859 135.259 104.088 135.536C104.323 135.808 104.499 136.136 104.616 136.52C104.739 136.899 104.8 137.317 104.8 137.776V143H102.824V137.776C102.824 137.275 102.709 136.888 102.48 136.616C102.251 136.339 101.901 136.2 101.432 136.2C101.091 136.2 100.771 136.277 100.472 136.432C100.173 136.587 99.8905 136.797 99.6239 137.064V143H97.6479V131.112H99.6239V135.672Z" fill="#030303"/>
<path d="M6.318 158.242H4.08C4.36 158.39 4.57 158.572 4.71 158.788C4.854 159.004 4.948 159.25 4.992 159.526H6.318V160.36H4.98C4.9 160.796 4.698 161.174 4.374 161.494C4.054 161.814 3.628 162.044 3.096 162.184C3.268 162.276 3.416 162.41 3.54 162.586L6.048 166H5.01C4.802 166 4.648 165.918 4.548 165.754L2.316 162.682C2.248 162.586 2.174 162.518 2.094 162.478C2.018 162.434 1.898 162.412 1.734 162.412H0.726V161.608H1.854C2.418 161.608 2.868 161.494 3.204 161.266C3.544 161.038 3.764 160.736 3.864 160.36H0.714V159.526H3.888C3.812 159.126 3.608 158.818 3.276 158.602C2.944 158.382 2.486 158.272 1.902 158.272H0.726V157.402H6.318V158.242ZM12.8595 164.986C12.9755 164.986 13.0675 165.02 13.1355 165.088C13.2035 165.156 13.2375 165.244 13.2375 165.352V166H7.5015V165.634C7.5015 165.558 7.5175 165.48 7.5495 165.4C7.5815 165.32 7.6315 165.246 7.6995 165.178L10.4535 162.412C10.6815 162.18 10.8895 161.958 11.0775 161.746C11.2655 161.53 11.4255 161.314 11.5575 161.098C11.6895 160.882 11.7915 160.664 11.8635 160.444C11.9355 160.22 11.9715 159.982 11.9715 159.73C11.9715 159.478 11.9315 159.258 11.8515 159.07C11.7715 158.878 11.6615 158.72 11.5215 158.596C11.3855 158.472 11.2235 158.38 11.0355 158.32C10.8475 158.256 10.6455 158.224 10.4295 158.224C10.2095 158.224 10.0075 158.256 9.8235 158.32C9.6395 158.384 9.4755 158.474 9.3315 158.59C9.1915 158.702 9.0735 158.836 8.9775 158.992C8.8815 159.148 8.8135 159.32 8.7735 159.508C8.7255 159.648 8.6595 159.742 8.5755 159.79C8.4955 159.834 8.3815 159.846 8.2335 159.826L7.6755 159.73C7.7315 159.338 7.8395 158.992 7.9995 158.692C8.1635 158.388 8.3675 158.134 8.6115 157.93C8.8595 157.726 9.1415 157.572 9.4575 157.468C9.7735 157.36 10.1155 157.306 10.4835 157.306C10.8475 157.306 11.1875 157.36 11.5035 157.468C11.8195 157.576 12.0935 157.734 12.3255 157.942C12.5575 158.146 12.7395 158.396 12.8715 158.692C13.0035 158.988 13.0695 159.324 13.0695 159.7C13.0695 160.02 13.0215 160.318 12.9255 160.594C12.8295 160.866 12.6995 161.126 12.5355 161.374C12.3715 161.622 12.1815 161.864 11.9655 162.1C11.7535 162.336 11.5275 162.574 11.2875 162.814L9.0195 165.13C9.1795 165.086 9.3415 165.052 9.5055 165.028C9.6695 165 9.8275 164.986 9.9795 164.986H12.8595ZM20.4984 161.704C20.4984 162.456 20.4164 163.108 20.2524 163.66C20.0924 164.208 19.8724 164.662 19.5924 165.022C19.3124 165.382 18.9804 165.65 18.5964 165.826C18.2164 166.002 17.8084 166.09 17.3724 166.09C16.9324 166.09 16.5224 166.002 16.1424 165.826C15.7664 165.65 15.4384 165.382 15.1584 165.022C14.8784 164.662 14.6584 164.208 14.4984 163.66C14.3384 163.108 14.2584 162.456 14.2584 161.704C14.2584 160.952 14.3384 160.3 14.4984 159.748C14.6584 159.196 14.8784 158.74 15.1584 158.38C15.4384 158.016 15.7664 157.746 16.1424 157.57C16.5224 157.394 16.9324 157.306 17.3724 157.306C17.8084 157.306 18.2164 157.394 18.5964 157.57C18.9804 157.746 19.3124 158.016 19.5924 158.38C19.8724 158.74 20.0924 159.196 20.2524 159.748C20.4164 160.3 20.4984 160.952 20.4984 161.704ZM19.3884 161.704C19.3884 161.048 19.3324 160.498 19.2204 160.054C19.1124 159.606 18.9644 159.246 18.7764 158.974C18.5924 158.702 18.3784 158.508 18.1344 158.392C17.8904 158.272 17.6364 158.212 17.3724 158.212C17.1084 158.212 16.8544 158.272 16.6104 158.392C16.3664 158.508 16.1524 158.702 15.9684 158.974C15.7844 159.246 15.6364 159.606 15.5244 160.054C15.4164 160.498 15.3624 161.048 15.3624 161.704C15.3624 162.36 15.4164 162.91 15.5244 163.354C15.6364 163.798 15.7844 164.156 15.9684 164.428C16.1524 164.7 16.3664 164.896 16.6104 165.016C16.8544 165.132 17.1084 165.19 17.3724 165.19C17.6364 165.19 17.8904 165.132 18.1344 165.016C18.3784 164.896 18.5924 164.7 18.7764 164.428C18.9644 164.156 19.1124 163.798 19.2204 163.354C19.3324 162.91 19.3884 162.36 19.3884 161.704ZM21.6394 167.452C21.6074 167.424 21.5854 167.398 21.5734 167.374C21.5614 167.35 21.5554 167.32 21.5554 167.284C21.5554 167.256 21.5634 167.228 21.5794 167.2C21.5994 167.172 21.6214 167.146 21.6454 167.122C21.6854 167.078 21.7354 167.02 21.7954 166.948C21.8594 166.876 21.9234 166.79 21.9874 166.69C22.0514 166.594 22.1094 166.486 22.1614 166.366C22.2174 166.25 22.2574 166.126 22.2814 165.994C22.2694 165.998 22.2554 166 22.2394 166C22.2274 166 22.2154 166 22.2034 166C21.9954 166 21.8254 165.932 21.6934 165.796C21.5654 165.656 21.5014 165.478 21.5014 165.262C21.5014 165.074 21.5654 164.914 21.6934 164.782C21.8254 164.65 21.9994 164.584 22.2154 164.584C22.3354 164.584 22.4414 164.606 22.5334 164.65C22.6254 164.694 22.7014 164.756 22.7614 164.836C22.8254 164.912 22.8734 165.002 22.9054 165.106C22.9374 165.206 22.9534 165.316 22.9534 165.436C22.9534 165.616 22.9274 165.804 22.8754 166C22.8274 166.192 22.7534 166.382 22.6534 166.57C22.5574 166.762 22.4394 166.948 22.2994 167.128C22.1594 167.308 21.9994 167.474 21.8194 167.626L21.6394 167.452ZM30.1781 161.704C30.1781 162.456 30.0961 163.108 29.9321 163.66C29.7721 164.208 29.5521 164.662 29.2721 165.022C28.9921 165.382 28.6601 165.65 28.2761 165.826C27.8961 166.002 27.4881 166.09 27.0521 166.09C26.6121 166.09 26.2021 166.002 25.8221 165.826C25.4461 165.65 25.1181 165.382 24.8381 165.022C24.5581 164.662 24.3381 164.208 24.1781 163.66C24.0181 163.108 23.9381 162.456 23.9381 161.704C23.9381 160.952 24.0181 160.3 24.1781 159.748C24.3381 159.196 24.5581 158.74 24.8381 158.38C25.1181 158.016 25.4461 157.746 25.8221 157.57C26.2021 157.394 26.6121 157.306 27.0521 157.306C27.4881 157.306 27.8961 157.394 28.2761 157.57C28.6601 157.746 28.9921 158.016 29.2721 158.38C29.5521 158.74 29.7721 159.196 29.9321 159.748C30.0961 160.3 30.1781 160.952 30.1781 161.704ZM29.0681 161.704C29.0681 161.048 29.0121 160.498 28.9001 160.054C28.7921 159.606 28.6441 159.246 28.4561 158.974C28.2721 158.702 28.0581 158.508 27.8141 158.392C27.5701 158.272 27.3161 158.212 27.0521 158.212C26.7881 158.212 26.5341 158.272 26.2901 158.392C26.0461 158.508 25.8321 158.702 25.6481 158.974C25.4641 159.246 25.3161 159.606 25.2041 160.054C25.0961 160.498 25.0421 161.048 25.0421 161.704C25.0421 162.36 25.0961 162.91 25.2041 163.354C25.3161 163.798 25.4641 164.156 25.6481 164.428C25.8321 164.7 26.0461 164.896 26.2901 165.016C26.5341 165.132 26.7881 165.19 27.0521 165.19C27.3161 165.19 27.5701 165.132 27.8141 165.016C28.0581 164.896 28.2721 164.7 28.4561 164.428C28.6441 164.156 28.7921 163.798 28.9001 163.354C29.0121 162.91 29.0681 162.36 29.0681 161.704ZM37.1391 161.704C37.1391 162.456 37.0571 163.108 36.8931 163.66C36.7331 164.208 36.5131 164.662 36.2331 165.022C35.9531 165.382 35.6211 165.65 35.2371 165.826C34.8571 166.002 34.4491 166.09 34.0131 166.09C33.5731 166.09 33.1631 166.002 32.7831 165.826C32.4071 165.65 32.0791 165.382 31.7991 165.022C31.5191 164.662 31.2991 164.208 31.1391 163.66C30.9791 163.108 30.8991 162.456 30.8991 161.704C30.8991 160.952 30.9791 160.3 31.1391 159.748C31.2991 159.196 31.5191 158.74 31.7991 158.38C32.0791 158.016 32.4071 157.746 32.7831 157.57C33.1631 157.394 33.5731 157.306 34.0131 157.306C34.4491 157.306 34.8571 157.394 35.2371 157.57C35.6211 157.746 35.9531 158.016 36.2331 158.38C36.5131 158.74 36.7331 159.196 36.8931 159.748C37.0571 160.3 37.1391 160.952 37.1391 161.704ZM36.0291 161.704C36.0291 161.048 35.9731 160.498 35.8611 160.054C35.7531 159.606 35.6051 159.246 35.4171 158.974C35.2331 158.702 35.0191 158.508 34.7751 158.392C34.5311 158.272 34.2771 158.212 34.0131 158.212C33.7491 158.212 33.4951 158.272 33.2511 158.392C33.0071 158.508 32.7931 158.702 32.6091 158.974C32.4251 159.246 32.2771 159.606 32.1651 160.054C32.0571 160.498 32.0031 161.048 32.0031 161.704C32.0031 162.36 32.0571 162.91 32.1651 163.354C32.2771 163.798 32.4251 164.156 32.6091 164.428C32.7931 164.7 33.0071 164.896 33.2511 165.016C33.4951 165.132 33.7491 165.19 34.0131 165.19C34.2771 165.19 34.5311 165.132 34.7751 165.016C35.0191 164.896 35.2331 164.7 35.4171 164.428C35.6051 164.156 35.7531 163.798 35.8611 163.354C35.9731 162.91 36.0291 162.36 36.0291 161.704ZM44.1 161.704C44.1 162.456 44.018 163.108 43.854 163.66C43.694 164.208 43.474 164.662 43.194 165.022C42.914 165.382 42.582 165.65 42.198 165.826C41.818 166.002 41.41 166.09 40.974 166.09C40.534 166.09 40.124 166.002 39.744 165.826C39.368 165.65 39.04 165.382 38.76 165.022C38.48 164.662 38.26 164.208 38.1 163.66C37.94 163.108 37.86 162.456 37.86 161.704C37.86 160.952 37.94 160.3 38.1 159.748C38.26 159.196 38.48 158.74 38.76 158.38C39.04 158.016 39.368 157.746 39.744 157.57C40.124 157.394 40.534 157.306 40.974 157.306C41.41 157.306 41.818 157.394 42.198 157.57C42.582 157.746 42.914 158.016 43.194 158.38C43.474 158.74 43.694 159.196 43.854 159.748C44.018 160.3 44.1 160.952 44.1 161.704ZM42.99 161.704C42.99 161.048 42.934 160.498 42.822 160.054C42.714 159.606 42.566 159.246 42.378 158.974C42.194 158.702 41.98 158.508 41.736 158.392C41.492 158.272 41.238 158.212 40.974 158.212C40.71 158.212 40.456 158.272 40.212 158.392C39.968 158.508 39.754 158.702 39.57 158.974C39.386 159.246 39.238 159.606 39.126 160.054C39.018 160.498 38.964 161.048 38.964 161.704C38.964 162.36 39.018 162.91 39.126 163.354C39.238 163.798 39.386 164.156 39.57 164.428C39.754 164.7 39.968 164.896 40.212 165.016C40.456 165.132 40.71 165.19 40.974 165.19C41.238 165.19 41.492 165.132 41.736 165.016C41.98 164.896 42.194 164.7 42.378 164.428C42.566 164.156 42.714 163.798 42.822 163.354C42.934 162.91 42.99 162.36 42.99 161.704ZM56.0813 161.704C56.0813 162.348 55.9793 162.934 55.7753 163.462C55.5713 163.99 55.2833 164.442 54.9113 164.818C54.5393 165.194 54.0913 165.486 53.5673 165.694C53.0473 165.898 52.4713 166 51.8393 166H48.6293V157.402H51.8393C52.4713 157.402 53.0473 157.506 53.5673 157.714C54.0913 157.918 54.5393 158.21 54.9113 158.59C55.2833 158.966 55.5713 159.418 55.7753 159.946C55.9793 160.474 56.0813 161.06 56.0813 161.704ZM54.8873 161.704C54.8873 161.176 54.8153 160.704 54.6713 160.288C54.5273 159.872 54.3233 159.52 54.0593 159.232C53.7953 158.944 53.4753 158.724 53.0993 158.572C52.7233 158.42 52.3033 158.344 51.8393 158.344H49.7933V165.058H51.8393C52.3033 165.058 52.7233 164.982 53.0993 164.83C53.4753 164.678 53.7953 164.46 54.0593 164.176C54.3233 163.888 54.5273 163.536 54.6713 163.12C54.8153 162.704 54.8873 162.232 54.8873 161.704ZM59.9861 159.826C60.4301 159.826 60.8301 159.9 61.1861 160.048C61.5421 160.196 61.8461 160.406 62.0981 160.678C62.3501 160.95 62.5421 161.28 62.6741 161.668C62.8101 162.052 62.8781 162.482 62.8781 162.958C62.8781 163.438 62.8101 163.87 62.6741 164.254C62.5421 164.638 62.3501 164.966 62.0981 165.238C61.8461 165.51 61.5421 165.72 61.1861 165.868C60.8301 166.012 60.4301 166.084 59.9861 166.084C59.5381 166.084 59.1341 166.012 58.7741 165.868C58.4181 165.72 58.1141 165.51 57.8621 165.238C57.6101 164.966 57.4161 164.638 57.2801 164.254C57.1481 163.87 57.0821 163.438 57.0821 162.958C57.0821 162.482 57.1481 162.052 57.2801 161.668C57.4161 161.28 57.6101 160.95 57.8621 160.678C58.1141 160.406 58.4181 160.196 58.7741 160.048C59.1341 159.9 59.5381 159.826 59.9861 159.826ZM59.9861 165.25C60.5861 165.25 61.0341 165.05 61.3301 164.65C61.6261 164.246 61.7741 163.684 61.7741 162.964C61.7741 162.24 61.6261 161.676 61.3301 161.272C61.0341 160.868 60.5861 160.666 59.9861 160.666C59.6821 160.666 59.4161 160.718 59.1881 160.822C58.9641 160.926 58.7761 161.076 58.6241 161.272C58.4761 161.468 58.3641 161.71 58.2881 161.998C58.2161 162.282 58.1801 162.604 58.1801 162.964C58.1801 163.684 58.3281 164.246 58.6241 164.65C58.9241 165.05 59.3781 165.25 59.9861 165.25ZM72.521 159.922L70.553 166H69.707C69.603 166 69.531 165.932 69.491 165.796L68.147 161.674C68.115 161.582 68.089 161.49 68.069 161.398C68.049 161.302 68.029 161.208 68.009 161.116C67.989 161.208 67.969 161.302 67.949 161.398C67.929 161.49 67.903 161.584 67.871 161.68L66.503 165.796C66.467 165.932 66.387 166 66.263 166H65.459L63.491 159.922H64.331C64.415 159.922 64.485 159.944 64.541 159.988C64.601 160.032 64.641 160.084 64.661 160.144L65.825 164.056C65.893 164.344 65.947 164.616 65.987 164.872C66.023 164.74 66.059 164.606 66.095 164.47C66.135 164.334 66.177 164.196 66.221 164.056L67.505 160.12C67.525 160.06 67.559 160.01 67.607 159.97C67.659 159.93 67.721 159.91 67.793 159.91H68.261C68.341 159.91 68.407 159.93 68.459 159.97C68.511 160.01 68.547 160.06 68.567 160.12L69.821 164.056C69.865 164.196 69.905 164.334 69.941 164.47C69.977 164.606 70.011 164.74 70.043 164.872C70.063 164.74 70.087 164.608 70.115 164.476C70.147 164.34 70.181 164.2 70.217 164.056L71.405 160.144C71.425 160.08 71.463 160.028 71.519 159.988C71.575 159.944 71.641 159.922 71.717 159.922H72.521ZM74.5688 160.804C74.7008 160.656 74.8408 160.522 74.9888 160.402C75.1368 160.282 75.2928 160.18 75.4568 160.096C75.6248 160.008 75.8008 159.942 75.9848 159.898C76.1728 159.85 76.3748 159.826 76.5908 159.826C76.9228 159.826 77.2148 159.882 77.4668 159.994C77.7228 160.102 77.9348 160.258 78.1028 160.462C78.2748 160.662 78.4048 160.904 78.4928 161.188C78.5808 161.472 78.6248 161.786 78.6248 162.13V166H77.5508V162.13C77.5508 161.67 77.4448 161.314 77.2328 161.062C77.0248 160.806 76.7068 160.678 76.2788 160.678C75.9628 160.678 75.6668 160.754 75.3908 160.906C75.1188 161.058 74.8668 161.264 74.6348 161.524V166H73.5608V159.922H74.2028C74.3548 159.922 74.4488 159.996 74.4848 160.144L74.5688 160.804ZM81.3263 164.536C81.5223 164.8 81.7363 164.986 81.9683 165.094C82.2003 165.202 82.4603 165.256 82.7483 165.256C83.3163 165.256 83.7523 165.054 84.0563 164.65C84.3603 164.246 84.5123 163.67 84.5123 162.922C84.5123 162.526 84.4763 162.186 84.4043 161.902C84.3363 161.618 84.2363 161.386 84.1043 161.206C83.9723 161.022 83.8103 160.888 83.6183 160.804C83.4263 160.72 83.2083 160.678 82.9643 160.678C82.6163 160.678 82.3103 160.758 82.0463 160.918C81.7863 161.078 81.5463 161.304 81.3263 161.596V164.536ZM81.2723 160.864C81.5283 160.548 81.8243 160.294 82.1603 160.102C82.4963 159.91 82.8803 159.814 83.3123 159.814C83.6643 159.814 83.9823 159.882 84.2663 160.018C84.5503 160.15 84.7923 160.348 84.9923 160.612C85.1923 160.872 85.3463 161.196 85.4543 161.584C85.5623 161.972 85.6163 162.418 85.6163 162.922C85.6163 163.37 85.5563 163.788 85.4362 164.176C85.3163 164.56 85.1423 164.894 84.9143 165.178C84.6903 165.458 84.4143 165.68 84.0863 165.844C83.7623 166.004 83.3963 166.084 82.9883 166.084C82.6163 166.084 82.2963 166.022 82.0283 165.898C81.7643 165.77 81.5303 165.594 81.3263 165.37V168.058H80.2523V159.922H80.8943C81.0463 159.922 81.1403 159.996 81.1763 160.144L81.2723 160.864ZM90.2728 163.264C89.7808 163.28 89.3608 163.32 89.0128 163.384C88.6688 163.444 88.3868 163.524 88.1668 163.624C87.9508 163.724 87.7928 163.842 87.6928 163.978C87.5968 164.114 87.5488 164.266 87.5488 164.434C87.5488 164.594 87.5748 164.732 87.6268 164.848C87.6788 164.964 87.7488 165.06 87.8368 165.136C87.9288 165.208 88.0348 165.262 88.1548 165.298C88.2788 165.33 88.4108 165.346 88.5508 165.346C88.7388 165.346 88.9108 165.328 89.0668 165.292C89.2228 165.252 89.3688 165.196 89.5048 165.124C89.6448 165.052 89.7768 164.966 89.9008 164.866C90.0288 164.766 90.1528 164.652 90.2728 164.524V163.264ZM86.8228 160.78C87.1588 160.456 87.5208 160.214 87.9088 160.054C88.2968 159.894 88.7268 159.814 89.1988 159.814C89.5388 159.814 89.8408 159.87 90.1048 159.982C90.3688 160.094 90.5908 160.25 90.7708 160.45C90.9508 160.65 91.0868 160.892 91.1788 161.176C91.2708 161.46 91.3168 161.772 91.3168 162.112V166H90.8428C90.7388 166 90.6588 165.984 90.6028 165.952C90.5468 165.916 90.5028 165.848 90.4708 165.748L90.3508 165.172C90.1908 165.32 90.0348 165.452 89.8828 165.568C89.7308 165.68 89.5708 165.776 89.4028 165.856C89.2348 165.932 89.0548 165.99 88.8628 166.03C88.6748 166.074 88.4648 166.096 88.2328 166.096C87.9968 166.096 87.7748 166.064 87.5668 166C87.3588 165.932 87.1768 165.832 87.0208 165.7C86.8688 165.568 86.7468 165.402 86.6548 165.202C86.5668 164.998 86.5228 164.758 86.5228 164.482C86.5228 164.242 86.5888 164.012 86.7208 163.792C86.8528 163.568 87.0668 163.37 87.3628 163.198C87.6588 163.026 88.0448 162.886 88.5208 162.778C88.9968 162.666 89.5808 162.602 90.2728 162.586V162.112C90.2728 161.64 90.1708 161.284 89.9668 161.044C89.7628 160.8 89.4648 160.678 89.0728 160.678C88.8088 160.678 88.5868 160.712 88.4068 160.78C88.2308 160.844 88.0768 160.918 87.9448 161.002C87.8168 161.082 87.7048 161.156 87.6088 161.224C87.5168 161.288 87.4248 161.32 87.3328 161.32C87.2608 161.32 87.1988 161.302 87.1468 161.266C87.0948 161.226 87.0508 161.178 87.0148 161.122L86.8228 160.78ZM98.047 159.922L94.657 167.794C94.621 167.874 94.575 167.938 94.519 167.986C94.467 168.034 94.385 168.058 94.273 168.058H93.481L94.591 165.646L92.083 159.922H93.007C93.099 159.922 93.171 159.946 93.223 159.994C93.279 160.038 93.317 160.088 93.337 160.144L94.963 163.972C95.027 164.14 95.081 164.316 95.125 164.5C95.181 164.312 95.241 164.134 95.305 163.966L96.883 160.144C96.907 160.08 96.947 160.028 97.003 159.988C97.063 159.944 97.129 159.922 97.201 159.922H98.047ZM98.9905 166V159.922H99.6325C99.7845 159.922 99.8785 159.996 99.9145 160.144L99.9925 160.768C100.217 160.492 100.469 160.266 100.749 160.09C101.029 159.914 101.353 159.826 101.721 159.826C102.129 159.826 102.459 159.94 102.711 160.168C102.967 160.396 103.151 160.704 103.263 161.092C103.351 160.872 103.463 160.682 103.599 160.522C103.739 160.362 103.895 160.23 104.067 160.126C104.239 160.022 104.421 159.946 104.613 159.898C104.809 159.85 105.007 159.826 105.207 159.826C105.527 159.826 105.811 159.878 106.059 159.982C106.311 160.082 106.523 160.23 106.695 160.426C106.871 160.622 107.005 160.864 107.097 161.152C107.189 161.436 107.235 161.762 107.235 162.13V166H106.161V162.13C106.161 161.654 106.057 161.294 105.849 161.05C105.641 160.802 105.341 160.678 104.949 160.678C104.773 160.678 104.605 160.71 104.445 160.774C104.289 160.834 104.151 160.924 104.031 161.044C103.911 161.164 103.815 161.316 103.743 161.5C103.675 161.68 103.641 161.89 103.641 162.13V166H102.567V162.13C102.567 161.642 102.469 161.278 102.273 161.038C102.077 160.798 101.791 160.678 101.415 160.678C101.151 160.678 100.907 160.75 100.683 160.894C100.459 161.034 100.253 161.226 100.065 161.47V166H98.9905ZM112.926 162.298C112.926 162.05 112.89 161.824 112.818 161.62C112.75 161.412 112.648 161.234 112.512 161.086C112.38 160.934 112.218 160.818 112.026 160.738C111.834 160.654 111.616 160.612 111.372 160.612C110.86 160.612 110.454 160.762 110.154 161.062C109.858 161.358 109.674 161.77 109.602 162.298H112.926ZM113.79 165.148C113.658 165.308 113.5 165.448 113.316 165.568C113.132 165.684 112.934 165.78 112.722 165.856C112.514 165.932 112.298 165.988 112.074 166.024C111.85 166.064 111.628 166.084 111.408 166.084C110.988 166.084 110.6 166.014 110.244 165.874C109.892 165.73 109.586 165.522 109.326 165.25C109.07 164.974 108.87 164.634 108.726 164.23C108.582 163.826 108.51 163.362 108.51 162.838C108.51 162.414 108.574 162.018 108.702 161.65C108.834 161.282 109.022 160.964 109.266 160.696C109.51 160.424 109.808 160.212 110.16 160.06C110.512 159.904 110.908 159.826 111.348 159.826C111.712 159.826 112.048 159.888 112.356 160.012C112.668 160.132 112.936 160.308 113.16 160.54C113.388 160.768 113.566 161.052 113.694 161.392C113.822 161.728 113.886 162.112 113.886 162.544C113.886 162.712 113.868 162.824 113.832 162.88C113.796 162.936 113.728 162.964 113.628 162.964H109.566C109.578 163.348 109.63 163.682 109.722 163.966C109.818 164.25 109.95 164.488 110.118 164.68C110.286 164.868 110.486 165.01 110.718 165.106C110.95 165.198 111.21 165.244 111.498 165.244C111.766 165.244 111.996 165.214 112.188 165.154C112.384 165.09 112.552 165.022 112.692 164.95C112.832 164.878 112.948 164.812 113.04 164.752C113.136 164.688 113.218 164.656 113.286 164.656C113.374 164.656 113.442 164.69 113.49 164.758L113.79 165.148ZM116.206 160.804C116.338 160.656 116.478 160.522 116.626 160.402C116.774 160.282 116.93 160.18 117.094 160.096C117.262 160.008 117.438 159.942 117.622 159.898C117.81 159.85 118.012 159.826 118.228 159.826C118.56 159.826 118.852 159.882 119.104 159.994C119.36 160.102 119.572 160.258 119.74 160.462C119.912 160.662 120.042 160.904 120.13 161.188C120.218 161.472 120.262 161.786 120.262 162.13V166H119.188V162.13C119.188 161.67 119.082 161.314 118.87 161.062C118.662 160.806 118.344 160.678 117.916 160.678C117.6 160.678 117.304 160.754 117.028 160.906C116.756 161.058 116.504 161.264 116.272 161.524V166H115.198V159.922H115.84C115.992 159.922 116.086 159.996 116.122 160.144L116.206 160.804ZM123.673 166.096C123.193 166.096 122.823 165.962 122.563 165.694C122.307 165.426 122.179 165.04 122.179 164.536V160.816H121.447C121.383 160.816 121.329 160.798 121.285 160.762C121.241 160.722 121.219 160.662 121.219 160.582V160.156L122.215 160.03L122.461 158.152C122.473 158.092 122.499 158.044 122.539 158.008C122.583 157.968 122.639 157.948 122.707 157.948H123.247V160.042H125.005V160.816H123.247V164.464C123.247 164.72 123.309 164.91 123.433 165.034C123.557 165.158 123.717 165.22 123.913 165.22C124.025 165.22 124.121 165.206 124.201 165.178C124.285 165.146 124.357 165.112 124.417 165.076C124.477 165.04 124.527 165.008 124.567 164.98C124.611 164.948 124.649 164.932 124.681 164.932C124.737 164.932 124.787 164.966 124.831 165.034L125.143 165.544C124.959 165.716 124.737 165.852 124.477 165.952C124.217 166.048 123.949 166.096 123.673 166.096Z" fill="#030303"/>
<g filter="url(#filter0_d_1_88)">
<rect x="242" y="130" width="114" height="35" rx="17.5" fill="#E5DFFF" shape-rendering="crispEdges"/>
<rect x="242.5" y="130.5" width="113" height="34" rx="17" stroke="#7B61FF" shape-rendering="crispEdges"/>
<path d="M265.2 142.432L260.528 154H258.584L253.912 142.432H255.64C255.827 142.432 255.979 142.477 256.096 142.568C256.213 142.659 256.301 142.776 256.36 142.92L259.088 149.976C259.179 150.205 259.264 150.459 259.344 150.736C259.429 151.008 259.509 151.293 259.584 151.592C259.648 151.293 259.717 151.008 259.792 150.736C259.867 150.459 259.949 150.205 260.04 149.976L262.752 142.92C262.795 142.797 262.877 142.685 263 142.584C263.128 142.483 263.283 142.432 263.464 142.432H265.2ZM268.133 145.792V154H266.149V145.792H268.133ZM268.405 143.4C268.405 143.571 268.371 143.731 268.301 143.88C268.232 144.029 268.139 144.16 268.021 144.272C267.909 144.384 267.776 144.475 267.621 144.544C267.467 144.608 267.301 144.64 267.125 144.64C266.955 144.64 266.792 144.608 266.637 144.544C266.488 144.475 266.357 144.384 266.245 144.272C266.133 144.16 266.043 144.029 265.973 143.88C265.909 143.731 265.877 143.571 265.877 143.4C265.877 143.224 265.909 143.059 265.973 142.904C266.043 142.749 266.133 142.616 266.245 142.504C266.357 142.392 266.488 142.304 266.637 142.24C266.792 142.171 266.955 142.136 267.125 142.136C267.301 142.136 267.467 142.171 267.621 142.24C267.776 142.304 267.909 142.392 268.021 142.504C268.139 142.616 268.232 142.749 268.301 142.904C268.371 143.059 268.405 143.224 268.405 143.4ZM275.436 148.952C275.436 148.696 275.399 148.456 275.324 148.232C275.255 148.003 275.148 147.803 275.004 147.632C274.86 147.461 274.676 147.328 274.452 147.232C274.233 147.131 273.977 147.08 273.684 147.08C273.113 147.08 272.663 147.243 272.332 147.568C272.007 147.893 271.799 148.355 271.708 148.952H275.436ZM271.668 150.144C271.7 150.565 271.775 150.931 271.892 151.24C272.009 151.544 272.164 151.797 272.356 152C272.548 152.197 272.775 152.347 273.036 152.448C273.303 152.544 273.596 152.592 273.916 152.592C274.236 152.592 274.511 152.555 274.74 152.48C274.975 152.405 275.177 152.323 275.348 152.232C275.524 152.141 275.676 152.059 275.804 151.984C275.937 151.909 276.065 151.872 276.188 151.872C276.353 151.872 276.476 151.933 276.556 152.056L277.124 152.776C276.905 153.032 276.66 153.248 276.388 153.424C276.116 153.595 275.831 153.733 275.532 153.84C275.239 153.941 274.937 154.013 274.628 154.056C274.324 154.099 274.028 154.12 273.74 154.12C273.169 154.12 272.639 154.027 272.148 153.84C271.657 153.648 271.231 153.368 270.868 153C270.505 152.627 270.22 152.168 270.012 151.624C269.804 151.075 269.7 150.44 269.7 149.72C269.7 149.16 269.791 148.635 269.972 148.144C270.153 147.648 270.412 147.219 270.748 146.856C271.089 146.488 271.503 146.197 271.988 145.984C272.479 145.771 273.031 145.664 273.644 145.664C274.161 145.664 274.639 145.747 275.076 145.912C275.513 146.077 275.889 146.32 276.204 146.64C276.519 146.955 276.764 147.344 276.94 147.808C277.121 148.267 277.212 148.792 277.212 149.384C277.212 149.683 277.18 149.885 277.116 149.992C277.052 150.093 276.929 150.144 276.748 150.144H271.668ZM290.305 145.792L287.697 154H286.113C285.932 154 285.807 153.883 285.737 153.648L284.265 148.904C284.217 148.744 284.172 148.587 284.129 148.432C284.092 148.272 284.06 148.112 284.033 147.952C284.001 148.112 283.964 148.275 283.921 148.44C283.884 148.6 283.841 148.76 283.793 148.92L282.297 153.648C282.233 153.883 282.092 154 281.873 154H280.353L277.753 145.792H279.329C279.473 145.792 279.596 145.827 279.697 145.896C279.799 145.965 279.865 146.053 279.897 146.16L281.073 150.544C281.132 150.784 281.183 151.019 281.225 151.248C281.273 151.477 281.313 151.707 281.345 151.936C281.404 151.707 281.465 151.477 281.529 151.248C281.599 151.019 281.671 150.784 281.745 150.544L283.105 146.144C283.137 146.037 283.199 145.949 283.289 145.88C283.385 145.811 283.5 145.776 283.633 145.776H284.505C284.644 145.776 284.761 145.811 284.857 145.88C284.959 145.949 285.025 146.037 285.057 146.144L286.377 150.544C286.447 150.784 286.511 151.021 286.569 151.256C286.633 151.485 286.695 151.715 286.753 151.944C286.823 151.491 286.921 151.024 287.049 150.544L288.257 146.16C288.295 146.053 288.361 145.965 288.457 145.896C288.553 145.827 288.668 145.792 288.801 145.792H290.305ZM305.576 148.216C305.576 149.064 305.434 149.843 305.152 150.552C304.869 151.261 304.472 151.872 303.96 152.384C303.448 152.896 302.832 153.293 302.112 153.576C301.392 153.859 300.592 154 299.712 154H295.304V142.432H299.712C300.592 142.432 301.392 142.576 302.112 142.864C302.832 143.147 303.448 143.544 303.96 144.056C304.472 144.563 304.869 145.171 305.152 145.88C305.434 146.589 305.576 147.368 305.576 148.216ZM303.368 148.216C303.368 147.581 303.282 147.013 303.112 146.512C302.946 146.005 302.704 145.579 302.384 145.232C302.069 144.88 301.685 144.611 301.232 144.424C300.784 144.237 300.277 144.144 299.712 144.144H297.464V152.288H299.712C300.277 152.288 300.784 152.195 301.232 152.008C301.685 151.821 302.069 151.555 302.384 151.208C302.704 150.856 302.946 150.429 303.112 149.928C303.282 149.421 303.368 148.851 303.368 148.216ZM312.342 148.952C312.342 148.696 312.305 148.456 312.23 148.232C312.161 148.003 312.054 147.803 311.91 147.632C311.766 147.461 311.582 147.328 311.358 147.232C311.139 147.131 310.883 147.08 310.59 147.08C310.019 147.08 309.569 147.243 309.238 147.568C308.913 147.893 308.705 148.355 308.614 148.952H312.342ZM308.574 150.144C308.606 150.565 308.681 150.931 308.798 151.24C308.915 151.544 309.07 151.797 309.262 152C309.454 152.197 309.681 152.347 309.942 152.448C310.209 152.544 310.502 152.592 310.822 152.592C311.142 152.592 311.417 152.555 311.646 152.48C311.881 152.405 312.083 152.323 312.254 152.232C312.43 152.141 312.582 152.059 312.71 151.984C312.843 151.909 312.971 151.872 313.094 151.872C313.259 151.872 313.382 151.933 313.462 152.056L314.03 152.776C313.811 153.032 313.566 153.248 313.294 153.424C313.022 153.595 312.737 153.733 312.438 153.84C312.145 153.941 311.843 154.013 311.534 154.056C311.23 154.099 310.934 154.12 310.646 154.12C310.075 154.12 309.545 154.027 309.054 153.84C308.563 153.648 308.137 153.368 307.774 153C307.411 152.627 307.126 152.168 306.918 151.624C306.71 151.075 306.606 150.44 306.606 149.72C306.606 149.16 306.697 148.635 306.878 148.144C307.059 147.648 307.318 147.219 307.654 146.856C307.995 146.488 308.409 146.197 308.894 145.984C309.385 145.771 309.937 145.664 310.55 145.664C311.067 145.664 311.545 145.747 311.982 145.912C312.419 146.077 312.795 146.32 313.11 146.64C313.425 146.955 313.67 147.344 313.846 147.808C314.027 148.267 314.118 148.792 314.118 149.384C314.118 149.683 314.086 149.885 314.022 149.992C313.958 150.093 313.835 150.144 313.654 150.144H308.574ZM318.259 154.128C317.544 154.128 316.995 153.928 316.611 153.528C316.232 153.123 316.043 152.565 316.043 151.856V147.272H315.203C315.096 147.272 315.006 147.237 314.931 147.168C314.856 147.099 314.819 146.995 314.819 146.856V146.072L316.139 145.856L316.555 143.616C316.582 143.509 316.632 143.427 316.707 143.368C316.782 143.309 316.878 143.28 316.995 143.28H318.019V145.864H320.211V147.272H318.019V151.72C318.019 151.976 318.08 152.176 318.203 152.32C318.331 152.464 318.504 152.536 318.723 152.536C318.846 152.536 318.947 152.523 319.027 152.496C319.112 152.464 319.184 152.432 319.243 152.4C319.307 152.368 319.363 152.339 319.411 152.312C319.459 152.28 319.507 152.264 319.555 152.264C319.614 152.264 319.662 152.28 319.699 152.312C319.736 152.339 319.776 152.381 319.819 152.44L320.411 153.4C320.123 153.64 319.792 153.821 319.419 153.944C319.046 154.067 318.659 154.128 318.259 154.128ZM325.812 150.496C325.241 150.523 324.761 150.573 324.372 150.648C323.983 150.717 323.671 150.808 323.436 150.92C323.201 151.032 323.033 151.163 322.932 151.312C322.831 151.461 322.78 151.624 322.78 151.8C322.78 152.147 322.881 152.395 323.084 152.544C323.292 152.693 323.561 152.768 323.892 152.768C324.297 152.768 324.647 152.696 324.94 152.552C325.239 152.403 325.529 152.179 325.812 151.88V150.496ZM321.284 146.936C322.228 146.072 323.364 145.64 324.692 145.64C325.172 145.64 325.601 145.72 325.98 145.88C326.359 146.035 326.679 146.253 326.94 146.536C327.201 146.813 327.399 147.147 327.532 147.536C327.671 147.925 327.74 148.352 327.74 148.816V154H326.844C326.657 154 326.513 153.973 326.412 153.92C326.311 153.861 326.231 153.747 326.172 153.576L325.996 152.984C325.788 153.171 325.585 153.336 325.388 153.48C325.191 153.619 324.985 153.736 324.772 153.832C324.559 153.928 324.329 154 324.084 154.048C323.844 154.101 323.577 154.128 323.284 154.128C322.937 154.128 322.617 154.083 322.324 153.992C322.031 153.896 321.777 153.755 321.564 153.568C321.351 153.381 321.185 153.149 321.068 152.872C320.951 152.595 320.892 152.272 320.892 151.904C320.892 151.696 320.927 151.491 320.996 151.288C321.065 151.08 321.177 150.883 321.332 150.696C321.492 150.509 321.697 150.333 321.948 150.168C322.199 150.003 322.505 149.859 322.868 149.736C323.236 149.613 323.663 149.515 324.148 149.44C324.633 149.36 325.188 149.312 325.812 149.296V148.816C325.812 148.267 325.695 147.861 325.46 147.6C325.225 147.333 324.887 147.2 324.444 147.2C324.124 147.2 323.857 147.237 323.644 147.312C323.436 147.387 323.252 147.472 323.092 147.568C322.932 147.659 322.785 147.741 322.652 147.816C322.524 147.891 322.38 147.928 322.22 147.928C322.081 147.928 321.964 147.893 321.868 147.824C321.772 147.749 321.695 147.664 321.636 147.568L321.284 146.936ZM331.649 145.792V154H329.665V145.792H331.649ZM331.921 143.4C331.921 143.571 331.886 143.731 331.817 143.88C331.748 144.029 331.654 144.16 331.537 144.272C331.425 144.384 331.292 144.475 331.137 144.544C330.982 144.608 330.817 144.64 330.641 144.64C330.47 144.64 330.308 144.608 330.153 144.544C330.004 144.475 329.873 144.384 329.761 144.272C329.649 144.16 329.558 144.029 329.489 143.88C329.425 143.731 329.393 143.571 329.393 143.4C329.393 143.224 329.425 143.059 329.489 142.904C329.558 142.749 329.649 142.616 329.761 142.504C329.873 142.392 330.004 142.304 330.153 142.24C330.308 142.171 330.47 142.136 330.641 142.136C330.817 142.136 330.982 142.171 331.137 142.24C331.292 142.304 331.425 142.392 331.537 142.504C331.654 142.616 331.748 142.749 331.817 142.904C331.886 143.059 331.921 143.224 331.921 143.4ZM335.664 142.112V154H333.688V142.112H335.664ZM342.64 147.392C342.587 147.477 342.531 147.539 342.472 147.576C342.414 147.608 342.339 147.624 342.248 147.624C342.152 147.624 342.048 147.597 341.936 147.544C341.83 147.491 341.704 147.432 341.56 147.368C341.416 147.299 341.251 147.237 341.064 147.184C340.883 147.131 340.667 147.104 340.416 147.104C340.027 147.104 339.72 147.187 339.496 147.352C339.278 147.517 339.168 147.733 339.168 148C339.168 148.176 339.224 148.325 339.336 148.448C339.454 148.565 339.606 148.669 339.792 148.76C339.984 148.851 340.2 148.933 340.44 149.008C340.68 149.077 340.923 149.155 341.168 149.24C341.419 149.325 341.664 149.424 341.904 149.536C342.144 149.643 342.358 149.781 342.544 149.952C342.736 150.117 342.888 150.317 343 150.552C343.118 150.787 343.176 151.069 343.176 151.4C343.176 151.795 343.104 152.16 342.96 152.496C342.822 152.827 342.614 153.115 342.336 153.36C342.059 153.6 341.715 153.789 341.304 153.928C340.899 154.061 340.43 154.128 339.896 154.128C339.614 154.128 339.336 154.101 339.064 154.048C338.798 154 338.539 153.931 338.288 153.84C338.043 153.749 337.814 153.643 337.6 153.52C337.392 153.397 337.208 153.264 337.048 153.12L337.504 152.368C337.563 152.277 337.632 152.208 337.712 152.16C337.792 152.112 337.894 152.088 338.016 152.088C338.139 152.088 338.254 152.123 338.36 152.192C338.472 152.261 338.6 152.336 338.744 152.416C338.888 152.496 339.056 152.571 339.248 152.64C339.446 152.709 339.694 152.744 339.992 152.744C340.227 152.744 340.427 152.717 340.592 152.664C340.763 152.605 340.902 152.531 341.008 152.44C341.12 152.349 341.2 152.245 341.248 152.128C341.302 152.005 341.328 151.88 341.328 151.752C341.328 151.56 341.27 151.403 341.152 151.28C341.04 151.157 340.888 151.051 340.696 150.96C340.51 150.869 340.294 150.789 340.048 150.72C339.808 150.645 339.56 150.565 339.304 150.48C339.054 150.395 338.806 150.296 338.56 150.184C338.32 150.067 338.104 149.92 337.912 149.744C337.726 149.568 337.574 149.352 337.456 149.096C337.344 148.84 337.288 148.531 337.288 148.168C337.288 147.832 337.355 147.512 337.488 147.208C337.622 146.904 337.816 146.64 338.072 146.416C338.334 146.187 338.656 146.005 339.04 145.872C339.43 145.733 339.878 145.664 340.384 145.664C340.95 145.664 341.464 145.757 341.928 145.944C342.392 146.131 342.779 146.376 343.088 146.68L342.64 147.392Z" fill="#7B61FF"/>
</g>
<defs>
<filter id="filter0_d_1_88" x="230" y="118" width="138" height="59" filterUnits="userSpaceOnUse" color-interpolation-filters="sRGB">
<feFlood flood-opacity="0" result="BackgroundImageFix"/>
<feColorMatrix in="SourceAlpha" type="matrix" values="0 0 0 0 0 0 0 0 0 0 0 0 0 0 0 0 0 0 127 0" result="hardAlpha"/>
<feOffset/>
<feGaussianBlur stdDeviation="6"/>
<feComposite in2="hardAlpha" operator="out"/>
<feColorMatrix type="matrix" values="0 0 0 0 0 0 0 0 0 0 0 0 0 0 0 0 0 0 0.08 0"/>
<feBlend mode="normal" in2="BackgroundImageFix" result="effect1_dropShadow_1_88"/>
<feBlend mode="normal" in="SourceGraphic" in2="effect1_dropShadow_1_88" result="shape"/>
</filter>
<clipPath id="clip0_1_88">
<rect width="14" height="14" fill="white" transform="translate(94 52)"/>
</clipPath>
<clipPath id="clip1_1_88">
<rect width="14" height="14" fill="white" transform="translate(124 52)"/>
</clipPath>
<clipPath id="clip2_1_88">
<rect width="11" height="14" fill="white" transform="translate(2 87.5)"/>
</clipPath>
</defs>
</svg>
