<svg width="1249" height="83" viewBox="0 0 1296 83" fill="none" xmlns="http://www.w3.org/2000/svg">
<rect x="0.5" y="12.5" width="1295" height="58" rx="11.5" fill="#F2F2F2"/>
<rect x="0.5" y="12.5" width="1295" height="58" rx="11.5" stroke="#E6E6E6"/>
<g filter="url(#filter0_d_1_63)">
<rect y="12" width="324" height="59" rx="12" fill="white" shape-rendering="crispEdges"/>
<path d="M131.888 36.808C132.192 36.808 132.512 36.984 132.704 37.288L136.048 42.52L139.376 37.272C139.584 36.952 139.92 36.808 140.224 36.808C140.688 36.808 141.12 37.128 141.12 37.704V46.168C141.12 46.728 140.624 47 140.176 47C139.712 47 139.264 46.728 139.264 46.168V40.776L136.88 44.504C136.704 44.824 136.368 44.968 136.048 44.968C135.728 44.968 135.36 44.776 135.184 44.456L132.832 40.792V46.168C132.832 46.728 132.352 47 131.904 47C131.44 47 130.976 46.728 130.976 46.168V37.72C130.976 37.16 131.424 36.808 131.888 36.808ZM150.684 38.856C151.244 38.856 151.612 39.24 151.612 39.752V46.184C151.612 46.712 151.132 47 150.7 47C150.236 47 149.788 46.712 149.788 46.168V46.104C148.908 46.952 147.932 47.16 147.116 47.16C144.892 47.16 143.596 45.656 143.596 43.272V39.752C143.596 39.256 143.932 38.856 144.508 38.856C145.052 38.856 145.42 39.256 145.42 39.752V43.304C145.42 44.696 146.028 45.56 147.388 45.56C148.204 45.56 149.788 44.68 149.788 42.808V39.752C149.788 39.24 150.092 38.856 150.684 38.856ZM164.806 38.696C167.03 38.696 168.326 40.28 168.326 42.568V46.168C168.326 46.664 168.006 47 167.414 47C166.87 47 166.502 46.664 166.502 46.168V42.536C166.502 41.208 165.894 40.296 164.55 40.296C163.526 40.296 162.118 41.288 162.118 43.032V46.168C162.118 46.664 161.798 47 161.222 47C160.678 47 160.294 46.664 160.294 46.168V42.536C160.294 41.208 159.686 40.296 158.342 40.296C157.526 40.296 155.974 41.16 155.974 43.032V46.2C155.974 46.744 155.51 47 155.062 47C154.598 47 154.166 46.744 154.166 46.2V39.672C154.166 39.224 154.566 38.856 155.062 38.856C155.606 38.856 155.974 39.224 155.974 39.672V39.72C156.838 38.888 157.798 38.696 158.614 38.696C159.958 38.696 160.95 39.272 161.526 40.216C162.502 39 163.83 38.696 164.806 38.696ZM175.116 38.696C177.564 38.696 178.972 40.376 178.972 42.84C178.972 45.288 177.644 47.16 175.436 47.16C174.46 47.16 173.516 46.84 172.78 46.168C172.78 46.696 172.508 47 171.916 47C171.34 47 170.988 46.696 170.988 46.184V37.448C170.988 36.888 171.436 36.648 171.9 36.648C172.348 36.648 172.812 36.888 172.812 37.448L172.796 39.672C173.5 39.016 174.348 38.696 175.116 38.696ZM175.052 45.528C176.316 45.528 177.148 44.456 177.148 42.856C177.148 41.336 176.252 40.328 174.908 40.328C174.044 40.328 173.164 40.808 172.796 41.688L172.78 44.088C173.068 45.048 174.028 45.528 175.052 45.528ZM187.518 38.856C188.062 38.856 188.43 39.192 188.43 39.688V46.168C188.43 46.664 188.062 47 187.518 47C186.99 47 186.686 46.728 186.622 46.328C185.886 46.904 184.926 47.16 184.126 47.16C181.806 47.16 180.398 45.48 180.398 42.904C180.398 40.424 181.982 38.696 184.334 38.696C185.022 38.696 185.918 38.952 186.622 39.496C186.702 39.112 187.006 38.856 187.518 38.856ZM184.318 45.544C185.262 45.544 186.238 45.128 186.606 44.312V41.544C186.206 40.76 185.294 40.312 184.462 40.312C183.118 40.312 182.222 41.4 182.222 42.92C182.222 44.504 183.054 45.544 184.318 45.544ZM192.338 37.656C192.338 38.2 191.858 38.456 191.41 38.456C190.93 38.456 190.482 38.2 190.482 37.656V37.448C190.482 36.904 190.93 36.648 191.41 36.648C191.858 36.648 192.338 36.904 192.338 37.448V37.656ZM190.498 39.64C190.498 39.128 190.978 38.856 191.41 38.856C191.858 38.856 192.322 39.128 192.322 39.624V46.216C192.322 46.744 191.858 47 191.41 47C190.978 47 190.498 46.744 190.498 46.216V39.64Z" fill="black"/>
</g>
<path d="M468.268 44.168V46.184C468.268 46.744 467.788 47 467.34 47C466.876 47 466.428 46.728 466.428 46.2V37.64C466.428 37.144 466.844 36.808 467.356 36.808H470.62C473.276 36.808 474.828 38.312 474.828 40.568C474.828 42.728 473.26 44.168 470.572 44.168H468.268ZM468.268 38.392V42.584H470.572C472.14 42.584 473.004 41.784 473.004 40.568C473.004 39.256 472.156 38.392 470.636 38.392H468.268ZM483.59 38.856C484.15 38.856 484.518 39.24 484.518 39.752V46.184C484.518 46.712 484.038 47 483.606 47C483.142 47 482.694 46.712 482.694 46.168V46.104C481.814 46.952 480.838 47.16 480.022 47.16C477.798 47.16 476.502 45.656 476.502 43.272V39.752C476.502 39.256 476.838 38.856 477.414 38.856C477.958 38.856 478.326 39.256 478.326 39.752V43.304C478.326 44.696 478.934 45.56 480.294 45.56C481.11 45.56 482.694 44.68 482.694 42.808V39.752C482.694 39.24 482.998 38.856 483.59 38.856ZM491.392 38.696C493.616 38.696 494.912 40.264 494.912 42.552V46.168C494.912 46.664 494.576 47 494 47C493.456 47 493.088 46.664 493.088 46.168V42.52C493.088 41.192 492.48 40.296 491.12 40.296C490.288 40.296 488.624 41.16 488.624 43.032V46.184C488.624 46.696 488.32 47 487.744 47C487.184 47 486.8 46.696 486.8 46.184V39.672C486.8 39.144 487.248 38.856 487.712 38.856C488.16 38.856 488.624 39.144 488.624 39.64V39.752C489.536 38.904 490.576 38.696 491.392 38.696ZM500.889 45.576C501.497 45.576 502.121 45.416 502.633 45.016C503.609 44.136 504.729 45.352 503.833 46.2C503.081 46.92 501.993 47.176 500.937 47.16C498.424 47.16 496.713 45.512 496.713 43.112C496.713 40.488 498.329 38.696 500.889 38.696C503.449 38.696 504.889 40.376 504.905 42.856C504.905 43.384 504.809 43.816 503.897 43.816H498.569C498.857 44.856 499.753 45.576 500.889 45.576ZM500.905 40.28C499.657 40.28 498.777 41.128 498.553 42.392H503.209C503.097 41.128 502.409 40.28 500.905 40.28Z" fill="black"/>
<path d="M796.22 36.808C799.132 36.808 801.068 38.856 801.068 41.912C801.068 44.968 799.132 47 796.22 47H792.924C792.348 47 791.868 46.568 791.868 46.056V37.736C791.868 37.224 792.348 36.808 792.924 36.808H796.22ZM796.22 45.416C798.012 45.416 799.228 44.024 799.228 41.912C799.228 39.8 798.012 38.376 796.22 38.376H793.692V45.416H796.22ZM806.592 45.576C807.2 45.576 807.824 45.416 808.336 45.016C809.312 44.136 810.432 45.352 809.536 46.2C808.784 46.92 807.696 47.176 806.64 47.16C804.128 47.16 802.416 45.512 802.416 43.112C802.416 40.488 804.032 38.696 806.592 38.696C809.152 38.696 810.592 40.376 810.608 42.856C810.608 43.384 810.512 43.816 809.6 43.816H804.272C804.56 44.856 805.456 45.576 806.592 45.576ZM806.608 40.28C805.36 40.28 804.48 41.128 804.256 42.392H808.912C808.8 41.128 808.112 40.28 806.608 40.28ZM814.306 46.2C814.306 46.632 813.906 47 813.394 47C812.85 47 812.482 46.632 812.482 46.2V37.448C812.482 37.016 812.85 36.648 813.394 36.648C813.906 36.648 814.306 37.016 814.306 37.448V46.2ZM820.452 38.696C822.676 38.696 823.972 40.264 823.972 42.552V46.168C823.972 46.664 823.652 47 823.06 47C822.516 47 822.148 46.664 822.148 46.168V42.52C822.148 41.192 821.54 40.296 820.196 40.296C819.38 40.296 817.796 40.984 817.796 42.84V46.168C817.796 46.664 817.476 47 816.9 47C816.324 47 815.956 46.664 815.956 46.168V37.416C815.956 36.92 816.436 36.648 816.884 36.648C817.348 36.648 817.796 36.92 817.796 37.416V39.592C818.676 38.84 819.652 38.696 820.452 38.696ZM827.556 37.656C827.556 38.2 827.076 38.456 826.628 38.456C826.148 38.456 825.7 38.2 825.7 37.656V37.448C825.7 36.904 826.148 36.648 826.628 36.648C827.076 36.648 827.556 36.904 827.556 37.448V37.656ZM825.716 39.64C825.716 39.128 826.196 38.856 826.628 38.856C827.076 38.856 827.54 39.128 827.54 39.624V46.216C827.54 46.744 827.076 47 826.628 47C826.196 47 825.716 46.744 825.716 46.216V39.64Z" fill="black"/>
<path d="M1099.96 36.808C1101.51 36.808 1103.89 37.208 1103.89 39.608C1103.89 40.296 1103.54 41.128 1102.95 41.464C1104.05 41.912 1104.6 42.776 1104.6 43.912C1104.6 46.392 1102.37 47 1100.29 47H1096.39C1095.88 47 1095.44 46.616 1095.44 46.152V37.656C1095.44 37.176 1095.88 36.808 1096.39 36.808H1099.96ZM1099.96 38.392H1097.3V40.872H1100C1101.09 40.872 1102.05 40.504 1102.05 39.608C1102.05 38.568 1100.76 38.392 1099.96 38.392ZM1100.76 42.456H1097.3V45.416H1100.29C1101.44 45.416 1102.71 45.176 1102.71 43.912C1102.71 42.936 1101.84 42.456 1100.76 42.456ZM1112.92 38.856C1113.47 38.856 1113.84 39.192 1113.84 39.688V46.168C1113.84 46.664 1113.47 47 1112.92 47C1112.4 47 1112.09 46.728 1112.03 46.328C1111.29 46.904 1110.33 47.16 1109.53 47.16C1107.21 47.16 1105.8 45.48 1105.8 42.904C1105.8 40.424 1107.39 38.696 1109.74 38.696C1110.43 38.696 1111.32 38.952 1112.03 39.496C1112.11 39.112 1112.41 38.856 1112.92 38.856ZM1109.72 45.544C1110.67 45.544 1111.64 45.128 1112.01 44.312V41.544C1111.61 40.76 1110.7 40.312 1109.87 40.312C1108.52 40.312 1107.63 41.4 1107.63 42.92C1107.63 44.504 1108.46 45.544 1109.72 45.544ZM1120.74 38.696C1122.96 38.696 1124.26 40.264 1124.26 42.552V46.168C1124.26 46.664 1123.92 47 1123.34 47C1122.8 47 1122.43 46.664 1122.43 46.168V42.52C1122.43 41.192 1121.82 40.296 1120.46 40.296C1119.63 40.296 1117.97 41.16 1117.97 43.032V46.184C1117.97 46.696 1117.66 47 1117.09 47C1116.53 47 1116.14 46.696 1116.14 46.184V39.672C1116.14 39.144 1116.59 38.856 1117.06 38.856C1117.5 38.856 1117.97 39.144 1117.97 39.64V39.752C1118.88 38.904 1119.92 38.696 1120.74 38.696ZM1133.13 38.856C1133.69 38.856 1134.06 39.272 1134.06 39.768V46.504C1134.06 48.856 1132.26 50.072 1130.02 50.072C1128.78 50.072 1127.8 49.8 1126.94 48.984C1126.07 48.12 1127.27 46.984 1128.14 47.736C1128.79 48.312 1129.29 48.424 1130.02 48.424C1131.18 48.424 1132.26 47.832 1132.26 46.504V46.36C1131.54 46.904 1130.62 47.16 1129.88 47.16C1127.56 47.16 1126.01 45.48 1126.01 42.904C1126.01 40.424 1127.59 38.696 1129.94 38.696C1130.66 38.696 1131.54 38.888 1132.26 39.416C1132.38 39.064 1132.66 38.856 1133.13 38.856ZM1129.93 45.544C1130.9 45.544 1131.91 45.112 1132.25 44.264V41.592C1131.85 40.776 1130.92 40.312 1130.07 40.312C1128.73 40.312 1127.83 41.4 1127.83 42.92C1127.83 44.504 1128.66 45.544 1129.93 45.544ZM1142.99 38.856C1143.53 38.856 1143.9 39.192 1143.9 39.688V46.168C1143.9 46.664 1143.53 47 1142.99 47C1142.46 47 1142.15 46.728 1142.09 46.328C1141.35 46.904 1140.39 47.16 1139.59 47.16C1137.27 47.16 1135.87 45.48 1135.87 42.904C1135.87 40.424 1137.45 38.696 1139.8 38.696C1140.49 38.696 1141.39 38.952 1142.09 39.496C1142.17 39.112 1142.47 38.856 1142.99 38.856ZM1139.79 45.544C1140.73 45.544 1141.71 45.128 1142.07 44.312V41.544C1141.67 40.76 1140.76 40.312 1139.93 40.312C1138.59 40.312 1137.69 41.4 1137.69 42.92C1137.69 44.504 1138.52 45.544 1139.79 45.544ZM1147.79 46.2C1147.79 46.632 1147.39 47 1146.88 47C1146.33 47 1145.97 46.632 1145.97 46.2V37.448C1145.97 37.016 1146.33 36.648 1146.88 36.648C1147.39 36.648 1147.79 37.016 1147.79 37.448V46.2ZM1153.22 38.696C1155.78 38.696 1157.47 40.424 1157.47 42.968C1157.44 45.48 1155.73 47.16 1153.22 47.16C1150.7 47.16 1148.99 45.48 1148.96 42.968C1148.96 40.424 1150.67 38.696 1153.22 38.696ZM1153.22 45.56C1154.66 45.56 1155.6 44.504 1155.6 42.968C1155.6 41.4 1154.66 40.296 1153.22 40.296C1151.78 40.296 1150.83 41.4 1150.83 42.968C1150.83 44.504 1151.78 45.56 1153.22 45.56ZM1162.45 38.856C1163.02 38.856 1163.39 39.096 1163.39 39.64C1163.39 40.152 1163.02 40.472 1162.45 40.472C1161.1 40.472 1160.62 41.496 1160.62 43.144V46.184C1160.62 46.664 1160.22 47 1159.74 47C1159.18 47 1158.81 46.664 1158.81 46.184V39.672C1158.81 39.16 1159.29 38.856 1159.74 38.856C1160.19 38.856 1160.62 39.144 1160.62 39.672V39.768C1161.09 39.144 1161.71 38.856 1162.45 38.856ZM1167.94 45.576C1168.54 45.576 1169.17 45.416 1169.68 45.016C1170.66 44.136 1171.78 45.352 1170.88 46.2C1170.13 46.92 1169.04 47.176 1167.98 47.16C1165.47 47.16 1163.76 45.512 1163.76 43.112C1163.76 40.488 1165.38 38.696 1167.94 38.696C1170.5 38.696 1171.94 40.376 1171.95 42.856C1171.95 43.384 1171.86 43.816 1170.94 43.816H1165.62C1165.9 44.856 1166.8 45.576 1167.94 45.576ZM1167.95 40.28C1166.7 40.28 1165.82 41.128 1165.6 42.392H1170.26C1170.14 41.128 1169.46 40.28 1167.95 40.28Z" fill="black"/>
<defs>
<filter id="filter0_d_1_63" x="-12" y="0" width="348" height="83" filterUnits="userSpaceOnUse" color-interpolation-filters="sRGB">
<feFlood flood-opacity="0" result="BackgroundImageFix"/>
<feColorMatrix in="SourceAlpha" type="matrix" values="0 0 0 0 0 0 0 0 0 0 0 0 0 0 0 0 0 0 127 0" result="hardAlpha"/>
<feOffset/>
<feGaussianBlur stdDeviation="6"/>
<feComposite in2="hardAlpha" operator="out"/>
<feColorMatrix type="matrix" values="0 0 0 0 0 0 0 0 0 0 0 0 0 0 0 0 0 0 0.12 0"/>
<feBlend mode="normal" in2="BackgroundImageFix" result="effect1_dropShadow_1_63"/>
<feBlend mode="normal" in="SourceGraphic" in2="effect1_dropShadow_1_63" result="shape"/>
</filter>
</defs>
</svg>
